<?xml version="1.0" encoding="UTF-8" standalone="no"?>
<!DOCTYPE svg PUBLIC "-//W3C//DTD SVG 1.1//EN" "http://www.w3.org/Graphics/SVG/1.1/DTD/svg11.dtd">
<svg width="100%" height="100%" viewBox="0 0 113 128" version="1.1" xmlns="http://www.w3.org/2000/svg" xmlns:xlink="http://www.w3.org/1999/xlink" xml:space="preserve" xmlns:serif="http://www.serif.com/" style="fill-rule:evenodd;clip-rule:evenodd;stroke-linejoin:round;stroke-miterlimit:2;">
    <g transform="matrix(1,0,0,1,-359.05,-11.688)">
        <path d="M470.035,100.405C471.198,92.598 465.716,92.765 465.716,92.765C465.716,92.765 465.55,82.716 455.667,81.055C445.784,79.394 432.164,90.024 432.164,90.024C431.009,87.749 429.992,85.396 429.097,83.029C431.782,83.176 428.691,77.973 428.691,77.973C428.691,77.973 429.98,78.77 430.255,77.385C430.529,76.003 426.01,72.927 425.403,70.275C423.471,60.958 423.533,53.413 425.023,52.32C426.388,51.319 427.229,50.219 427.711,49.428C428.056,48.861 427.861,48.123 427.274,47.814L426.684,47.503L427.659,46.272C428,45.841 427.989,45.229 427.626,44.816C425.009,41.844 419.927,34.814 417.715,28.485C415.931,23.378 413.782,19.138 412.788,17.283C412.482,16.711 411.752,16.506 411.205,16.853C408.628,18.486 407.252,20.845 407.252,20.845C403.791,21.126 400.564,21.525 397.638,21.974C392.454,22.288 386.928,20.58 387.423,22.675C387.423,22.675 384.594,22.639 385.683,24.373C382.75,25.114 381.091,25.661 381.091,25.661C378.534,23.326 376.274,22.628 375.059,22.422C374.511,22.329 373.983,22.651 373.804,23.177C372.179,27.954 371.92,35.173 369.962,40.028C368.525,43.592 367.048,46.041 366.275,47.212C365.967,47.678 366.048,48.296 366.459,48.674L368.633,50.077L368.039,50.756C367.751,51.085 367.852,51.597 368.243,51.792L370.128,52.735L369.581,53.043C369.059,53.337 368.837,53.991 369.108,54.525C369.896,56.078 371.953,58.292 372.398,62.922C372.952,68.68 367.858,89.83 362.875,101.125C357.892,112.42 360.882,119.95 360.882,119.95C360.882,119.95 359.133,118.288 359.055,120.869C358.93,124.994 362.414,128.081 365.601,132.183C366.635,133.514 367.964,134.547 369.454,135.239C370.673,135.888 372.298,136.381 374.184,136.749C374.136,136.83 374.084,136.913 374.043,136.989C373.787,137.472 374.052,138.063 374.58,138.204C376.577,138.74 381.715,139.746 388.997,138.491C389.491,138.406 389.79,137.937 389.696,137.479C392.36,137.343 394.971,137.101 397.345,136.78C400.088,136.409 402.849,136.228 405.617,136.228L412.568,136.228C413.87,136.228 415.575,136.407 417.597,136.614C417.459,136.838 417.336,137.053 417.233,137.249C416.958,137.767 417.275,138.392 417.852,138.491C425.134,139.746 430.272,138.741 432.269,138.204C432.788,138.065 433.05,137.492 432.815,137.013C433.07,136.991 433.322,136.973 433.58,136.947C442.894,135.991 441.967,136.133 443.634,135.913C445.419,135.71 447.185,135.409 448.927,134.99C473.956,128.961 471.118,107.631 471.118,107.631C473.274,104.392 470.035,100.405 470.035,100.405Z" style="fill:url(#_Linear1);fill-rule:nonzero;"/>
    </g>
    <g transform="matrix(1,0,0,1,-359.05,-11.688)">
        <path d="M397.385,47.879C398.276,47.72 399.153,51.013 399.124,51.222C399.095,51.43 396.599,52.398 396.443,51.46C396.287,50.52 396.454,48.045 397.385,47.879Z" style="fill:rgb(166,39,116);fill-opacity:0.33;fill-rule:nonzero;"/>
    </g>
    <g transform="matrix(1,0,0,1,-359.05,-11.688)">
        <path d="M389.491,31.263C394.585,31.671 395.14,46.335 394.75,49.303C394.361,52.271 391.305,59.539 382.329,59.128C373.353,58.717 372.453,50.187 376.126,41.012C379.799,31.836 385.91,30.977 389.491,31.263Z" style="fill:rgb(202,161,226);fill-opacity:0.65;fill-rule:nonzero;"/>
    </g>
    <g transform="matrix(1,0,0,1,-359.05,-11.688)">
        <path d="M402.514,50.303C402.514,50.303 406.254,54.498 412.932,52.358C419.463,50.265 418.131,43.139 418.131,43.139L402.514,50.303Z" style="fill:rgb(166,39,116);fill-opacity:0.33;fill-rule:nonzero;"/>
    </g>
    <g transform="matrix(1,0,0,1,-359.05,-11.688)">
        <path d="M392.958,52.046C392.958,52.046 389.452,57.946 382.093,56.212C374.735,54.478 375.386,47.641 375.386,47.641L392.958,52.046Z" style="fill:rgb(166,39,116);fill-opacity:0.33;fill-rule:nonzero;"/>
    </g>
    <g transform="matrix(1,0,0,1,-359.05,-11.688)">
        <path d="M399.692,50.299L399.81,50.081C400.142,49.469 400.19,48.747 399.942,48.097C398.932,45.447 396.789,37.866 403.678,34.242C410.415,30.699 415.4,34.29 417.197,37.347C417.737,38.265 418.814,38.715 419.845,38.45C419.845,38.45 418.356,40.852 418.132,43.139C417.907,45.426 404.064,50.972 402.515,50.303C400.965,49.634 399.692,50.299 399.692,50.299Z" style="fill:rgb(24,3,40);fill-rule:nonzero;"/>
    </g>
    <g transform="matrix(1,0,0,1,-359.05,-11.688)">
        <path d="M395.591,50.936L395.418,50.759C394.932,50.262 394.687,49.58 394.747,48.887C394.992,46.061 394.176,38.166 386.528,36.716C379.469,35.377 375.465,39.935 374.574,43.368C374.307,44.399 374.026,45.036 372.33,45.154C372.33,45.154 374.543,45.503 375.386,47.641C375.386,47.641 386.653,46.888 390.659,47.175C391.243,47.217 392.792,52.182 392.958,52.046C394.264,50.978 395.591,50.936 395.591,50.936Z" style="fill:rgb(24,3,40);fill-rule:nonzero;"/>
    </g>
    <g transform="matrix(1,0,0,1,-359.05,-11.688)">
        <clipPath id="_clip2">
            <path d="M400.633,48.472C398.384,45.152 398.363,36.014 406.059,33.911C413.755,31.808 418.627,37.997 418.073,44.265C417.878,46.479 416.665,50.134 412.862,51.47C410.298,52.371 407.502,52.501 404.957,51.547C403.376,50.954 401.666,49.997 400.633,48.472Z"/>
        </clipPath>
        <g clip-path="url(#_clip2)">
            <path d="M400.633,48.472C398.384,45.152 398.363,36.014 406.059,33.911C413.755,31.808 419.232,37.857 418.568,44.114C418.568,44.114 423.087,53.704 408.712,52.459C408.712,52.458 402.958,51.904 400.633,48.472Z" style="fill:url(#_Linear3);fill-rule:nonzero;"/>
        </g>
        <g>
            <clipPath id="_clip4">
                <path d="M400.633,48.472C398.384,45.152 398.363,36.014 406.059,33.911C413.755,31.808 418.627,37.997 418.073,44.265C417.878,46.479 416.665,50.134 412.862,51.47C410.298,52.371 407.502,52.501 404.957,51.547C403.376,50.954 401.666,49.997 400.633,48.472Z"/>
            </clipPath>
            <g clip-path="url(#_clip4)">
                <g>
                    <circle cx="406.381" cy="40.808" r="7.741" style="fill:url(#_Linear5);"/>
                    <path d="M411.781,49.136C411.781,52.327 409.194,54.913 406.004,54.913C402.813,54.913 400.227,52.327 400.227,49.136C400.227,45.945 402.813,43.359 406.004,43.359C409.194,43.359 411.781,45.946 411.781,49.136Z" style="fill:url(#_Linear6);fill-rule:nonzero;"/>
                </g>
            </g>
        </g>
        <clipPath id="_clip7">
            <path d="M400.633,48.472C398.384,45.152 398.363,36.014 406.059,33.911C413.755,31.808 418.627,37.997 418.073,44.265C417.878,46.479 416.665,50.134 412.862,51.47C410.298,52.371 407.502,52.501 404.957,51.547C403.376,50.954 401.666,49.997 400.633,48.472Z"/>
        </clipPath>
        <g clip-path="url(#_clip7)">
            <path d="M400.024,50.947C400.024,50.947 396.54,37.34 407.537,36.505C418.534,35.67 423.689,54.844 423.689,54.844C423.689,54.844 423.452,31.223 418.908,24.982C414.364,18.741 411.559,8.713 404.79,12.975C398.02,17.236 394.793,31.704 394.793,31.704L400.024,50.947Z" style="fill:rgb(131,74,44);fill-opacity:0.47;fill-rule:nonzero;"/>
        </g>
    </g>
    <g transform="matrix(1,0,0,1,-359.05,-11.688)">
        <clipPath id="_clip8">
            <path d="M394.377,48.583C395.152,44.154 391.609,37.011 384.19,37.122C376.771,37.233 374.928,43.021 375.387,47.642C375.701,50.805 378.106,55.772 385.177,55.752C389.379,55.74 393.29,53.312 394.248,49.221C394.295,49.014 394.338,48.801 394.377,48.583Z"/>
        </clipPath>
        <g clip-path="url(#_clip8)">
            <path d="M394.377,48.583C395.152,44.154 391.609,37.011 384.19,37.122C376.771,37.233 374.016,42.993 374.681,47.589C374.681,47.589 372.963,59.431 388.177,55.725C388.176,55.725 393.303,54.715 394.377,48.583Z" style="fill:url(#_Linear9);fill-rule:nonzero;"/>
        </g>
        <g>
            <clipPath id="_clip10">
                <path d="M394.377,48.583C395.152,44.154 391.609,37.011 384.19,37.122C376.771,37.233 374.928,43.021 375.387,47.642C375.701,50.805 378.106,55.772 385.177,55.752C389.379,55.74 393.29,53.312 394.248,49.221C394.295,49.014 394.338,48.801 394.377,48.583Z"/>
            </clipPath>
            <g clip-path="url(#_clip10)">
                <g>
                    <circle cx="386.374" cy="44.289" r="7.816" style="fill:url(#_Linear11);"/>
                    <path d="M394.998,50.811C394.998,54.002 392.412,56.588 389.221,56.588C386.03,56.588 383.444,54.001 383.444,50.811C383.444,47.62 386.031,45.034 389.221,45.034C392.412,45.034 394.998,47.621 394.998,50.811Z" style="fill:url(#_Linear12);fill-rule:nonzero;"/>
                </g>
            </g>
        </g>
        <clipPath id="_clip13">
            <path d="M394.377,48.583C395.152,44.154 391.609,37.011 384.19,37.122C376.771,37.233 374.928,43.021 375.387,47.642C375.701,50.805 378.106,55.772 385.177,55.752C389.379,55.74 393.29,53.312 394.248,49.221C394.295,49.014 394.338,48.801 394.377,48.583Z"/>
        </clipPath>
        <g clip-path="url(#_clip13)">
            <path d="M371.787,53.106C371.787,53.106 374.206,40.551 385.203,39.716C396.2,38.881 398.197,60.996 398.197,60.996C398.197,60.996 401.119,34.434 396.575,28.193C392.031,21.952 389.227,11.925 382.457,16.186C375.687,20.448 372.46,34.915 372.46,34.915L371.787,53.106Z" style="fill:rgb(131,74,44);fill-opacity:0.47;fill-rule:nonzero;"/>
        </g>
    </g>
    <g transform="matrix(1,0,0,1,-359.05,-11.688)">
        <path d="M396.449,29.091C396.562,30.245 402.188,31.892 402.859,29.232C403.529,26.572 396.19,26.448 396.449,29.091Z" style="fill:rgb(62,30,67);fill-rule:nonzero;"/>
    </g>
    <g transform="matrix(1,0,0,1,-359.05,-11.688)">
        <path d="M392.059,29.715C391.69,28.34 385.237,28.617 385.653,31.546C386.068,34.475 392.428,31.091 392.059,29.715Z" style="fill:rgb(62,30,67);fill-rule:nonzero;"/>
    </g>
    <g transform="matrix(1,0,0,1,-359.05,-11.688)">
        <path d="M400.572,56.772L398.457,55.099L398.204,52.116C398.189,51.937 398.032,51.802 397.852,51.819C397.673,51.834 397.54,51.992 397.555,52.171L397.81,55.173L396.649,56.751C396.543,56.896 396.574,57.099 396.718,57.206C396.766,57.241 396.819,57.261 396.873,57.267C396.985,57.28 397.101,57.234 397.173,57.137L398.207,55.732L400.169,57.283C400.218,57.322 400.275,57.344 400.333,57.351C400.441,57.363 400.553,57.321 400.625,57.23C400.736,57.088 400.712,56.884 400.572,56.772Z" style="fill:rgb(24,3,40);fill-rule:nonzero;"/>
        <path d="M398.451,50.846C398.004,50.998 397.525,51.086 397.057,51.027C396.853,51.001 396.647,51.056 396.501,51.288C396.225,51.726 396.982,52.32 397.505,52.661C397.769,52.833 398.115,52.791 398.331,52.561C398.771,52.094 399.396,51.31 399.019,50.964C398.833,50.794 398.634,50.784 398.451,50.846Z" style="fill:rgb(209,70,162);fill-rule:nonzero;"/>
        <path d="M397.504,52.661C397.768,52.833 398.114,52.791 398.33,52.561C398.682,52.187 399.144,51.613 399.124,51.22C398.988,51.552 398.622,52.145 397.719,52.204C397.065,52.247 396.716,52.005 396.528,51.762C396.71,52.095 397.156,52.434 397.504,52.661Z" style="fill:rgb(166,39,116);fill-opacity:0.42;fill-rule:nonzero;"/>
    </g>
    <g transform="matrix(1,0,0,1,-359.05,-11.688)">
        <path d="M412.16,24.553C410.7,23.235 411.285,20.179 412.16,20.345C413.035,20.512 414.552,26.713 412.16,24.553Z" style="fill:rgb(255,176,186);fill-rule:nonzero;"/>
    </g>
    <g transform="matrix(1,0,0,1,-359.05,-11.688)">
        <path d="M376.15,30.119C377.305,28.527 376.1,25.659 375.278,26.002C374.457,26.346 374.257,32.727 376.15,30.119Z" style="fill:rgb(255,176,186);fill-rule:nonzero;"/>
    </g>
    <g transform="matrix(1,0,0,1,-359.05,-11.688)">
        <path d="M424.668,52.76C422.882,54.916 414.317,64.433 400.883,66.272C386.714,68.211 373.705,61.14 369.963,55.96C370.886,57.448 372.07,59.538 372.396,62.922C372.95,68.68 367.856,89.83 362.873,101.125C357.89,112.42 360.88,119.95 360.88,119.95C360.88,119.95 359.131,118.288 359.053,120.869C358.928,124.994 362.412,128.081 365.599,132.183C366.633,133.514 367.962,134.547 369.452,135.239C370.671,135.888 372.296,136.381 374.182,136.749C374.134,136.83 374.082,136.913 374.041,136.989C373.785,137.472 374.05,138.063 374.578,138.204C376.575,138.74 381.713,139.746 388.995,138.491C389.489,138.406 389.788,137.937 389.694,137.479C392.358,137.343 394.969,137.101 397.342,136.78C400.085,136.409 402.846,136.228 405.614,136.228L412.565,136.228C413.867,136.228 415.572,136.407 417.594,136.614C417.456,136.838 417.333,137.053 417.23,137.249C416.955,137.767 417.272,138.392 417.849,138.491C425.131,139.746 430.269,138.741 432.266,138.204C432.785,138.065 433.047,137.492 432.812,137.013C433.067,136.991 433.319,136.973 433.577,136.947C442.891,135.991 441.964,136.133 443.631,135.913C445.416,135.71 447.182,135.409 448.924,134.99C473.953,128.961 471.115,107.631 471.115,107.631C470.284,119.175 463.474,118.511 463.474,118.511C466.132,112.116 464.388,103.645 464.388,103.645C464.646,119.072 449.937,121.999 449.937,121.999C449.937,121.999 433.289,88.777 438.764,85.71C434.881,87.907 432.165,90.025 432.165,90.025C432.165,90.025 437.397,97.499 439.39,110.455C441.383,123.411 425.272,129.722 423.694,119.009C422.116,108.296 430.006,100.904 430.006,100.904C426.399,99.14 427.202,88.404 427.262,87.66C427.165,88.836 424.783,116.161 413.847,111.285C402.67,106.302 404.427,82.218 404.427,82.218C398.946,93.264 391.388,81.554 391.388,81.554C399.444,102.067 388.315,119.009 378.349,110.787C368.383,102.565 368.466,87.948 370.21,80.391C371.954,72.833 377.519,61.448 385.741,67.428C393.963,73.407 399.352,74.156 406.494,68.01C413.636,61.864 423.776,59.961 424.949,67.932C425.044,68.578 425.148,69.112 425.258,69.565C423.635,61.381 423.57,54.695 424.668,52.76Z" style="fill:rgb(166,39,116);fill-opacity:0.33;fill-rule:nonzero;"/>
    </g>
    <g transform="matrix(1,0,0,1,-359.05,-11.688)">
        <path d="M398.64,69.345C406.09,69.392 416.771,60.135 419.844,57.544C415.715,61.011 409.054,65.975 400.695,67.119C389.668,68.628 379.532,63.833 373.732,59.566C379.004,63.853 389.826,69.289 398.64,69.345Z" style="fill:rgb(166,39,116);fill-opacity:0.65;fill-rule:nonzero;"/>
    </g>
    <g transform="matrix(1,0,0,1,-359.05,-11.688)">
        <path d="M447.251,130.58C446.919,126.704 442.379,128.476 442.379,128.476C448.979,114.951 432.936,91.156 432.199,90.076C432.638,90.723 437.487,98.09 439.389,110.454C439.525,111.339 439.57,112.19 439.547,113.01C440.032,116.399 440.171,119.803 439.711,122.939C437.751,136.308 433.147,136.981 432.829,137.011C433.078,136.989 433.324,136.972 433.575,136.946C434.996,136.8 436.175,136.68 437.165,136.58C437.166,136.581 447.584,134.456 447.251,130.58Z" style="fill:rgb(166,39,116);fill-opacity:0.33;fill-rule:nonzero;"/>
    </g>
    <g transform="matrix(1,0,0,1,-359.05,-11.688)">
        <path d="M419.773,137.141C420.312,136.032 421.391,135.234 422.982,134.768C423.154,134.718 423.253,134.537 423.203,134.365C423.153,134.193 422.973,134.096 422.799,134.144C421.022,134.664 419.807,135.579 419.185,136.863C418.897,137.459 418.771,138.066 418.735,138.63C418.954,138.663 419.173,138.697 419.388,138.726C419.414,138.216 419.516,137.67 419.773,137.141Z" style="fill:rgb(166,39,116);fill-opacity:0.65;fill-rule:nonzero;"/>
    </g>
    <g transform="matrix(1,0,0,1,-359.05,-11.688)">
        <path d="M428.445,135.775C428.623,135.794 428.785,135.667 428.805,135.489C428.825,135.311 428.698,135.15 428.52,135.129C428.481,135.122 424.631,134.736 423.795,139.081C424.02,139.086 424.238,139.089 424.455,139.09C425.218,135.468 428.309,135.76 428.445,135.775Z" style="fill:rgb(166,39,116);fill-opacity:0.65;fill-rule:nonzero;"/>
    </g>
    <g transform="matrix(1,0,0,1,-359.05,-11.688)">
        <path d="M382.475,135.958C381.248,134.64 379.075,135.004 378.984,135.021C378.807,135.052 378.689,135.221 378.72,135.397C378.751,135.574 378.92,135.69 379.096,135.661C379.116,135.658 381.017,135.343 382.001,136.402C382.54,136.982 382.716,137.887 382.539,139.088C382.754,139.086 382.974,139.081 383.196,139.074C383.374,137.72 383.138,136.67 382.475,135.958Z" style="fill:rgb(166,39,116);fill-opacity:0.65;fill-rule:nonzero;"/>
    </g>
    <g transform="matrix(1,0,0,1,-359.05,-11.688)">
        <path d="M384.029,134.136C383.853,134.101 383.682,134.219 383.649,134.395C383.615,134.572 383.731,134.742 383.908,134.776C385.39,135.058 386.448,135.686 387.053,136.641C387.491,137.333 387.619,138.09 387.636,138.704C387.85,138.674 388.072,138.636 388.289,138.602C388.26,137.915 388.099,137.079 387.606,136.299C386.902,135.181 385.698,134.454 384.029,134.136Z" style="fill:rgb(166,39,116);fill-opacity:0.65;fill-rule:nonzero;"/>
    </g>
    <g transform="matrix(1,0,0,1,-359.05,-11.688)">
        <path d="M418.073,133.68C418.073,133.68 416.91,129.417 419.623,124.766C422.336,120.115 425.16,102.453 425.16,102.453C425.16,102.453 421.893,118.066 417.519,125.817C417.519,125.817 418.222,129.194 415.13,129.582C414.569,129.652 413.948,129.654 413.328,129.592C412.948,129.132 412.78,128.67 412.85,128.217C413.009,127.189 414.25,126.463 414.263,126.456C414.418,126.366 414.472,126.168 414.383,126.012C414.294,125.856 414.095,125.804 413.94,125.892C413.878,125.927 412.417,126.776 412.208,128.114C412.137,128.571 412.234,129.022 412.465,129.463C411.809,129.325 411.194,129.097 410.683,128.778C410.32,128.221 410.182,127.694 410.295,127.212C410.498,126.349 411.405,125.864 411.414,125.859C411.573,125.776 411.634,125.579 411.552,125.42C411.47,125.261 411.274,125.199 411.114,125.282C411.066,125.307 409.938,125.903 409.663,127.058C409.615,127.26 409.604,127.466 409.614,127.673C409.16,126.758 409.31,125.496 410.544,123.824C410.544,123.824 398.363,103.145 404.426,82.216C398.945,93.262 391.387,81.552 391.387,81.552C391.387,81.552 404.841,116.267 401.768,124.572C401.768,124.572 404.093,125.029 404.01,127.479C403.998,127.821 403.869,128.173 403.653,128.515C403.67,128.114 403.596,127.739 403.425,127.394C402.846,126.233 401.407,125.872 401.346,125.857C401.173,125.82 400.997,125.922 400.954,126.096C400.911,126.271 401.018,126.447 401.193,126.489C401.205,126.492 402.404,126.797 402.845,127.687C403.087,128.176 403.059,128.771 402.763,129.454C402.318,129.843 401.793,130.15 401.219,130.374C401.41,129.774 401.393,129.233 401.16,128.76C400.601,127.622 399.02,127.361 398.953,127.35C398.775,127.325 398.61,127.443 398.582,127.621C398.554,127.798 398.674,127.965 398.852,127.993C398.865,127.995 400.169,128.213 400.578,129.049C400.782,129.467 400.717,129.999 400.409,130.624C398.652,131.03 396.671,130.601 395.498,128.433C395.498,128.433 376.77,121 372.618,107.768C372.618,107.768 374.556,116.018 382.639,122.163C390.722,128.309 388.917,134.842 388.917,134.842C388.917,134.842 386.958,127.755 375.608,135.451C375.608,135.451 386.506,129.095 389.694,137.477C392.358,137.341 394.969,137.099 397.342,136.778C400.085,136.407 402.846,136.226 405.614,136.226L412.565,136.226C413.867,136.226 415.572,136.405 417.594,136.612C419.68,131.63 425.604,132.239 430.255,135.395C430.254,135.397 423.333,128.753 418.073,133.68Z" style="fill:rgb(166,39,116);fill-opacity:0.65;fill-rule:nonzero;"/>
    </g>
    <g transform="matrix(1,0,0,1,-359.05,-11.688)">
        <path d="M396.572,58.881C396.572,58.881 399.772,60.763 401.433,60.597C403.094,60.431 396.416,63.587 396.572,58.881Z" style="fill:rgb(166,39,116);fill-opacity:0.33;fill-rule:nonzero;"/>
    </g>
    <g transform="matrix(1,0,0,1,-359.05,-11.688)">
        <path d="M361.12,57.139C364.815,54.79 368.793,52.91 372.948,51.534C373.346,51.402 373.091,50.803 372.696,50.934C368.485,52.329 364.465,54.245 360.722,56.624C360.369,56.848 360.77,57.362 361.12,57.139Z" style="fill:rgb(55,22,56);fill-rule:nonzero;"/>
        <path d="M367.971,62.906C369.371,59.37 371.854,56.347 375.041,54.274C375.392,54.045 374.992,53.532 374.643,53.759C371.364,55.892 368.805,59.032 367.366,62.667C367.211,63.057 367.816,63.297 367.971,62.906Z" style="fill:rgb(55,22,56);fill-rule:nonzero;"/>
        <path d="M372.746,64.696C373.797,61.822 375.287,59.139 377.172,56.728C377.43,56.398 376.91,56.007 376.652,56.337C374.734,58.79 373.21,61.533 372.141,64.457C371.997,64.849 372.602,65.09 372.746,64.696Z" style="fill:rgb(55,22,56);fill-rule:nonzero;"/>
        <path d="M423.059,47.417C425.632,47.361 428.208,47.624 430.712,48.222C431.954,48.519 433.176,48.894 434.371,49.345C434.946,49.562 435.514,49.797 436.075,50.049C436.717,50.338 437.381,50.623 437.784,51.228C438.016,51.576 438.506,51.147 438.276,50.803C437.902,50.241 437.327,49.923 436.731,49.639C436.112,49.345 435.479,49.076 434.84,48.828C433.606,48.349 432.34,47.951 431.054,47.637C428.452,47.002 425.775,46.709 423.097,46.767C422.683,46.776 422.639,47.426 423.059,47.417Z" style="fill:rgb(55,22,56);fill-rule:nonzero;"/>
        <path d="M420.85,51.139C424.998,52.655 428.614,55.415 431.187,59.003C431.431,59.344 431.922,58.915 431.679,58.578C429.041,54.898 425.306,52.076 421.055,50.522C420.662,50.378 420.456,50.995 420.85,51.139Z" style="fill:rgb(55,22,56);fill-rule:nonzero;"/>
        <path d="M419.176,54.615C421.569,56.596 424.22,58.87 424.538,62.175C424.578,62.592 425.216,62.462 425.176,62.048C424.841,58.569 422.057,56.16 419.537,54.074C419.216,53.807 418.857,54.35 419.176,54.615Z" style="fill:rgb(55,22,56);fill-rule:nonzero;"/>
    </g>
    <g transform="matrix(1,0,0,1,-359.05,-11.688)">
        <path d="M450.019,88.313C452.26,88.344 454.376,89.631 455.409,91.593C456.467,93.601 456.233,96.225 454.826,98.122C454.806,98.15 454.785,98.19 454.814,98.25C454.849,98.326 454.938,98.389 455.017,98.395C455.782,98.447 456.415,99.09 456.426,99.828C456.438,100.552 455.887,101.178 455.115,101.316C455.002,101.336 454.998,101.48 454.998,101.496C454.998,101.512 455.001,101.658 455.116,101.679C456.68,101.967 457.233,103.713 457.423,104.729C457.637,105.866 457.557,107.108 457.193,108.319C456.446,110.804 454.638,112.779 452.357,113.602C452.283,113.628 452.239,113.679 452.225,113.754C452.21,113.834 452.238,113.924 452.29,113.968C452.313,113.988 452.354,114.009 452.431,113.981C456.519,112.508 458.918,107.719 457.565,103.733C457.24,102.777 456.707,102.031 456.063,101.632L455.826,101.485L456.048,101.316C456.564,100.922 456.854,100.309 456.805,99.718C456.746,99.006 456.265,98.4 455.549,98.136L455.327,98.055L455.452,97.854C456.666,95.901 456.777,93.361 455.734,91.383C454.645,89.316 452.399,87.959 450.014,87.927C449.938,87.935 449.897,87.95 449.867,88C449.829,88.065 449.828,88.161 449.866,88.228C449.896,88.285 449.946,88.313 450.019,88.313Z" style="fill:rgb(83,32,86);fill-rule:nonzero;"/>
        <path d="M456.822,120.857C456.768,120.859 456.644,120.879 456.648,121.031C456.674,121.953 456.271,122.836 455.568,123.393C454.73,124.06 453.662,124.077 452.912,123.433C452.805,123.342 452.713,123.38 452.677,123.398C452.601,123.442 452.566,123.527 452.584,123.627C452.682,124.165 452.197,124.651 451.701,124.749C451.212,124.848 450.683,124.68 450.085,124.239C450.048,124.212 450.019,124.204 449.996,124.204C449.898,124.239 449.848,124.317 449.839,124.399C449.833,124.455 449.843,124.534 449.925,124.595C450.272,124.852 451.177,125.409 452.064,125.036C452.466,124.868 452.771,124.544 452.9,124.149L452.969,123.94L453.167,124.035C453.973,124.425 454.9,124.34 455.645,123.813C456.533,123.185 457.065,122.123 457.034,121.042C457.028,120.856 456.838,120.854 456.822,120.857Z" style="fill:rgb(83,32,86);fill-rule:nonzero;"/>
        <path d="M401.645,82.114C400.756,82.03 399.997,81.379 399.758,80.493C399.733,80.402 399.657,80.372 399.625,80.363C399.554,80.346 399.484,80.362 399.434,80.41C398.77,81.058 397.696,81.15 396.989,80.621C396.309,80.112 396.069,79.098 396.444,78.311C396.479,78.237 396.472,78.135 396.428,78.07C396.397,78.024 396.353,77.999 396.296,78.007C395.063,78.075 393.526,78.165 392.599,77.018C391.809,76.041 391.738,74.687 391.764,73.618C391.768,73.465 391.642,73.445 391.587,73.444C391.524,73.442 391.477,73.459 391.439,73.49C391.4,73.522 391.38,73.567 391.378,73.628C391.337,75.288 391.655,76.494 392.35,77.318C393.218,78.347 394.56,78.452 395.754,78.416L395.997,78.409L395.949,78.647C395.771,79.526 396.071,80.39 396.733,80.904C397.445,81.457 398.476,81.493 399.298,80.991L399.478,80.881L399.571,81.07C399.971,81.88 400.76,82.415 401.68,82.501C401.777,82.513 401.828,82.465 401.837,82.366C401.847,82.273 401.802,82.129 401.645,82.114Z" style="fill:rgb(83,32,86);fill-rule:nonzero;"/>
        <path d="M397.334,64.136C397.716,64.232 398.108,64.143 398.441,64.044L398.569,64.006L398.649,64.113C399.014,64.6 399.569,64.891 400.132,64.891C400.813,64.889 401.461,64.493 401.786,63.881C401.821,63.815 401.82,63.753 401.784,63.695C401.742,63.628 401.664,63.594 401.587,63.583C401.534,63.585 401.493,63.614 401.462,63.673C401.192,64.181 400.696,64.486 400.135,64.486C399.572,64.486 399.077,64.183 398.807,63.676C398.774,63.613 398.67,63.57 398.602,63.591L398.518,63.62C398.231,63.716 397.905,63.824 397.572,63.79C397.332,63.764 397.037,63.648 396.932,63.399C396.906,63.34 396.832,63.201 396.687,63.241C396.645,63.252 396.586,63.297 396.555,63.361C396.545,63.381 396.53,63.421 396.544,63.454C396.694,63.811 396.968,64.047 397.334,64.136Z" style="fill:rgb(83,32,86);fill-rule:nonzero;"/>
        <path d="M382.532,113.633C381.063,113.633 379.743,112.616 379.13,111.033C378.868,110.356 378.718,109.583 378.672,108.672L378.66,108.457C378.619,107.79 378.563,106.877 379.089,106.351C379.141,106.298 379.15,106.192 379.11,106.107C379.079,106.044 379.03,106.019 378.975,106.021C378.01,106.128 377.222,105.849 376.804,105.265C376.574,104.942 376.488,104.516 376.575,104.123C376.652,103.774 376.857,103.49 377.151,103.324C377.258,103.263 377.254,103.179 377.232,103.119C377.2,103.033 377.113,102.954 376.987,102.977C376.548,103.063 376.143,102.93 375.878,102.61C375.595,102.266 375.531,101.777 375.711,101.333C375.725,101.298 375.762,101.207 375.635,101.156C375.607,101.145 375.571,101.136 375.533,101.136C375.454,101.136 375.367,101.17 375.325,101.272C375.116,101.788 375.217,102.207 375.339,102.469C375.519,102.855 375.863,103.155 376.283,103.291L376.507,103.364L376.39,103.569C376.104,104.074 376.085,104.715 376.342,105.24C376.665,105.901 377.373,106.327 378.284,106.409L378.537,106.431L378.447,106.669C378.262,107.154 378.259,107.707 378.274,108.328C378.301,109.487 378.475,110.442 378.805,111.248C379.501,112.948 380.943,114.025 382.525,114.019C382.699,114.017 382.707,113.854 382.706,113.82C382.707,113.776 382.693,113.633 382.532,113.633Z" style="fill:rgb(83,32,86);fill-rule:nonzero;"/>
        <path d="M420.427,104.105C420.387,104.028 420.338,104.017 420.305,104.015C420.228,104.015 420.149,104.06 420.108,104.126C420.071,104.185 420.069,104.249 420.104,104.315C420.366,104.819 420.406,105.405 420.216,105.967C420.02,106.546 419.6,107.023 419.063,107.274C419.024,107.292 419,107.327 418.991,107.377C418.978,107.446 418.999,107.526 419.043,107.571C420.199,108.783 420.269,110.618 419.252,113.027C419.211,113.124 419.245,113.201 419.281,113.249C419.331,113.315 419.412,113.357 419.474,113.35C419.489,113.349 419.53,113.343 419.562,113.267C420.578,110.862 420.592,108.971 419.603,107.644L419.485,107.486L419.645,107.372C420.66,106.648 421.004,105.214 420.427,104.105Z" style="fill:rgb(83,32,86);fill-rule:nonzero;"/>
        <path d="M371.3,124.984C371.298,124.913 371.272,124.86 371.221,124.828C371.159,124.789 371.071,124.787 370.991,124.822C370.63,124.983 370.257,124.929 369.996,124.678C369.707,124.402 369.615,123.95 369.769,123.553C369.803,123.465 369.774,123.428 369.737,123.401C369.652,123.339 369.503,123.337 369.425,123.398C368.285,124.294 366.722,123.778 365.87,122.758C364.861,121.551 364.885,119.928 365.083,118.78C365.11,118.622 364.981,118.541 364.888,118.525C364.744,118.496 364.726,118.605 364.72,118.64C364.485,120.008 364.481,121.917 365.8,123.252C366.69,124.153 367.962,124.456 369.041,124.025L369.267,123.935L369.303,124.176C369.403,124.842 370.042,125.319 370.751,125.254L370.934,125.238L370.958,125.42C371.147,126.815 371.999,128.002 373.236,128.597C373.377,128.665 373.486,128.566 373.525,128.483C373.569,128.391 373.547,128.322 373.458,128.279C372.164,127.658 371.337,126.395 371.3,124.984Z" style="fill:rgb(83,32,86);fill-rule:nonzero;"/>
        <path d="M390.059,76.757C390.766,76.166 391.696,75.891 392.61,75.965C392.761,75.977 392.891,75.827 392.891,75.685C392.891,75.523 392.762,75.417 392.61,75.404C391.543,75.317 390.48,75.676 389.662,76.36C389.546,76.457 389.562,76.656 389.662,76.757C389.778,76.872 389.943,76.855 390.059,76.757Z" style="fill:rgb(83,32,86);fill-rule:nonzero;"/>
        <path d="M392.021,77.732C392.043,77.681 392.068,77.631 392.097,77.583C392.11,77.561 392.124,77.54 392.138,77.519C392.192,77.443 392.131,77.523 392.153,77.496C392.187,77.455 392.222,77.415 392.259,77.377C392.279,77.357 392.299,77.338 392.32,77.32C392.339,77.303 392.416,77.252 392.34,77.301C392.431,77.242 392.516,77.185 392.614,77.139C392.665,77.115 392.55,77.163 392.603,77.144C392.665,77.121 392.691,77.113 392.718,77.105C392.772,77.09 392.826,77.078 392.881,77.07C392.946,77.06 393.017,76.995 393.049,76.941C393.084,76.881 393.099,76.792 393.077,76.725C393.055,76.657 393.013,76.592 392.948,76.557C392.877,76.52 392.811,76.517 392.732,76.529C392.221,76.607 391.744,76.975 391.537,77.448C391.506,77.52 391.487,77.586 391.509,77.664C391.527,77.729 391.577,77.799 391.638,77.832C391.759,77.897 391.959,77.876 392.021,77.732Z" style="fill:rgb(83,32,86);fill-rule:nonzero;"/>
    </g>
    <g transform="matrix(1,0,0,1,-359.05,-11.688)">
        <path d="M381.693,32.52C384.396,31.054 385.163,28.446 382.171,30.196C379.178,31.947 379.815,33.539 381.693,32.52Z" style="fill:rgb(202,161,226);fill-opacity:0.51;fill-rule:nonzero;"/>
    </g>
    <g transform="matrix(1,0,0,1,-359.05,-11.688)">
        <path d="M383.826,31.534C383.681,31.022 385.258,28.995 385.634,29.614C386.01,30.232 384,32.15 383.826,31.534Z" style="fill:rgb(202,161,226);fill-opacity:0.51;fill-rule:nonzero;"/>
    </g>
    <g transform="matrix(1,0,0,1,-359.05,-11.688)">
        <path d="M393.271,55.618C392.679,55.614 390.791,56.7 391.555,58.387C392.319,60.074 394.148,55.625 393.271,55.618Z" style="fill:rgb(202,161,226);fill-opacity:0.51;fill-rule:nonzero;"/>
    </g>
    <g transform="matrix(1,0,0,1,-359.05,-11.688)">
        <path d="M416.388,52.932C415.991,52.148 416.025,50.244 418.244,50.247C420.462,50.25 417.215,54.565 416.388,52.932Z" style="fill:rgb(202,161,226);fill-opacity:0.51;fill-rule:nonzero;"/>
    </g>
    <g transform="matrix(1,0,0,1,-359.05,-11.688)">
        <path d="M418.116,49.836C419.628,49.108 419.947,48.019 418.648,48.372C417.349,48.725 416.825,50.458 418.116,49.836Z" style="fill:rgb(202,161,226);fill-opacity:0.51;fill-rule:nonzero;"/>
    </g>
    <g transform="matrix(1,0,0,1,-359.05,-11.688)">
        <path d="M394.284,15.674C394.284,15.674 390.82,12.929 392.591,11.854C394.362,10.78 394.284,15.268 394.284,15.268C394.284,15.268 395.656,11.615 397.635,12.332C399.613,13.048 396.839,15.326 394.284,15.674Z" style="fill:url(#_Linear14);fill-rule:nonzero;"/>
        <path d="M391.995,15.821C391.679,15.125 391.328,14.439 390.807,13.873C390.232,13.247 389.445,12.793 388.581,12.776C388.34,12.771 388.34,13.145 388.581,13.15C390.214,13.183 391.088,14.732 391.699,16.071C391.538,16.227 391.391,16.407 391.272,16.627C389.98,15.736 388.294,15.473 386.795,15.982C386.568,16.059 386.666,16.42 386.894,16.343C388.305,15.863 389.898,16.108 391.105,16.968C388.883,21.946 397.759,19.965 397.826,17.752C397.863,16.565 393.971,14.501 391.995,15.821Z" style="fill:url(#_Linear15);fill-rule:nonzero;"/>
        <path d="M397.382,16.928C397.346,16.886 397.318,16.868 397.297,16.848C397.07,16.636 396.781,16.428 396.452,16.236C397.466,17.038 397.02,19.125 395.944,19.489C396.407,19.296 396.82,19.066 397.142,18.812C397.577,18.35 397.869,17.518 397.382,16.928Z" style="fill:url(#_Linear16);fill-rule:nonzero;"/>
        <path d="M395.026,15.621C394.469,15.456 393.89,15.369 393.345,15.401C394.691,15.549 395.34,20.064 392.949,20.071C393.556,20.093 394.222,20.009 394.864,19.846C396.305,19.542 397.031,16.261 395.026,15.621Z" style="fill:url(#_Linear17);fill-rule:nonzero;"/>
        <path d="M391.944,18.91C391.532,18.662 391.916,17.94 392.392,18.306C392.868,18.672 392.397,19.182 391.944,18.91Z" style="fill:rgb(255,255,207);fill-rule:nonzero;"/>
        <path d="M397.827,17.751C397.835,17.497 397.66,17.202 397.364,16.908C397.732,18.121 393.732,20.224 391.405,19.657C393.156,20.819 397.779,19.346 397.827,17.751Z" style="fill:rgb(179,74,44);fill-opacity:0.47;fill-rule:nonzero;"/>
        <path d="M391.769,16.287C392.441,15.215 394.663,15.493 393.502,16.909C392.34,18.324 390.252,18.706 391.769,16.287Z" style="fill:url(#_Linear18);fill-rule:nonzero;"/>
    </g>
    <g transform="matrix(1,0,0,1,-359.05,-11.688)">
        <path d="M463.337,87.11C464.038,86.574 464.843,86.21 465.71,86.041C465.859,86.012 465.944,85.834 465.906,85.696C465.863,85.541 465.71,85.471 465.561,85.5C464.654,85.677 463.789,86.064 463.054,86.625C462.934,86.717 462.87,86.867 462.953,87.009C463.023,87.127 463.216,87.202 463.337,87.11Z" style="fill:rgb(55,22,56);fill-rule:nonzero;"/>
        <path d="M462.526,85.947C462.579,85.89 462.633,85.835 462.69,85.782C462.72,85.754 462.751,85.727 462.782,85.7C462.796,85.688 462.81,85.677 462.824,85.665C462.823,85.666 462.881,85.621 462.86,85.636C462.841,85.65 462.883,85.62 462.886,85.617C462.904,85.603 462.923,85.59 462.942,85.577C462.972,85.556 463.002,85.536 463.033,85.516C463.102,85.472 463.173,85.43 463.246,85.392C463.278,85.375 463.311,85.359 463.344,85.343C463.365,85.333 463.385,85.323 463.406,85.314C463.486,85.281 463.508,85.273 463.529,85.265C463.563,85.252 463.598,85.24 463.632,85.229C463.788,85.178 463.949,85.141 464.111,85.118C464.257,85.097 464.35,84.905 464.307,84.773C464.255,84.614 464.118,84.554 463.962,84.577C463.265,84.679 462.605,85.033 462.128,85.55C462.028,85.658 462.013,85.841 462.128,85.947C462.237,86.046 462.419,86.062 462.526,85.947Z" style="fill:rgb(55,22,56);fill-rule:nonzero;"/>
        <path d="M426.367,69.548C426.351,69.644 426.329,69.738 426.301,69.83C426.287,69.874 426.272,69.918 426.256,69.961C426.25,69.976 426.226,70.032 426.246,69.987C426.236,70.01 426.225,70.033 426.215,70.056C426.173,70.143 426.126,70.228 426.073,70.309C426.048,70.348 426.021,70.386 425.994,70.423C425.946,70.49 426.028,70.382 425.976,70.446C425.96,70.466 425.944,70.485 425.927,70.504C425.867,70.574 425.802,70.641 425.733,70.703C425.696,70.737 425.657,70.769 425.618,70.801C425.662,70.765 425.598,70.816 425.595,70.818C425.575,70.833 425.554,70.847 425.533,70.861C425.456,70.913 425.377,70.96 425.294,71.001C425.272,71.012 425.249,71.023 425.226,71.034C425.221,71.036 425.145,71.068 425.2,71.046C425.153,71.065 425.106,71.082 425.057,71.097C424.918,71.142 424.813,71.293 424.861,71.442C424.906,71.581 425.057,71.687 425.206,71.638C426.067,71.357 426.756,70.594 426.907,69.694C426.931,69.55 426.869,69.385 426.711,69.349C426.576,69.321 426.393,69.393 426.367,69.548Z" style="fill:rgb(55,22,56);fill-rule:nonzero;"/>
        <path d="M426.933,71.779C426.889,71.787 426.844,71.794 426.799,71.801C426.782,71.804 426.703,71.818 426.781,71.804C426.761,71.808 426.739,71.809 426.719,71.812C426.633,71.822 426.546,71.83 426.459,71.835C426.282,71.846 426.104,71.846 425.927,71.837C425.78,71.829 425.64,71.971 425.647,72.117C425.654,72.276 425.77,72.389 425.927,72.398C426.314,72.418 426.701,72.388 427.083,72.32C427.228,72.294 427.323,72.11 427.279,71.975C427.228,71.819 427.089,71.751 426.933,71.779Z" style="fill:rgb(55,22,56);fill-rule:nonzero;"/>
        <path d="M466.572,122.624C467.352,122.799 468.145,122.917 468.942,122.978C469.093,122.989 469.223,122.841 469.223,122.697C469.223,122.536 469.094,122.428 468.942,122.416C468.194,122.359 467.453,122.247 466.721,122.082C466.573,122.049 466.417,122.127 466.376,122.278C466.337,122.42 466.423,122.591 466.572,122.624Z" style="fill:rgb(55,22,56);fill-rule:nonzero;"/>
    </g>
    <g transform="matrix(1,0,0,1,-359.05,-11.688)">
        <path d="M388.202,39.51C389.185,39.277 391.297,41.306 391.182,42.787C391.067,44.268 384.964,40.279 388.202,39.51Z" style="fill:white;fill-rule:nonzero;"/>
    </g>
    <g transform="matrix(1,0,0,1,-359.05,-11.688)">
        <path d="M386.584,40.652C386.88,40.299 388.174,42.767 387.648,43.107C387.123,43.447 386.288,41.005 386.584,40.652Z" style="fill:white;fill-rule:nonzero;"/>
    </g>
    <g transform="matrix(1,0,0,1,-359.05,-11.688)">
        <path d="M403.02,37.674C404.003,37.44 406.115,39.47 406,40.951C405.885,42.432 399.782,38.443 403.02,37.674Z" style="fill:white;fill-rule:nonzero;"/>
    </g>
    <g transform="matrix(1,0,0,1,-359.05,-11.688)">
        <path d="M401.402,38.815C401.698,38.462 402.992,40.93 402.466,41.27C401.94,41.611 401.106,39.168 401.402,38.815Z" style="fill:white;fill-rule:nonzero;"/>
    </g>
    <defs>
        <linearGradient id="_Linear1" x1="0" y1="0" x2="1" y2="0" gradientUnits="userSpaceOnUse" gradientTransform="matrix(49.4906,-101.066,101.066,49.4906,379.184,157.809)"><stop offset="0" style="stop-color:rgb(62,30,67);stop-opacity:1"/><stop offset="0.17" style="stop-color:rgb(64,33,71);stop-opacity:1"/><stop offset="0.33" style="stop-color:rgb(72,40,83);stop-opacity:1"/><stop offset="0.49" style="stop-color:rgb(84,53,102);stop-opacity:1"/><stop offset="0.65" style="stop-color:rgb(101,71,130);stop-opacity:1"/><stop offset="0.71" style="stop-color:rgb(109,79,142);stop-opacity:1"/><stop offset="1" style="stop-color:rgb(109,79,142);stop-opacity:1"/></linearGradient>
        <linearGradient id="_Linear3" x1="0" y1="0" x2="1" y2="0" gradientUnits="userSpaceOnUse" gradientTransform="matrix(1.16863e-15,-19.0852,19.0852,1.16863e-15,409.284,52.5696)"><stop offset="0" style="stop-color:rgb(255,205,0);stop-opacity:1"/><stop offset="1" style="stop-color:rgb(255,144,0);stop-opacity:1"/></linearGradient>
        <linearGradient id="_Linear5" x1="0" y1="0" x2="1" y2="0" gradientUnits="userSpaceOnUse" gradientTransform="matrix(9.4803e-16,-15.4825,15.4825,9.4803e-16,406.381,48.5494)"><stop offset="0" style="stop-color:rgb(157,0,0);stop-opacity:1"/><stop offset="0.16" style="stop-color:rgb(130,4,0);stop-opacity:1"/><stop offset="0.39" style="stop-color:rgb(98,8,0);stop-opacity:1"/><stop offset="0.61" style="stop-color:rgb(75,11,0);stop-opacity:1"/><stop offset="0.82" style="stop-color:rgb(61,13,0);stop-opacity:1"/><stop offset="1" style="stop-color:rgb(56,14,0);stop-opacity:1"/></linearGradient>
        <linearGradient id="_Linear6" x1="0" y1="0" x2="1" y2="0" gradientUnits="userSpaceOnUse" gradientTransform="matrix(7.07485e-16,-11.5541,11.5541,7.07485e-16,406.004,54.9134)"><stop offset="0" style="stop-color:black;stop-opacity:0.32"/><stop offset="0.48" style="stop-color:rgb(129,129,0);stop-opacity:0.32"/><stop offset="0.84" style="stop-color:rgb(219,219,0);stop-opacity:0.32"/><stop offset="1" style="stop-color:rgb(255,255,0);stop-opacity:0.32"/></linearGradient>
        <linearGradient id="_Linear9" x1="0" y1="0" x2="1" y2="0" gradientUnits="userSpaceOnUse" gradientTransform="matrix(1.18316e-15,-19.3224,19.3224,1.18316e-15,384.533,56.4428)"><stop offset="0" style="stop-color:rgb(255,205,0);stop-opacity:1"/><stop offset="1" style="stop-color:rgb(255,144,0);stop-opacity:1"/></linearGradient>
        <linearGradient id="_Linear11" x1="0" y1="0" x2="1" y2="0" gradientUnits="userSpaceOnUse" gradientTransform="matrix(9.57227e-16,-15.6327,15.6327,9.57227e-16,386.374,52.1057)"><stop offset="0" style="stop-color:rgb(157,0,0);stop-opacity:1"/><stop offset="0.16" style="stop-color:rgb(130,4,0);stop-opacity:1"/><stop offset="0.39" style="stop-color:rgb(98,8,0);stop-opacity:1"/><stop offset="0.61" style="stop-color:rgb(75,11,0);stop-opacity:1"/><stop offset="0.82" style="stop-color:rgb(61,13,0);stop-opacity:1"/><stop offset="1" style="stop-color:rgb(56,14,0);stop-opacity:1"/></linearGradient>
        <linearGradient id="_Linear12" x1="0" y1="0" x2="1" y2="0" gradientUnits="userSpaceOnUse" gradientTransform="matrix(7.07491e-16,-11.5542,11.5542,7.07491e-16,389.221,56.5885)"><stop offset="0" style="stop-color:black;stop-opacity:0.32"/><stop offset="0.48" style="stop-color:rgb(129,129,0);stop-opacity:0.32"/><stop offset="0.84" style="stop-color:rgb(219,219,0);stop-opacity:0.32"/><stop offset="1" style="stop-color:rgb(255,255,0);stop-opacity:0.32"/></linearGradient>
        <linearGradient id="_Linear14" x1="0" y1="0" x2="1" y2="0" gradientUnits="userSpaceOnUse" gradientTransform="matrix(2.44054e-16,-3.9857,3.9857,2.44054e-16,395.197,15.6741)"><stop offset="0" style="stop-color:rgb(180,193,219);stop-opacity:1"/><stop offset="0.13" style="stop-color:rgb(180,193,219);stop-opacity:1"/><stop offset="1" style="stop-color:rgb(225,233,252);stop-opacity:1"/></linearGradient>
        <linearGradient id="_Linear15" x1="0" y1="0" x2="1" y2="0" gradientUnits="userSpaceOnUse" gradientTransform="matrix(4.33115e-16,-7.0733,7.0733,4.33115e-16,392.247,19.849)"><stop offset="0" style="stop-color:rgb(174,84,0);stop-opacity:1"/><stop offset="0.01" style="stop-color:rgb(172,83,0);stop-opacity:1"/><stop offset="0.23" style="stop-color:rgb(130,58,0);stop-opacity:1"/><stop offset="0.44" style="stop-color:rgb(98,39,0);stop-opacity:1"/><stop offset="0.64" style="stop-color:rgb(75,25,0);stop-opacity:1"/><stop offset="0.84" style="stop-color:rgb(61,17,0);stop-opacity:1"/><stop offset="1" style="stop-color:rgb(56,14,0);stop-opacity:1"/></linearGradient>
        <linearGradient id="_Linear16" x1="0" y1="0" x2="1" y2="0" gradientUnits="userSpaceOnUse" gradientTransform="matrix(2.57059e-16,-4.1981,4.1981,2.57059e-16,396.789,19.8679)"><stop offset="0" style="stop-color:rgb(255,205,0);stop-opacity:1"/><stop offset="1" style="stop-color:rgb(255,144,0);stop-opacity:1"/></linearGradient>
        <linearGradient id="_Linear17" x1="0" y1="0" x2="1" y2="0" gradientUnits="userSpaceOnUse" gradientTransform="matrix(2.57059e-16,-4.1981,4.1981,2.57059e-16,394.604,19.8679)"><stop offset="0" style="stop-color:rgb(255,205,0);stop-opacity:1"/><stop offset="1" style="stop-color:rgb(255,144,0);stop-opacity:1"/></linearGradient>
        <linearGradient id="_Linear18" x1="0" y1="0" x2="1" y2="0" gradientUnits="userSpaceOnUse" gradientTransform="matrix(1.47105e-16,-2.4024,2.4024,1.47105e-16,392.534,18.037)"><stop offset="0" style="stop-color:black;stop-opacity:0.32"/><stop offset="0.12" style="stop-color:black;stop-opacity:0.32"/><stop offset="0.54" style="stop-color:rgb(129,129,0);stop-opacity:0.32"/><stop offset="0.86" style="stop-color:rgb(219,219,0);stop-opacity:0.32"/><stop offset="1" style="stop-color:rgb(255,255,0);stop-opacity:0.32"/></linearGradient>
    </defs>
</svg>
