<?xml version="1.0" encoding="UTF-8" standalone="no"?>
<!DOCTYPE svg PUBLIC "-//W3C//DTD SVG 1.1//EN" "http://www.w3.org/Graphics/SVG/1.1/DTD/svg11.dtd">
<svg width="100%" height="100%" viewBox="0 0 166 141" version="1.1" xmlns="http://www.w3.org/2000/svg" xmlns:xlink="http://www.w3.org/1999/xlink" xml:space="preserve" xmlns:serif="http://www.serif.com/" style="fill-rule:evenodd;clip-rule:evenodd;stroke-linejoin:round;stroke-miterlimit:2;">
    <g transform="matrix(1,0,0,1,-379.97,-137.209)">
        <path d="M389.385,240.341C389.385,240.341 403.514,230.698 416.518,231.034C429.522,231.37 504.046,226.82 512.649,229.353C521.252,231.886 529.778,238.753 531.104,240.34C532.43,241.927 532.999,240.507 534.23,237.949C535.462,235.391 540.482,234.238 540.861,239.599C540.861,239.599 545.124,237.994 545.029,242.329C544.934,246.664 540.671,249.317 537.64,247.612C534.609,245.907 533.472,244.675 532.619,248.559C531.766,252.443 529.303,262.2 524.093,265.99C518.883,269.779 508.461,274.137 497.899,274.232C487.337,274.327 481.026,273.19 478.356,272.527C475.685,271.864 473.886,271.496 466.402,274.238C458.918,276.98 438.45,279.348 433.764,275.274C433.764,275.274 413.258,273.095 401.985,265.517C390.712,257.939 389.007,245.055 388.628,243.824C388.249,242.593 385.597,245.719 382.376,244.961C379.155,244.203 379.629,241.172 381.145,240.793C381.145,240.793 379.25,238.698 381.998,237.045C384.745,235.393 386.261,236.302 387.303,238.595C388.343,240.887 388.497,240.917 389.385,240.341Z" style="fill:url(#_Linear1);fill-rule:nonzero;"/>
    </g>
    <g transform="matrix(1,0,0,1,-379.97,-137.209)">
        <path d="M517.272,249.571C510.262,256.202 506.915,261.949 494.6,261.065C482.285,260.181 478.053,257.465 478.053,257.465L482.284,260.56C482.284,260.56 472.811,255.634 465.043,256.992C457.275,258.35 444.076,263.592 436.939,263.15C429.803,262.708 424.308,254.813 415.972,253.55C407.636,252.287 397.847,256.076 398.541,252.097C398.541,252.097 392.983,251.796 392.162,247.905C391.341,244.014 389.111,243.1 388.008,243.574C388.321,243.492 388.537,243.537 388.625,243.824C389.004,245.055 390.709,257.939 401.982,265.518C413.255,273.097 433.761,275.275 433.761,275.275C438.447,279.348 458.915,276.98 466.399,274.239C473.883,271.497 475.683,271.865 478.353,272.528C481.024,273.191 487.334,274.328 497.896,274.233C508.458,274.138 518.88,269.781 524.09,265.991C529.3,262.202 531.763,252.445 532.616,248.56C533.077,246.462 533.623,245.864 534.503,246.019C528.956,244.202 524.283,242.939 517.272,249.571Z" style="fill:rgb(166,0,81);fill-opacity:0.5;fill-rule:nonzero;"/>
    </g>
    <g transform="matrix(1,0,0,1,-379.97,-137.209)">
        <path d="M403.531,240.341C403.531,240.341 401.51,245.543 404.226,247.904C404.226,247.904 401.889,249.254 400.816,250.644C400.816,250.644 403.658,250.391 408.142,248.749C412.626,247.107 422.857,245.907 422.857,245.907C422.857,245.907 430.688,254.938 435.046,256.991C439.404,259.043 443.13,258.854 451.466,255.507C451.466,255.507 442.931,257.463 441.614,256.391C440.297,255.319 458.729,250.581 461.192,251.276C463.655,251.971 454.561,254.307 454.561,254.307C454.561,254.307 461.45,253.253 463.437,253.022C465.424,252.791 466.876,252.223 471.423,254.18C475.97,256.138 485.506,257.022 492.959,253.738C500.411,250.454 503.758,247.904 503.758,247.904L503.316,252.448C503.316,252.448 505.021,248.244 506.853,244.392C508.684,240.54 506.664,236.561 506.664,236.561L516.706,238.329C518.474,238.013 520.369,238.329 520.369,238.329L517.78,237.382C517.78,237.382 521.88,233.395 527.434,237.197C523.866,234.521 518.282,231.012 512.651,229.354C504.048,226.821 429.524,231.371 416.52,231.035C405.113,230.74 392.845,238.121 390.003,239.939C392.991,237.699 400.943,239.449 403.531,240.341Z" style="fill:rgb(166,0,81);fill-opacity:0.5;fill-rule:nonzero;"/>
    </g>
    <g transform="matrix(1,0,0,1,-379.97,-137.209)">
        <path d="M490.558,158.502C490.558,158.502 495.421,156.418 495.168,159.449C495.168,159.449 495.673,156.544 497.947,155.597C497.947,155.597 500.726,136.714 503.82,137.219C506.518,137.66 512.387,152.555 515.314,163.807C518.169,174.784 520.256,174.252 521.66,174.807C522.111,174.985 522.341,175.488 522.217,175.957C521.884,177.219 521.213,179.361 520.303,180.227C520.303,180.227 522.134,180.922 519.798,184.206C519.798,184.206 520.493,186.669 516.704,190.964C512.915,195.258 509.504,195.637 506.662,201.511C503.82,207.384 514.935,214.963 510.451,222.036C510.451,222.036 510.325,225.004 512.851,228.099C515.377,231.194 517.651,235.551 516.704,238.33C516.704,238.33 509.631,239.025 506.852,244.393C506.852,244.393 503.505,244.898 502.558,245.719C501.679,246.481 501.452,249.419 497.436,248.676C496.837,248.565 496.356,248.101 496.233,247.504C496.091,246.814 495.906,245.862 495.801,245.087L494.917,245.434C494.917,245.434 493.212,254.433 481.654,254.812C470.097,255.191 465.076,246.002 454.561,249.412C444.046,252.822 440.73,255.948 435.046,256.991C435.046,256.991 415.816,245.907 408.142,248.749C408.142,248.749 404.353,244.202 404.637,240.318C404.921,236.434 408.047,232.455 408.805,227.908C409.563,223.361 409.184,216.635 417.426,205.078C417.426,205.078 415.342,203.752 417.047,201.194C418.752,198.636 421.499,198.826 427.278,195.605C433.057,192.384 442.246,189.637 459.108,196.363C459.108,196.363 459.803,194.689 462.392,196.647C462.392,196.647 461.571,194.942 464.413,194.5C467.255,194.058 470.16,196.963 471.613,196.71C473.066,196.457 469.718,193.742 470.35,192.668C470.35,192.668 468.455,192.289 470.224,191.089C470.224,191.089 465.172,189.384 466.814,187.552C466.814,187.552 463.696,186.338 463.042,182.754C462.92,182.087 463.525,181.499 464.194,181.616C466.16,181.958 467.436,180.599 468.014,178.648C468.686,176.382 469.209,172.923 470.035,168.796C471.677,160.586 471.93,151.618 474.329,144.292C476.727,136.966 477.422,137.408 490.558,158.502Z" style="fill:url(#_Linear2);fill-rule:nonzero;"/>
    </g>
    <g transform="matrix(1,0,0,1,-379.97,-137.209)">
        <g opacity="0.71">
            <path d="M473.001,175.427C474.204,176.28 477.611,171.132 476.664,169.617C475.717,168.102 474.027,169.127 473.293,170.809C472.559,172.491 472.567,175.119 473.001,175.427Z" style="fill:rgb(255,151,81);fill-rule:nonzero;"/>
            <path d="M472.702,176.943C473.113,177.061 472.89,179.501 472.038,179.477C471.185,179.453 471.875,176.706 472.702,176.943Z" style="fill:rgb(116,73,80);fill-rule:nonzero;"/>
            <path d="M491.19,167.217C495.911,168.878 497.297,174.946 496.733,179.42C495.548,188.816 492.201,193.237 488.159,193.111C484.117,192.985 474.391,188.356 473.634,182.817C472.876,177.278 479.002,167.976 482.855,166.586C486.706,165.196 489.904,166.765 491.19,167.217Z" style="fill:rgb(116,73,80);fill-rule:nonzero;"/>
            <path d="M513.294,185.216C512.33,184.611 514.81,181.869 515.883,182.5C516.957,183.132 516.009,186.921 513.294,185.216Z" style="fill:rgb(116,73,80);fill-rule:nonzero;"/>
            <path d="M511.778,186.163C512.007,185.532 514.178,186.542 513.483,187.552C512.789,188.563 511.273,187.553 511.778,186.163Z" style="fill:rgb(255,151,81);fill-rule:nonzero;"/>
            <path d="M491.845,164.034C493.138,162.981 496.472,165.349 495.003,167.634C493.534,169.919 490.14,165.424 491.845,164.034Z" style="fill:rgb(116,73,80);fill-rule:nonzero;"/>
            <path d="M473.948,197.721C475.234,195.478 480.895,197.089 482.916,202.9C484.937,208.71 471.233,202.457 473.948,197.721Z" style="fill:rgb(116,73,80);fill-rule:nonzero;"/>
            <path d="M449.823,241.076C448.962,238.941 456.691,234.682 459.912,238.234C463.133,241.787 450.913,243.776 449.823,241.076Z" style="fill:rgb(255,151,81);fill-rule:nonzero;"/>
            <path d="M425.714,228.903C427.062,230.431 431.256,227.908 430.782,223.882C430.308,219.856 427.987,217.772 425.24,218.482C422.493,219.192 424.766,223.692 425.24,225.35C425.714,227.009 425.004,228.098 425.714,228.903Z" style="fill:rgb(116,73,80);fill-rule:nonzero;"/>
            <path d="M435.614,209.91C436.601,208.615 432.393,206.358 431.825,208.678C431.256,210.999 434.856,210.904 435.614,209.91Z" style="fill:rgb(255,151,81);fill-rule:nonzero;"/>
            <path d="M486.958,163.491C490.242,163.112 491.126,160.649 490.558,158.502C488.106,154.565 486.089,151.349 484.412,148.767C482.859,146.414 481.527,149.471 481.78,155.723C482.032,161.975 483.674,163.87 486.958,163.491Z" style="fill:rgb(255,151,81);fill-rule:nonzero;"/>
            <path d="M431.824,248.055C430.379,248.483 429.176,249.751 428.265,251.069C427.812,251.725 427.431,252.389 427.131,252.973C431.641,255.033 435.045,256.992 435.045,256.992C436.052,256.807 436.984,256.554 437.896,256.249C438.488,253.801 437.966,251.692 436.905,250.205C435.633,248.419 433.604,247.528 431.824,248.055Z" style="fill:rgb(255,151,81);fill-rule:nonzero;"/>
            <path d="M506.662,201.51C506.857,201.106 507.056,200.734 507.256,200.379L507.255,200.379C507.255,200.379 500.951,201.186 501.059,204.474C501.145,207.1 506.189,208.914 508.22,209.54C506.706,206.675 505.484,203.946 506.662,201.51Z" style="fill:rgb(255,151,81);fill-rule:nonzero;"/>
            <path d="M446.918,201.636C450.328,209.215 455.759,217.676 464.98,217.361C474.183,217.046 480.787,200.503 466.221,194.631C465.624,194.484 465.017,194.406 464.411,194.5C461.569,194.942 462.39,196.647 462.39,196.647C459.801,194.689 459.106,196.363 459.106,196.363C444.257,190.44 435.362,191.865 429.503,194.488C438.428,191.839 443.543,194.135 446.918,201.636Z" style="fill:rgb(255,151,81);fill-rule:nonzero;"/>
            <path d="M482.506,227.577C482.506,227.577 479.664,218.909 466.496,223.93C459.675,227.009 460.196,230.609 461.996,233.64C463.796,236.671 465.17,238.14 464.885,239.608C464.601,241.076 461.333,241.503 452.57,243.918C450.02,244.621 448.578,245.696 447.786,246.863C446.507,248.745 446.951,250.864 447.412,252.087C449.396,251.24 451.707,250.337 454.56,249.412C455.156,249.219 455.729,249.077 456.292,248.961C456.389,248.941 456.488,248.918 456.584,248.9C457.118,248.8 457.639,248.734 458.147,248.696C458.244,248.689 458.34,248.685 458.437,248.68C458.954,248.653 459.462,248.647 459.956,248.676C459.982,248.678 460.008,248.681 460.034,248.683C460.527,248.715 461.008,248.776 461.483,248.856C461.546,248.867 461.61,248.875 461.673,248.886C462.152,248.973 462.622,249.083 463.088,249.209C463.154,249.227 463.221,249.246 463.287,249.265C463.787,249.408 464.28,249.577 464.771,249.755C464.905,249.804 465.038,249.851 465.171,249.902C465.596,250.064 466.02,250.236 466.443,250.416C466.754,250.549 467.066,250.686 467.377,250.826C467.406,250.839 467.435,250.852 467.464,250.865C471.557,252.708 475.754,255.004 481.653,254.811C493.21,254.432 494.915,245.433 494.915,245.433C496.195,241.698 493.021,227.435 482.506,227.577Z" style="fill:rgb(116,73,80);fill-rule:nonzero;"/>
            <path d="M453.589,222.693L453.585,222.69C453.089,221.009 451.729,217.722 448.239,214.281C443.995,210.254 439.362,209.216 434.382,211.283C429.361,213.367 430.261,216.73 431.919,221.561C433.577,226.392 432.345,227.908 428.224,232.976C427.735,233.578 427.389,234.147 427.146,234.688C425.896,237.463 427.542,239.405 428.682,240.341C439.067,239.638 447.153,233.664 450.534,231.082C452.708,229.421 455.47,226.807 454.999,227.213C454.689,225.68 454.179,223.56 453.589,222.693Z" style="fill:rgb(116,73,80);fill-rule:nonzero;"/>
        </g>
    </g>
    <g transform="matrix(1,0,0,1,-379.97,-137.209)">
        <path d="M502.494,196.395C495.501,197.361 471.283,194.991 470.348,192.669C469.871,193.479 471.658,195.223 471.941,196.139C472.45,194.477 480.259,196.079 488.726,201.195C497.82,206.689 501.104,205.805 503.378,202.016C505.556,198.387 505.419,199.288 506.235,204.328C506.12,203.354 506.226,202.412 506.662,201.511C509.504,195.638 512.914,195.259 516.704,190.964C517.218,190.382 517.643,189.836 518.005,189.323C516.144,191.707 509.459,195.433 502.494,196.395Z" style="fill:rgb(166,39,0);fill-opacity:0.18;fill-rule:nonzero;"/>
    </g>
    <g transform="matrix(1,0,0,1,-379.97,-137.209)">
        <path d="M507.278,227.577C507.278,227.577 505.999,232.077 503.205,232.692C500.41,233.308 493.069,229.661 493.069,229.661C486.201,230.087 481.18,220.898 481.18,220.898C479.048,220.33 476.68,215.167 476.68,215.167C476.68,215.167 478.29,218.53 470.191,219.761C462.091,220.992 446.508,213.177 444.187,209.767C441.866,206.357 440.445,206.309 440.445,206.309C441.629,207.114 443.003,209.293 443.003,209.293C440.966,208.109 438.203,207.698 438.203,207.698C452.602,214.013 453.865,223.866 453.865,223.866C453.486,229.55 427.34,240.918 418.246,230.687C409.152,220.456 417.425,205.078 417.425,205.078C409.183,216.635 409.562,223.361 408.804,227.908C408.046,232.455 404.92,236.434 404.636,240.318C404.352,244.202 408.141,248.749 408.141,248.749C415.814,245.907 435.045,256.991 435.045,256.991C440.729,255.949 444.044,252.823 454.56,249.412C460.786,247.393 465.091,249.789 469.962,252.002C460.513,246.059 453.1,244.331 442.814,248.433C432.52,252.538 417.931,252.285 411.363,244.707C404.795,237.128 410.937,228.571 412.973,232.503C415.01,236.434 417.899,240.981 428.414,240.366C438.929,239.75 447.124,233.687 450.534,231.082C453.944,228.477 456.171,225.398 460.436,223.835C464.702,222.272 466.496,223.93 466.496,223.93C479.664,218.909 482.506,227.577 482.506,227.577C493.021,227.435 496.195,241.698 494.916,245.434L495.8,245.087C495.8,245.087 495.532,243.682 496.384,241.077C497.237,238.472 501.594,238.283 502.731,237.856C503.868,237.43 504.957,234.019 505.857,232.788C506.757,231.557 508.794,230.041 508.794,230.041C507.894,230.278 506.757,231.178 506.757,231.178C506.757,229.899 510.688,224.405 511.866,226.693C512.092,227.133 512.296,227.413 512.479,227.582C510.368,224.684 510.452,222.037 510.452,222.037C510.499,227.672 507.278,227.577 507.278,227.577Z" style="fill:rgb(166,39,0);fill-opacity:0.18;fill-rule:nonzero;"/>
    </g>
    <g transform="matrix(1,0,0,1,-379.97,-137.209)">
        <path d="M472.054,194.058C472.054,194.058 472.203,194.098 472.654,194.445C473.105,194.792 478.354,195.583 488.979,198.605C499.605,201.628 499.842,201.194 505.083,197.91C509.41,195.199 510.118,196.061 509.418,197.403C511.473,195.202 513.743,194.092 516.176,191.532C516.017,191.655 508.461,197.476 499.462,198.225C490.369,198.984 472.054,194.058 472.054,194.058Z" style="fill:rgb(166,39,0);fill-opacity:0.24;fill-rule:nonzero;"/>
    </g>
    <g transform="matrix(1,0,0,1,-379.97,-137.209)">
        <path d="M502.778,237.287C501.025,237.903 494.229,235.213 491.595,232.459C491.59,232.454 491.584,232.449 491.579,232.444C494.806,236.902 495.699,243.144 494.915,245.434L495.799,245.087C495.799,245.087 495.531,243.682 496.383,241.077C497.236,238.472 501.593,238.283 502.73,237.856C503.867,237.43 504.956,234.019 505.856,232.788C506.756,231.557 508.793,230.041 508.793,230.041C507.893,230.278 506.756,231.178 506.756,231.178C506.756,230.708 507.289,229.669 508.018,228.657C508.017,228.659 508.015,228.659 508.014,228.661C505.715,231.319 504.531,236.671 502.778,237.287Z" style="fill:rgb(166,39,0);fill-opacity:0.18;fill-rule:nonzero;"/>
    </g>
    <g transform="matrix(1,0,0,1,-379.97,-137.209)">
        <path d="M466.496,223.93C479.664,218.909 482.506,227.577 482.506,227.577C484.09,227.556 485.505,227.866 486.765,228.413C484.676,226.617 482.547,224.343 481.179,220.898C479.047,220.33 476.679,215.167 476.679,215.167C476.679,215.167 478.289,218.53 470.19,219.761C462.09,220.992 446.507,213.177 444.186,209.767C441.865,206.357 440.444,206.309 440.444,206.309C441.628,207.114 443.002,209.293 443.002,209.293C440.965,208.109 438.202,207.698 438.202,207.698C449.606,212.7 452.761,219.902 453.584,222.689L453.588,222.692C454.178,223.558 454.688,225.678 454.998,227.212C456.562,225.864 458.224,224.644 460.435,223.834C464.702,222.272 466.496,223.93 466.496,223.93Z" style="fill:rgb(166,39,0);fill-opacity:0.18;fill-rule:nonzero;"/>
    </g>
    <g transform="matrix(1,0,0,1,-379.97,-137.209)">
        <path d="M413.589,216.683C413.589,216.683 410.226,226.725 412.973,232.503C414.429,235.314 416.338,238.429 421.142,239.758C416.016,237.879 411.867,225.11 413.589,216.683Z" style="fill:rgb(166,39,0);fill-opacity:0.18;fill-rule:nonzero;"/>
    </g>
    <g transform="matrix(1,0,0,1,-379.97,-137.209)">
        <path d="M493.874,184.332C493.874,184.332 493.558,183.069 493.558,180.89C493.558,178.711 493.432,172.143 486.832,170.564C480.232,168.985 477.169,174.448 476.285,177.448C475.401,180.448 474.043,180.416 474.043,180.416C474.043,180.416 476.106,181.39 477.174,183.666C478.242,185.942 488.996,187.326 490.487,185.971C491.979,184.616 493.874,184.332 493.874,184.332Z" style="fill:rgb(56,25,5);fill-rule:nonzero;"/>
    </g>
    <g transform="matrix(1,0,0,1,-379.97,-137.209)">
        <path d="M502.079,184.03C502.079,184.03 502.463,184.648 501.768,179.943C501.073,175.238 501.689,169.883 505.099,168.488C508.509,167.094 510.672,169.712 512.156,172.838C513.64,175.964 514.903,176.022 514.903,176.022C514.903,176.022 513.48,177.092 512.944,180.128C512.408,183.164 506.455,186.146 504.9,184.876C503.347,183.606 502.079,184.03 502.079,184.03Z" style="fill:rgb(56,25,5);fill-rule:nonzero;"/>
    </g>
    <g transform="matrix(1,0,0,1,-379.97,-137.209)">
        <path d="M476.828,183.031C476.828,183.031 478.053,187.49 482.221,188.816C486.389,190.142 489.935,186.89 490.878,185.653C491.822,184.417 476.828,183.031 476.828,183.031Z" style="fill:rgb(166,39,0);fill-opacity:0.28;fill-rule:nonzero;"/>
    </g>
    <g transform="matrix(1,0,0,1,-379.97,-137.209)">
        <path d="M504.901,184.876C508.241,187.679 511.869,188.356 512.865,180.597C513.862,172.838 504.901,184.876 504.901,184.876Z" style="fill:rgb(166,39,0);fill-opacity:0.28;fill-rule:nonzero;"/>
    </g>
    <g transform="matrix(1,0,0,1,-379.97,-137.209)">
        <path d="M476.475,180.606C476.272,177.15 479.569,170.122 485.632,170.943C491.695,171.764 493.227,177.324 493.038,180.828C492.849,184.332 489.8,187.962 485.151,187.962C479.414,187.962 476.727,184.9 476.475,180.606Z" style="fill:url(#_Linear3);fill-rule:nonzero;"/>
    </g>
    <g transform="matrix(1,0,0,1,-379.97,-137.209)">
        <path d="M502.242,179.763C501.638,174.43 502.679,170.086 506,168.878C509.221,167.706 513.047,173.463 513.076,178.202C513.105,182.942 510.731,186.087 507.529,185.967C504.326,185.848 502.481,181.878 502.242,179.763Z" style="fill:url(#_Linear4);fill-rule:nonzero;"/>
    </g>
    <g transform="matrix(1,0,0,1,-379.97,-137.209)">
        <path d="M502.751,190.488C502.637,190.602 502.524,190.716 502.41,190.83C502.325,190.915 502.242,191.018 502.136,191.077C501.934,191.19 501.666,191.055 501.476,190.962C501.013,190.735 500.599,190.404 500.294,189.987C500.284,189.974 500.264,188.876 500.206,188.333C500.185,188.134 500.051,187.962 499.835,187.962C499.651,187.962 499.443,188.133 499.464,188.333C499.572,189.344 499.707,190.53 499.005,191.37C498.832,191.577 498.631,191.758 498.428,191.934C498.273,192.067 498.157,192.165 497.95,192.179C497.441,192.215 497.032,191.913 496.619,191.624C496.455,191.509 496.207,191.594 496.111,191.757C496.003,191.942 496.08,192.149 496.244,192.265C496.748,192.619 497.282,192.962 497.921,192.924C498.241,192.905 498.496,192.83 498.749,192.629C498.991,192.437 499.227,192.228 499.436,192C499.762,191.646 499.965,191.251 500.093,190.835C500.426,191.172 500.795,191.472 501.233,191.665C501.605,191.828 502.007,191.945 502.399,191.773C502.747,191.621 503.011,191.277 503.274,191.014C503.613,190.675 503.089,190.15 502.751,190.488Z" style="fill:rgb(56,25,5);fill-rule:nonzero;"/>
        <g>
            <path d="M499.117,186.596C499.505,186.752 499.952,186.751 500.335,186.584C500.592,186.472 500.886,186.452 501.123,186.734C501.549,187.243 500.471,188.194 499.996,188.574C499.871,188.674 499.696,188.677 499.568,188.581C499.071,188.208 497.92,187.258 498.338,186.754C498.566,186.478 498.858,186.492 499.117,186.596Z" style="fill:rgb(249,212,185);fill-rule:nonzero;"/>
            <path d="M499.117,186.596C499.505,186.752 499.952,186.751 500.335,186.584C500.592,186.472 500.886,186.452 501.123,186.734C501.549,187.243 500.471,188.194 499.996,188.574C499.871,188.674 499.696,188.677 499.568,188.581C499.071,188.208 497.92,187.258 498.338,186.754C498.566,186.478 498.858,186.492 499.117,186.596Z" style="fill:rgb(243,184,136);fill-rule:nonzero;"/>
            <path d="M499.996,188.574C499.871,188.674 499.696,188.677 499.568,188.581C499.148,188.266 498.265,187.54 498.252,187.018C499.479,187.963 500.419,188.211 501.196,187.176C501.054,187.676 500.354,188.287 499.996,188.574Z" style="fill:rgb(243,184,136);fill-rule:nonzero;"/>
        </g>
        <path d="M501.57,193.563C501.57,193.563 499.368,194.892 498.153,195.082C496.937,195.272 500.43,198.005 501.57,193.563Z" style="fill:rgb(166,39,0);fill-opacity:0.18;fill-rule:nonzero;"/>
    </g>
    <g transform="matrix(1,0,0,1,-379.97,-137.209)">
        <g>
            <clipPath id="_clip5">
                <path d="M476.475,180.606C476.272,177.15 479.569,170.122 485.632,170.943C491.695,171.764 493.227,177.324 493.038,180.828C492.849,184.332 489.8,187.962 485.151,187.962C479.414,187.962 476.727,184.9 476.475,180.606Z"/>
            </clipPath>
            <g clip-path="url(#_clip5)">
                <g>
                    <g>
                        <ellipse cx="485.034" cy="178.998" rx="1.623" ry="4.471" style="fill:url(#_Linear6);"/>
                        <path d="M491.414,186.309C491.414,189.833 488.557,192.689 485.034,192.689C481.51,192.689 478.654,189.832 478.654,186.309C478.654,182.785 481.511,179.929 485.034,179.929C488.557,179.929 491.414,182.785 491.414,186.309Z" style="fill:url(#_Linear7);fill-rule:nonzero;"/>
                    </g>
                </g>
                <path d="M476.466,181.016C476.466,181.016 476.307,172.19 484.805,172.011C493.59,171.827 492.979,181.422 492.979,181.422C492.979,181.422 497.978,167.399 493.942,161.123C489.906,154.847 487.197,144.922 481.665,148.857C476.134,152.793 473.937,166.854 473.937,166.854L476.466,181.016Z" style="fill:rgb(131,74,44);fill-opacity:0.47;fill-rule:nonzero;"/>
                <path d="M487.84,173.644C488.912,173.568 490.779,176.061 490.404,177.595C490.028,179.129 484.31,173.895 487.84,173.644Z" style="fill:white;fill-rule:nonzero;"/>
                <path d="M485.946,174.564C486.317,174.245 487.251,177.057 486.641,177.323C486.031,177.589 485.575,174.883 485.946,174.564Z" style="fill:white;fill-rule:nonzero;"/>
            </g>
        </g>
    </g>
    <g transform="matrix(1,0,0,1,-379.97,-137.209)">
        <g>
            <clipPath id="_clip8">
                <path d="M502.242,179.763C501.638,174.43 502.679,170.086 506,168.878C509.221,167.706 513.047,173.463 513.076,178.202C513.105,182.942 510.731,186.087 507.529,185.967C504.326,185.848 502.481,181.878 502.242,179.763Z"/>
            </clipPath>
            <g clip-path="url(#_clip8)">
                <g>
                    <g>
                        <path d="M506.338,177.053C506.338,179.522 505.611,181.524 504.715,181.524C503.819,181.524 503.092,179.522 503.092,177.053C503.092,174.584 503.819,172.582 504.715,172.582C505.611,172.582 506.338,174.584 506.338,177.053Z" style="fill:url(#_Linear9);fill-rule:nonzero;"/>
                        <path d="M512.44,184.683C512.44,188.207 509.583,191.063 506.06,191.063C502.536,191.063 499.68,188.206 499.68,184.683C499.68,181.16 502.537,178.303 506.06,178.303C509.583,178.302 512.44,181.159 512.44,184.683Z" style="fill:url(#_Linear10);fill-rule:nonzero;"/>
                    </g>
                </g>
                <path d="M502.078,180.596C502.078,180.596 501.515,169.602 507.184,169.744C514.394,169.925 514.099,187.175 514.099,187.175C514.099,187.175 519.216,163.946 515.724,157.541C512.232,151.135 509.596,141.193 505.447,144.799C501.298,148.405 500.287,162.185 500.287,162.185L502.078,180.596Z" style="fill:rgb(131,74,44);fill-opacity:0.47;fill-rule:nonzero;"/>
                <path d="M507.285,171.881C508.357,171.805 510.224,174.298 509.849,175.832C509.473,177.365 503.755,172.131 507.285,171.881Z" style="fill:white;fill-rule:nonzero;"/>
                <path d="M505.391,172.8C505.762,172.481 506.696,175.293 506.086,175.559C505.476,175.826 505.02,173.12 505.391,172.8Z" style="fill:white;fill-rule:nonzero;"/>
            </g>
        </g>
    </g>
    <g transform="matrix(1,0,0,1,-379.97,-137.209)">
        <path d="M499.887,170.418C501.688,171.278 504.843,166.657 503.848,165.1C502.854,163.543 500.53,164.739 499.559,166.851C498.589,168.961 498.97,169.98 499.887,170.418Z" style="fill:rgb(243,184,136);fill-rule:nonzero;"/>
    </g>
    <g transform="matrix(1,0,0,1,-379.97,-137.209)">
        <path d="M494.41,170.733C495.802,169.316 491.712,164.737 489.73,165.284C487.748,165.831 487.86,168.115 489.61,169.625C491.36,171.135 493.603,171.554 494.41,170.733Z" style="fill:rgb(243,184,136);fill-rule:nonzero;"/>
    </g>
    <g transform="matrix(1,0,0,1,-379.97,-137.209)">
        <path d="M504.111,160.605L508.653,163.093C509.534,163.576 510.561,162.759 510.29,161.792L507.322,151.226C506.999,150.076 505.346,150.143 505.117,151.316L503.543,159.394C503.449,159.878 503.679,160.368 504.111,160.605Z" style="fill:rgb(243,126,136);fill-opacity:0.42;fill-rule:nonzero;"/>
    </g>
    <g transform="matrix(1,0,0,1,-379.97,-137.209)">
        <path d="M476.64,166.19L481.069,163.084C481.474,162.8 481.648,162.287 481.5,161.816L478.873,153.457C478.514,152.314 476.857,152.437 476.671,153.621L474.869,165.086C474.713,166.073 475.82,166.764 476.64,166.19Z" style="fill:rgb(243,126,136);fill-opacity:0.42;fill-rule:nonzero;"/>
    </g>
    <g transform="matrix(1,0,0,1,-379.97,-137.209)">
        <path d="M531.04,244.392C528.198,243.76 522.956,240.413 515.757,250.202C508.557,259.991 491.377,261.65 484.432,258.665C477.487,255.68 471.675,253.423 454.307,259.297C436.939,265.17 431.571,261.886 425.635,256.992C419.699,252.097 414.141,251.612 407.699,253.023C401.257,254.434 399.173,251.276 399.173,251.276C399.173,251.276 394.752,251.087 392.289,246.603C389.826,242.119 390.139,242.687 388.009,242.119C385.883,241.552 387.372,239.645 388.399,240.543C388.12,240.32 387.821,239.74 387.3,238.595C386.258,236.303 384.742,235.393 381.995,237.045C379.248,238.697 381.142,240.793 381.142,240.793C379.626,241.172 379.153,244.203 382.373,244.961C384.844,245.542 386.976,243.844 388.008,243.574C389.111,243.099 391.341,244.013 392.162,247.905C392.983,251.796 398.541,252.097 398.541,252.097C397.846,256.076 407.635,252.286 415.972,253.55C424.308,254.813 429.803,262.707 436.939,263.15C444.076,263.592 457.275,258.35 465.043,256.992C472.811,255.634 482.284,260.56 482.284,260.56L478.053,257.465C478.053,257.465 482.284,260.181 494.6,261.065C506.915,261.949 510.262,256.202 517.272,249.571C524.282,242.94 528.956,244.203 534.506,246.02C535.255,246.152 536.246,246.829 537.64,247.614C540.671,249.319 544.934,246.667 545.029,242.331C545.124,237.996 540.861,239.601 540.861,239.601C540.482,234.24 535.461,235.394 534.23,237.951C533.154,240.186 532.584,241.552 531.572,240.802L531.572,240.803C533.945,243.255 533.882,245.023 531.04,244.392Z" style="fill:rgb(255,85,114);fill-rule:nonzero;"/>
    </g>
    <g transform="matrix(1,0,0,1,-379.97,-137.209)">
        <path d="M466.401,274.238C473.885,271.496 475.685,271.864 478.355,272.527C480.322,273.015 484.271,273.759 490.431,274.08C476.497,273.067 471.342,265.822 467.127,267.695C462.58,269.716 451.97,278.179 433.763,275.274C438.45,279.348 458.918,276.98 466.401,274.238Z" style="fill:rgb(166,0,81);fill-opacity:0.5;fill-rule:nonzero;"/>
    </g>
    <g transform="matrix(1,0,0,1,-379.97,-137.209)">
        <path d="M476.68,215.167C476.68,215.167 476.783,215.387 476.805,215.733C477.087,217.067 477.73,220.491 477.478,222.929C478.577,223.305 479.454,223.83 480.146,224.397C480.574,223.609 480.949,222.472 481.179,220.898C479.048,220.33 476.68,215.167 476.68,215.167Z" style="fill:rgb(166,39,0);fill-opacity:0.18;fill-rule:nonzero;"/>
    </g>
    <g transform="matrix(1,0,0,1,-379.97,-137.209)">
        <path d="M495.773,244.843C496.411,245.001 497.098,244.958 497.734,244.814C498.594,244.62 499.328,244.16 499.831,243.432C499.945,243.267 499.861,243.02 499.698,242.924C499.514,242.816 499.305,242.892 499.19,243.057C498.797,243.626 498.2,243.947 497.537,244.097C496.98,244.223 496.326,244.288 495.771,244.088C495.753,244.425 495.76,244.676 495.773,244.843Z" style="fill:rgb(166,39,0);fill-opacity:0.51;fill-rule:nonzero;"/>
    </g>
    <g transform="matrix(1,0,0,1,-379.97,-137.209)">
        <path d="M500.63,246.883C500.942,246.524 500.419,245.997 500.105,246.358C499.158,247.449 497.645,247.907 496.255,247.568C496.345,247.918 496.56,248.209 496.847,248.412C498.253,248.506 499.7,247.954 500.63,246.883Z" style="fill:rgb(166,39,0);fill-opacity:0.51;fill-rule:nonzero;"/>
    </g>
    <g transform="matrix(1,0,0,1,-379.97,-137.209)">
        <g>
            <path d="M456.506,181.439C461.161,181.486 465.797,182.115 470.3,183.296C470.732,183.409 470.851,182.727 470.423,182.615C465.861,181.419 461.166,180.797 456.45,180.749C456.004,180.744 456.064,181.434 456.506,181.439Z" style="fill:rgb(212,136,107);fill-rule:nonzero;"/>
        </g>
        <g>
            <path d="M459.271,190.551C462.568,188.21 466.533,186.953 470.576,186.952C471.022,186.952 470.962,186.262 470.52,186.262C466.361,186.263 462.26,187.58 458.87,189.987C458.507,190.245 458.907,190.809 459.271,190.551Z" style="fill:rgb(212,136,107);fill-rule:nonzero;"/>
        </g>
        <g>
            <path d="M462.491,194.913C465.093,192.96 467.977,191.431 471.054,190.374C471.475,190.229 471.238,189.58 470.817,189.724C467.686,190.8 464.738,192.362 462.089,194.349C461.735,194.616 462.134,195.181 462.491,194.913Z" style="fill:rgb(212,136,107);fill-rule:nonzero;"/>
        </g>
        <g>
            <path d="M518.609,179.921C521.195,179.026 523.889,178.454 526.618,178.244C527.971,178.14 529.331,178.121 530.687,178.189C531.34,178.222 531.991,178.275 532.641,178.347C533.385,178.43 534.15,178.503 534.755,178.984C535.103,179.261 535.459,178.667 535.115,178.393C534.553,177.946 533.868,177.811 533.172,177.718C532.449,177.622 531.722,177.556 530.994,177.513C529.589,177.429 528.178,177.439 526.774,177.54C523.933,177.745 521.128,178.319 518.437,179.25C518.019,179.396 518.186,180.067 518.609,179.921Z" style="fill:rgb(212,136,107);fill-rule:nonzero;"/>
        </g>
        <g>
            <path d="M517.585,184.409C522.278,184.593 526.836,186.209 530.608,189.004C530.966,189.269 531.323,188.676 530.968,188.413C527.099,185.547 522.4,183.906 517.591,183.717C517.147,183.699 517.14,184.391 517.585,184.409Z" style="fill:rgb(212,136,107);fill-rule:nonzero;"/>
        </g>
        <g>
            <path d="M517.022,188.472C520.09,189.699 523.513,191.137 524.911,194.379C525.087,194.788 525.691,194.449 525.516,194.043C524.044,190.63 520.442,189.099 517.212,187.807C516.799,187.641 516.612,188.308 517.022,188.472Z" style="fill:rgb(212,136,107);fill-rule:nonzero;"/>
        </g>
    </g>
    <g transform="matrix(1,0,0,1,-379.97,-137.209)">
        <path d="M477.605,232.08C476.065,231.149 473.981,231.101 472.513,232.154C472.394,231.244 471.592,230.48 470.663,230.333C469.536,230.156 468.528,230.819 467.815,231.648C467.498,230.478 466.991,229.381 465.773,228.899C464.478,228.387 462.993,228.676 461.709,229.071C458.576,230.034 455.911,232.031 453.33,233.983C453.048,234.196 453.325,234.68 453.611,234.464C455.943,232.701 458.336,230.885 461.105,229.863C462.331,229.41 463.746,228.991 465.06,229.267C466.623,229.595 467.094,230.943 467.415,232.341C467.472,232.59 467.797,232.593 467.924,232.407C468.462,231.618 469.298,230.874 470.305,230.862C471.23,230.851 472.203,231.717 471.945,232.687C471.874,232.954 472.213,233.157 472.41,232.958C473.727,231.627 475.915,231.648 477.433,232.627C479.158,233.74 479.929,235.883 480.019,237.852C480.035,238.209 480.592,238.211 480.575,237.852C480.473,235.646 479.577,233.272 477.605,232.08Z" style="fill:rgb(166,39,0);fill-opacity:0.51;fill-rule:nonzero;"/>
    </g>
    <g transform="matrix(1,0,0,1,-379.97,-137.209)">
        <path d="M504.044,218.643C505.094,217 504.959,214.854 503.702,213.299C502.333,211.604 500.161,210.77 498.87,208.997C498.661,208.71 498.178,208.988 498.39,209.278C499.547,210.867 501.34,211.726 502.732,213.067C503.471,213.779 504.051,214.647 504.183,215.685C504.331,216.846 503.954,218.031 503.16,218.89C502.951,219.116 503.219,219.497 503.497,219.327C503.945,219.054 504.504,219.209 504.84,219.593C505.189,219.991 505.27,220.574 505.248,221.083C505.213,221.904 504.727,222.991 503.771,222.968C503.563,222.963 503.42,223.209 503.531,223.387C504.552,225.031 503.42,227.071 501.725,227.652C500.042,228.229 497.664,227.776 496.769,226.102C496.6,225.786 496.119,226.067 496.289,226.383C497.343,228.353 500.186,228.895 502.135,228.089C503.902,227.359 504.986,225.26 504.182,223.476C505.298,223.226 505.851,221.868 505.805,220.793C505.776,220.12 505.554,219.405 504.997,218.983C504.716,218.769 504.382,218.656 504.044,218.643Z" style="fill:rgb(166,39,0);fill-opacity:0.51;fill-rule:nonzero;"/>
    </g>
    <g transform="matrix(1,0,0,1,-379.97,-137.209)">
        <path d="M461.038,202.725C460.754,202.833 460.53,203.031 460.353,203.262C460.239,202.844 460.111,202.43 459.96,202.023C459.762,201.488 459.566,200.78 459.096,200.417C458.047,199.607 456.963,200.739 456.436,201.573C456.244,201.877 456.726,202.156 456.917,201.854C457.16,201.469 457.43,201.042 457.853,200.833C458.431,200.547 458.864,200.856 459.105,201.386C459.551,202.366 459.857,203.413 460.071,204.467C460.158,204.817 460.678,204.668 460.608,204.319C460.369,203.36 461.535,203.049 462.236,203.244C462.887,203.425 463.471,203.869 463.934,204.35C464.858,205.31 465.407,206.565 465.825,207.812C465.938,208.15 466.476,208.005 466.362,207.664C465.805,206.004 465.006,204.314 463.534,203.278C462.833,202.784 461.888,202.403 461.038,202.725Z" style="fill:rgb(166,39,0);fill-opacity:0.51;fill-rule:nonzero;"/>
    </g>
    <g transform="matrix(1,0,0,1,-379.97,-137.209)">
        <path d="M444.929,190.751C444.612,190.586 444.33,191.066 444.648,191.232C445.804,191.834 446.648,193.004 446.807,194.306C446.825,194.455 446.922,194.584 447.085,194.584C447.221,194.584 447.382,194.456 447.363,194.306C447.182,192.81 446.273,191.451 444.929,190.751Z" style="fill:rgb(170,85,58);fill-rule:nonzero;"/>
    </g>
    <g transform="matrix(1,0,0,1,-379.97,-137.209)">
        <path d="M446.98,191.709C446.865,191.824 446.885,191.986 446.98,192.103C447.682,192.967 447.972,194.15 447.758,195.241C447.689,195.591 448.226,195.741 448.295,195.389C448.551,194.086 448.211,192.739 447.374,191.709C447.279,191.592 447.078,191.611 446.98,191.709Z" style="fill:rgb(170,85,58);fill-rule:nonzero;"/>
    </g>
    <g transform="matrix(1,0,0,1,-379.97,-137.209)">
        <path d="M493.239,156.166C493.341,157.305 493.1,158.444 492.533,159.438C492.355,159.75 492.836,160.03 493.013,159.719C493.625,158.646 493.904,157.398 493.794,156.166C493.764,155.812 493.207,155.809 493.239,156.166Z" style="fill:rgb(216,142,113);fill-rule:nonzero;"/>
    </g>
    <g transform="matrix(1,0,0,1,-379.97,-137.209)">
        <path d="M509.881,216.689C509.734,216.72 509.648,216.893 509.687,217.031C509.729,217.183 509.882,217.257 510.029,217.225C511.009,217.016 512.1,217.653 512.404,218.612C512.512,218.952 513.049,218.807 512.941,218.464C512.542,217.208 511.168,216.415 509.881,216.689Z" style="fill:rgb(216,142,113);fill-rule:nonzero;"/>
    </g>
    <g transform="matrix(1,0,0,1,-379.97,-137.209)">
        <path d="M510.164,218.11C509.822,218.002 509.675,218.539 510.016,218.647C511.079,218.982 511.762,220.112 511.624,221.206C511.605,221.355 511.765,221.484 511.902,221.484C512.068,221.484 512.161,221.355 512.18,221.206C512.35,219.864 511.442,218.513 510.164,218.11Z" style="fill:rgb(216,142,113);fill-rule:nonzero;"/>
    </g>
    <g transform="matrix(1,0,0,1,-379.97,-137.209)">
        <path d="M414.583,212.884C413.473,212.869 412.372,212.338 411.692,211.454C411.6,211.335 411.453,211.271 411.311,211.354C411.194,211.422 411.119,211.615 411.211,211.735C412.017,212.78 413.258,213.422 414.583,213.44C414.941,213.446 414.941,212.889 414.583,212.884Z" style="fill:rgb(216,142,113);fill-rule:nonzero;"/>
    </g>
    <g transform="matrix(1,0,0,1,-379.97,-137.209)">
        <path d="M413.447,213.704C412.679,213.698 411.938,213.463 411.301,213.036C411.176,212.952 410.993,213.012 410.92,213.136C410.84,213.273 410.895,213.433 411.02,213.517C411.735,213.996 412.587,214.254 413.447,214.261C413.805,214.263 413.805,213.707 413.447,213.704Z" style="fill:rgb(216,142,113);fill-rule:nonzero;"/>
    </g>
    <g transform="matrix(1,0,0,1,-379.97,-137.209)">
        <path d="M474.448,219.845C473.992,221.389 473.542,223.205 474.461,224.672C474.651,224.975 475.132,224.696 474.941,224.391C474.107,223.059 474.572,221.387 474.984,219.993C475.086,219.648 474.549,219.501 474.448,219.845Z" style="fill:rgb(137,54,32);fill-rule:nonzero;"/>
    </g>
    <g transform="matrix(1,0,0,1,-379.97,-137.209)">
        <path d="M475.748,220.2C475.127,221.347 474.922,222.666 475.154,223.948C475.218,224.3 475.754,224.151 475.691,223.8C475.487,222.671 475.683,221.488 476.229,220.48C476.399,220.166 475.919,219.885 475.748,220.2Z" style="fill:rgb(137,54,32);fill-rule:nonzero;"/>
    </g>
    <defs>
        <linearGradient id="_Linear1" x1="0" y1="0" x2="1" y2="0" gradientUnits="userSpaceOnUse" gradientTransform="matrix(2.9801,51.0054,-51.0054,2.9801,461.409,223.604)"><stop offset="0" style="stop-color:rgb(180,0,51);stop-opacity:1"/><stop offset="0.2" style="stop-color:rgb(180,0,51);stop-opacity:1"/><stop offset="0.36" style="stop-color:rgb(189,11,59);stop-opacity:1"/><stop offset="0.64" style="stop-color:rgb(214,39,80);stop-opacity:1"/><stop offset="1" style="stop-color:rgb(254,84,114);stop-opacity:1"/><stop offset="1" style="stop-color:rgb(255,85,114);stop-opacity:1"/></linearGradient>
        <linearGradient id="_Linear2" x1="0" y1="0" x2="1" y2="0" gradientUnits="userSpaceOnUse" gradientTransform="matrix(68.5042,-139.893,139.893,68.5042,438.974,276.687)"><stop offset="0" style="stop-color:rgb(243,184,136);stop-opacity:1"/><stop offset="0.19" style="stop-color:rgb(243,184,136);stop-opacity:1"/><stop offset="0.66" style="stop-color:rgb(250,217,194);stop-opacity:1"/><stop offset="1" style="stop-color:rgb(255,239,232);stop-opacity:1"/></linearGradient>
        <linearGradient id="_Linear3" x1="0" y1="0" x2="1" y2="0" gradientUnits="userSpaceOnUse" gradientTransform="matrix(1.04617e-15,-17.0853,17.0853,1.04617e-15,484.759,187.963)"><stop offset="0" style="stop-color:rgb(255,205,0);stop-opacity:1"/><stop offset="0.06" style="stop-color:rgb(255,205,0);stop-opacity:1"/><stop offset="1" style="stop-color:rgb(255,144,0);stop-opacity:1"/></linearGradient>
        <linearGradient id="_Linear4" x1="0" y1="0" x2="1" y2="0" gradientUnits="userSpaceOnUse" gradientTransform="matrix(1.05604e-15,-17.2465,17.2465,1.05604e-15,507.577,185.971)"><stop offset="0" style="stop-color:rgb(255,205,0);stop-opacity:1"/><stop offset="0.06" style="stop-color:rgb(255,205,0);stop-opacity:1"/><stop offset="1" style="stop-color:rgb(255,144,0);stop-opacity:1"/></linearGradient>
        <linearGradient id="_Linear6" x1="0" y1="0" x2="1" y2="0" gradientUnits="userSpaceOnUse" gradientTransform="matrix(5.4754e-16,-8.942,8.942,5.4754e-16,485.034,183.469)"><stop offset="0" style="stop-color:rgb(157,0,0);stop-opacity:1"/><stop offset="0.16" style="stop-color:rgb(130,4,0);stop-opacity:1"/><stop offset="0.39" style="stop-color:rgb(98,8,0);stop-opacity:1"/><stop offset="0.61" style="stop-color:rgb(75,11,0);stop-opacity:1"/><stop offset="0.82" style="stop-color:rgb(61,13,0);stop-opacity:1"/><stop offset="1" style="stop-color:rgb(56,14,0);stop-opacity:1"/></linearGradient>
        <linearGradient id="_Linear7" x1="0" y1="0" x2="1" y2="0" gradientUnits="userSpaceOnUse" gradientTransform="matrix(7.8138e-16,-12.7609,12.7609,7.8138e-16,485.034,192.69)"><stop offset="0" style="stop-color:black;stop-opacity:0.32"/><stop offset="0.48" style="stop-color:rgb(129,129,0);stop-opacity:0.32"/><stop offset="0.84" style="stop-color:rgb(219,219,0);stop-opacity:0.32"/><stop offset="1" style="stop-color:rgb(255,255,0);stop-opacity:0.32"/></linearGradient>
        <linearGradient id="_Linear9" x1="0" y1="0" x2="1" y2="0" gradientUnits="userSpaceOnUse" gradientTransform="matrix(5.4754e-16,-8.942,8.942,5.4754e-16,504.715,181.524)"><stop offset="0" style="stop-color:rgb(157,0,0);stop-opacity:1"/><stop offset="0.16" style="stop-color:rgb(130,4,0);stop-opacity:1"/><stop offset="0.39" style="stop-color:rgb(98,8,0);stop-opacity:1"/><stop offset="0.61" style="stop-color:rgb(75,11,0);stop-opacity:1"/><stop offset="0.82" style="stop-color:rgb(61,13,0);stop-opacity:1"/><stop offset="1" style="stop-color:rgb(56,14,0);stop-opacity:1"/></linearGradient>
        <linearGradient id="_Linear10" x1="0" y1="0" x2="1" y2="0" gradientUnits="userSpaceOnUse" gradientTransform="matrix(7.81374e-16,-12.7608,12.7608,7.81374e-16,506.059,191.063)"><stop offset="0" style="stop-color:black;stop-opacity:0.32"/><stop offset="0.48" style="stop-color:rgb(129,129,0);stop-opacity:0.32"/><stop offset="0.84" style="stop-color:rgb(219,219,0);stop-opacity:0.32"/><stop offset="1" style="stop-color:rgb(255,255,0);stop-opacity:0.32"/></linearGradient>
    </defs>
</svg>
