<?xml version="1.0" encoding="UTF-8" standalone="no"?>
<!DOCTYPE svg PUBLIC "-//W3C//DTD SVG 1.1//EN" "http://www.w3.org/Graphics/SVG/1.1/DTD/svg11.dtd">
<svg width="100%" height="100%" viewBox="0 0 119 148" version="1.1" xmlns="http://www.w3.org/2000/svg" xmlns:xlink="http://www.w3.org/1999/xlink" xml:space="preserve" xmlns:serif="http://www.serif.com/" style="fill-rule:evenodd;clip-rule:evenodd;stroke-linejoin:round;stroke-miterlimit:2;">
    <g transform="matrix(1,0,0,1,-15.471,-7.45757)">
        <path d="M45.394,30.736C49.476,31.129 53.498,32.032 57.361,33.408C57.731,33.54 57.888,32.951 57.52,32.82C53.606,31.426 49.532,30.525 45.397,30.127C45.006,30.089 45.007,30.699 45.394,30.736Z" style="fill:rgb(144,60,33);fill-rule:nonzero;"/>
        <path d="M47.133,38.943C50.204,37.137 53.779,36.334 57.327,36.638C57.718,36.672 57.718,36.062 57.33,36.029C53.679,35.716 49.98,36.562 46.823,38.419C46.486,38.616 46.794,39.142 47.133,38.943Z" style="fill:rgb(144,60,33);fill-rule:nonzero;"/>
        <path d="M49.63,43.015C52.062,41.497 54.708,40.373 57.489,39.678C57.87,39.583 57.711,38.995 57.33,39.09C54.5,39.798 51.795,40.946 49.32,42.49C48.988,42.697 49.296,43.223 49.63,43.015Z" style="fill:rgb(144,60,33);fill-rule:nonzero;"/>
    </g>
    <g transform="matrix(1,0,0,1,-15.471,-7.45757)">
        <path d="M32.998,95.21C32.998,95.21 35.001,98.966 42.011,100.635C49.021,102.304 54.397,104.246 56.792,101.404C59.187,98.561 65.045,107.646 65.045,107.646L42.345,135.437L40.759,133.851C40.759,133.851 38.589,127.341 31.746,120.832C24.903,114.323 15.472,112.987 15.472,112.987C15.472,112.987 18.81,111.401 22.148,111.568C25.486,111.735 26.822,110.984 26.822,110.984L20.646,105.476L32.246,104.892C32.247,104.891 31.246,101.553 32.998,95.21Z" style="fill:url(#_Linear1);fill-rule:nonzero;"/>
        <path d="M33.187,109.073C32.809,107.8 32.483,106.422 32.247,104.891L20.647,105.475L26.823,110.983C29.327,109.898 33.182,109.084 33.182,109.084L33.187,109.073Z" style="fill:rgb(166,39,0);fill-opacity:0.16;fill-rule:nonzero;"/>
        <path d="M56.792,101.404C55.187,103.309 52.239,103.062 48.361,102.191C44.528,107.839 50.357,116.241 50.357,116.241C45.517,116.408 41.302,122.834 41.302,122.834C39.102,119.186 33.832,115.156 32.247,104.891L20.647,105.475L26.823,110.983C26.823,110.983 26.806,110.992 26.772,111.008C26.754,111.017 26.727,111.027 26.697,111.041C26.67,111.053 26.648,111.063 26.611,111.077C26.566,111.095 26.511,111.114 26.45,111.135C26.412,111.148 26.377,111.16 26.334,111.174C26.261,111.198 26.179,111.221 26.087,111.247C26.039,111.26 25.988,111.273 25.935,111.286C25.832,111.312 25.723,111.337 25.6,111.362C25.541,111.374 25.474,111.385 25.41,111.397C25.274,111.422 25.137,111.446 24.979,111.468C24.917,111.477 24.844,111.483 24.778,111.491C24.386,111.538 23.942,111.574 23.422,111.585C23.032,111.593 22.614,111.591 22.148,111.567C18.81,111.4 15.471,112.986 15.471,112.986C15.471,112.986 24.902,114.321 31.745,120.831C38.588,127.34 40.758,133.85 40.758,133.85L42.344,135.436L65.044,107.645C65.045,107.645 59.187,98.561 56.792,101.404Z" style="fill:rgb(166,39,0);fill-opacity:0.16;fill-rule:nonzero;"/>
        <path d="M41.302,122.834C40.499,121.502 39.285,120.115 37.992,118.396C35.744,115.408 33.254,111.408 32.247,104.891L20.647,105.475L26.823,110.983C26.823,110.983 25.819,111.542 23.394,111.586C27.404,112.275 30.13,109.867 33.135,113.914C34.834,116.202 37.3,118.717 39.024,120.518C42.545,124.769 42.827,132.626 42.827,132.626L44.35,129.51C44.348,129.511 43.761,125.804 41.302,122.834Z" style="fill:rgb(166,39,0);fill-opacity:0.16;fill-rule:nonzero;"/>
        <path d="M57.957,107.067C57.121,106.945 56.285,106.819 55.448,106.701C55.117,106.654 54.804,106.627 54.489,106.758C54.194,106.88 53.964,107.104 53.689,107.26C52.216,108.096 50.696,106.769 49.682,105.822C49.535,105.685 49.343,105.762 49.272,105.93C49.067,106.418 48.305,107.151 48.017,106.329C47.878,105.933 47.903,105.497 47.751,105.103C47.41,104.216 46.446,104.15 45.636,104.345C45.243,104.44 44.764,104.561 44.618,104.987C44.467,105.425 44.746,105.87 45.008,106.199C45.192,106.429 45.412,106.651 45.634,106.877C45.548,106.913 45.477,106.983 45.487,107.088C45.515,107.376 45.609,107.636 45.73,107.88C45.829,108.448 45.733,109.067 45.083,109.196C44.365,109.338 43.798,108.238 43.486,107.744C42.719,106.529 42.193,105.189 41.904,103.783C41.848,103.513 41.411,103.573 41.422,103.848C41.477,105.165 41.312,106.464 40.952,107.727C40.807,107.564 40.663,107.4 40.518,107.237C40.419,107.125 40.2,107.149 40.133,107.287C40.02,107.521 39.906,107.755 39.793,107.988C39.576,107.798 39.36,107.608 39.143,107.417C38.998,107.29 38.798,107.347 38.733,107.525C38.713,107.581 38.692,107.637 38.672,107.694C38.427,107.152 38.182,106.61 37.937,106.068C37.829,105.828 37.494,105.973 37.48,106.192C37.42,107.158 37.36,108.124 37.3,109.091C35.997,107.861 35.115,106.23 34.898,104.439C34.86,104.13 34.37,104.126 34.408,104.439C34.663,106.538 35.7,108.474 37.337,109.819C37.503,109.955 37.742,109.868 37.756,109.646C37.807,108.827 37.857,108.009 37.908,107.19C38.1,107.615 38.293,108.041 38.485,108.466C38.58,108.676 38.869,108.584 38.933,108.407C38.981,108.275 39.029,108.143 39.077,108.011C39.285,108.193 39.492,108.375 39.7,108.557C39.81,108.653 40.012,108.658 40.085,108.507C40.192,108.287 40.299,108.067 40.405,107.847C40.568,108.032 40.732,108.216 40.895,108.401C41.023,108.546 41.251,108.458 41.305,108.293C41.602,107.378 41.78,106.436 41.864,105.484C42.311,106.817 42.975,108.112 43.89,109.134C44.408,109.712 45.189,109.916 45.8,109.343C46.048,109.111 46.181,108.834 46.237,108.54C46.452,108.73 46.692,108.896 46.98,108.997C47.121,109.047 47.305,108.914 47.29,108.761C47.196,107.775 46.512,107.105 45.862,106.422C45.552,106.097 44.593,105.203 45.401,104.923C45.825,104.776 46.358,104.645 46.799,104.794C47.678,105.091 47.244,106.356 47.812,106.936C48.448,107.585 49.183,107.001 49.571,106.385C50.55,107.28 51.692,108.161 53.096,107.968C53.392,107.927 53.677,107.833 53.937,107.684C54.293,107.48 54.576,107.157 55.012,107.148C55.47,107.138 55.963,107.269 56.416,107.335C56.886,107.404 57.357,107.472 57.827,107.541C58.135,107.585 58.269,107.113 57.957,107.067Z" style="fill:rgb(166,39,0);fill-opacity:0.38;fill-rule:nonzero;"/>
        <path d="M56.098,109.959C55.072,111.517 52.78,112.041 51.187,111.056C50.885,110.869 50.539,110.634 50.191,110.87C49.85,111.102 49.92,111.539 49.695,111.836C49.355,112.286 48.681,111.888 48.377,111.608C47.996,111.259 47.68,110.859 47.194,110.649C47.036,110.581 46.899,110.636 46.834,110.795C46.637,111.28 46.681,111.804 46.52,112.295C46.439,112.543 46.274,112.844 46.006,112.927C45.73,113.013 45.456,112.796 45.24,112.655C44.254,112.005 43.289,111.321 42.341,110.616C42.2,110.511 41.95,110.651 41.972,110.828C42.085,111.748 42.198,112.668 42.31,113.588C41.858,113.527 41.54,113.02 41.246,112.722C40.999,112.472 40.7,112.272 40.338,112.258C40.052,112.246 39.756,112.342 39.577,112.575C39.34,112.884 39.471,113.233 39.425,113.573C38.798,113.69 38.196,113.172 37.555,113.181C37.085,113.188 36.632,113.394 36.508,113.878C36.43,114.184 36.903,114.314 36.981,114.008C37.164,113.291 38.283,113.868 38.678,113.992C39.133,114.135 39.866,114.234 39.93,113.606C39.962,113.286 39.767,112.802 40.238,112.748C40.621,112.705 40.896,113.057 41.118,113.313C41.526,113.785 41.982,114.221 42.652,114.083C42.746,114.064 42.844,113.947 42.832,113.847C42.73,113.015 42.628,112.184 42.526,111.352C43.018,111.712 43.511,112.072 44.013,112.419C44.507,112.76 45.1,113.32 45.706,113.423C46.192,113.506 46.601,113.204 46.833,112.798C47.107,112.317 47.092,111.755 47.221,111.231C47.962,111.723 48.475,112.708 49.51,112.496C49.946,112.407 50.154,112.083 50.284,111.685C50.313,111.596 50.332,111.425 50.401,111.36C50.563,111.207 50.704,111.333 50.849,111.423C51.049,111.548 51.248,111.658 51.466,111.748C53.25,112.485 55.459,111.82 56.52,110.208C56.695,109.942 56.271,109.696 56.098,109.959Z" style="fill:rgb(166,39,0);fill-opacity:0.38;fill-rule:nonzero;"/>
        <path d="M54.248,115.228C53.868,115.845 53.074,115.974 52.505,115.542C52.026,115.178 51.736,114.622 51.303,114.211C50.206,113.17 48.771,113.718 47.618,114.361C47.367,114.501 47.542,114.866 47.807,114.809C48.522,114.656 49.322,115.108 49.501,115.834C49.681,116.565 49.164,117.324 48.464,117.521C48.27,117.576 48.247,117.79 48.356,117.931C48.418,118.01 48.438,118.098 48.477,118.182C47.712,117.361 46.987,116.505 46.337,115.587C46.211,115.409 45.965,115.442 45.889,115.646C45.683,116.198 45.126,116.265 44.756,116.018C44.774,115.985 44.79,115.95 44.787,115.904C44.763,115.536 44.602,115.257 44.285,115.065C44.187,115.005 44.087,115.031 44.015,115.094C43.947,115.032 43.879,114.97 43.81,114.908C43.699,114.807 43.501,114.811 43.425,114.958C43.137,115.514 42.849,116.071 42.561,116.627C42.236,116.389 41.947,116.116 41.714,115.779C41.59,115.6 41.231,115.639 41.257,115.903C41.288,116.215 41.284,116.525 41.262,116.834C40.609,116.247 39.907,115.722 39.131,115.304C38.853,115.154 38.605,115.578 38.883,115.727C39.768,116.204 40.57,116.794 41.287,117.498C41.407,117.616 41.667,117.579 41.697,117.39C41.739,117.123 41.761,116.857 41.768,116.592C41.994,116.823 42.239,117.034 42.52,117.211C42.628,117.279 42.796,117.238 42.855,117.123C43.139,116.574 43.423,116.026 43.707,115.477C43.791,115.554 43.876,115.631 43.96,115.707C44.082,116.167 44.442,116.552 44.929,116.645C45.415,116.737 45.867,116.513 46.15,116.144C46.921,117.2 47.757,118.204 48.679,119.132C48.844,119.298 49.072,119.158 49.097,118.959C49.148,118.565 49.069,118.207 48.89,117.878C49.684,117.499 50.187,116.589 49.971,115.705C49.81,115.046 49.279,114.577 48.658,114.39C49.187,114.157 49.757,113.999 50.301,114.164C50.974,114.368 51.336,115.025 51.774,115.522C52.149,115.947 52.623,116.295 53.212,116.301C53.81,116.307 54.358,115.982 54.668,115.479C54.837,115.206 54.413,114.959 54.248,115.228Z" style="fill:rgb(166,39,0);fill-opacity:0.38;fill-rule:nonzero;"/>
        <path d="M54.125,120.104C53.15,120.886 52.079,121.611 50.939,122.132C50.453,122.355 49.908,122.536 49.368,122.525C48.724,122.513 48.306,122.178 47.981,121.645C47.528,120.9 46.87,119.955 45.873,120.468C45.342,120.742 44.876,121.217 44.251,120.813C44.138,120.74 44.054,120.631 43.981,120.518C44.364,120.132 44.586,119.576 44.771,119.079C44.813,118.965 44.723,118.796 44.6,118.777C43.683,118.635 43.18,119.565 43.38,120.36C43.013,120.565 42.49,120.562 42.273,120.157C42.124,119.879 41.701,120.126 41.85,120.404C42.158,120.979 42.881,121.11 43.455,120.881C43.512,120.858 43.551,120.814 43.603,120.786C44.075,121.488 45.009,121.612 45.723,121.145C45.97,120.983 46.216,120.77 46.531,120.823C46.874,120.881 47.12,121.186 47.3,121.461C47.574,121.878 47.776,122.338 48.189,122.643C49.011,123.251 50.12,123.011 50.989,122.642C52.246,122.109 53.411,121.301 54.471,120.45C54.718,120.253 54.369,119.908 54.125,120.104Z" style="fill:rgb(166,39,0);fill-opacity:0.38;fill-rule:nonzero;"/>
    </g>
    <g transform="matrix(1,0,0,1,-15.471,-7.45757)">
        <path d="M71.391,16.534C71.391,16.534 67.829,11.464 65.938,12.076C64.574,12.517 63.907,17.667 63.879,19.059C63.851,20.45 61.626,22.814 60.096,23.927C58.566,25.04 57.175,26.737 57.565,28.35C57.565,28.35 56.842,29.824 54.867,30.075C52.892,30.325 51.918,32.273 53.448,34.22C53.448,34.22 52.39,33.942 52.697,35.472C53.003,37.002 54.478,37.809 54.478,37.809C54.478,37.809 52.92,40.507 55.229,43.679C55.229,43.679 55.257,47.156 58.261,50.661C61.265,54.166 62.044,53.443 60.848,56.92C59.652,60.397 52.391,66.656 54.366,70.273C54.366,70.273 51.779,72.193 54.672,76.282C54.672,76.282 52.586,78.535 51.417,78.313C51.417,78.313 43.044,68.354 40.512,66.796C37.98,65.238 36.172,66.073 34.531,66.657C32.89,67.241 29.969,65.711 29.301,69.773C29.301,69.773 30.553,71.136 33.307,71.108C36.061,71.08 36.979,71.581 36.84,73.528C36.701,75.475 36.228,79.481 39.677,80.844C39.677,80.844 38.536,89.245 44.754,97.424C50.971,105.603 54.643,105.895 54.518,102.682C54.518,102.682 55.436,103.517 56.229,103.308C56.229,103.308 48.968,110.61 50.554,119.707C50.554,119.707 42.041,122.628 40.205,135.647C40.205,135.647 36.199,137.066 36.45,142.824C36.7,148.582 45.63,153.423 52.974,152.338C52.974,152.338 55.394,157.178 63.99,153.006C63.99,153.006 69.248,156.928 78.845,152.255C88.442,147.582 91.28,142.491 102.129,143.743C112.978,144.995 115.565,142.825 116.4,141.072C116.4,141.072 128.501,146.997 132.34,126.217C132.34,126.217 136.012,124.882 133.592,116.202C131.172,107.523 125.664,96.924 120.656,91.666C115.649,86.408 112.895,79.732 112.895,79.732C112.895,79.732 114.981,76.895 112.895,74.641C112.895,74.641 115.482,70.802 111.476,66.629C107.47,62.456 102.129,61.121 102.046,58.283C101.962,55.445 105.05,56.113 106.219,51.106C106.219,51.106 109.223,50.105 109.766,48.352C110.309,46.599 108.806,46.266 108.806,46.266C108.806,46.266 111.81,44.722 111.81,42.385C111.81,40.048 109.974,39.381 107.554,37.211C105.134,35.041 99.803,15.876 97.206,15.346C95.161,14.929 91.948,20.353 91.448,20.228C90.113,19.894 82.936,16.931 80.39,14.428C77.845,11.924 74.673,12.842 74.715,15.596C74.715,15.596 70.584,13.718 71.961,16.472L71.391,16.534Z" style="fill:url(#_Linear2);fill-rule:nonzero;"/>
    </g>
    <g transform="matrix(1,0,0,1,-15.471,-7.45757)">
        <path d="M108.389,134.728C101.963,130.138 89.111,133.643 81.349,140.236C73.588,146.829 73.087,141.488 73.087,141.488C62.488,147.998 58.9,143.491 58.9,143.491C58.9,143.491 41.179,151.438 37.134,145.33C39.363,149.895 46.732,153.259 52.975,152.337C52.975,152.337 55.395,157.177 63.991,153.005C63.991,153.005 69.249,156.927 78.846,152.254C88.443,147.58 91.281,142.49 102.13,143.742C112.979,144.994 115.566,142.824 116.401,141.071C116.401,141.071 126.615,146.058 131.251,130.742C128.93,139.119 114.784,139.296 108.389,134.728Z" style="fill:rgb(166,39,0);fill-opacity:0.18;fill-rule:nonzero;"/>
    </g>
    <g transform="matrix(1,0,0,1,-15.471,-7.45757)">
        <path d="M76.509,112.278C76.926,108.272 81.016,109.441 81.016,109.441C90.363,105.018 101.337,116.332 106.637,123.545C111.937,130.758 117.345,127.05 117.345,127.05C111.529,126.215 104.217,120.04 96.121,110.609C88.025,101.178 76.259,107.02 71.835,108.606C67.412,110.192 59.4,112.195 58.565,106.019C57.731,99.843 67.495,88.493 75.173,88.827C82.851,89.161 89.694,100.01 89.694,100.01C87.608,95.587 84.353,92.499 84.353,92.499C90.445,94.252 94.451,100.427 94.451,100.427C91.447,94.084 87.775,93.083 83.268,90.829C78.761,88.576 83.018,81.732 83.018,81.732C73.003,87.657 65.325,84.987 61.152,89.577C56.979,94.167 54.309,91.33 54.309,91.33C53.712,93.344 45.518,99.48 41.708,92.238C42.447,93.922 43.424,95.675 44.753,97.423C50.97,105.602 54.642,105.894 54.517,102.681C54.517,102.681 55.435,103.516 56.228,103.307C56.228,103.307 48.967,110.609 50.553,119.706C57.313,115.199 63.989,114.615 63.989,114.615C69.332,107.104 76.509,112.278 76.509,112.278Z" style="fill:rgb(166,39,0);fill-opacity:0.18;fill-rule:nonzero;"/>
    </g>
    <g transform="matrix(1,0,0,1,-15.471,-7.45757)">
        <path d="M100.366,59.881C101.711,60.073 102.817,60.349 103.578,60.728C102.667,59.974 102.074,59.208 102.046,58.282C101.973,55.814 104.3,55.994 105.676,52.787C104.068,56.712 90.647,59.283 79.527,58.282C68.4,57.281 58.65,52.302 56.135,47.275C56.584,48.315 57.252,49.484 58.26,50.66C61.264,54.165 62.043,53.442 60.847,56.919C59.651,60.396 52.39,66.655 54.365,70.272C54.365,70.272 51.778,72.192 54.671,76.281C56.093,75.001 56.535,73.555 60.318,67.991C64.101,62.427 70.11,63.206 70.11,63.206C70.624,61.921 79.715,60.311 88.453,59.746C104.263,58.58 106.496,71.107 106.496,71.107C106.591,65.867 101.847,61.207 100.366,59.881Z" style="fill:rgb(166,39,0);fill-opacity:0.18;fill-rule:nonzero;"/>
    </g>
    <g transform="matrix(1,0,0,1,-15.471,-7.45757)">
        <path d="M106.261,78.771C106.261,78.771 107.429,82.985 104.258,85.906C104.258,85.906 106.719,84.281 107.388,82.693C107.388,82.693 111.556,79.93 116.209,85.906C114.056,82.529 112.896,79.73 112.896,79.73C112.061,81.4 108.347,83.403 106.261,78.771Z" style="fill:rgb(166,39,0);fill-opacity:0.18;fill-rule:nonzero;"/>
    </g>
    <g transform="matrix(1,0,0,1,-15.471,-7.45757)">
        <path d="M58.566,106.019C58.014,101.934 62.107,95.6 67.159,91.867C64.158,93.64 56.229,103.307 56.229,103.307C56.229,103.307 48.968,110.609 50.554,119.706C57.314,115.199 63.99,114.615 63.99,114.615C69.331,107.104 76.508,112.278 76.508,112.278C76.925,108.272 81.015,109.441 81.015,109.441C87.103,106.56 93.88,110.356 99.331,115.346C92.92,109.373 87.936,104.091 69.615,109.323C69.598,109.328 69.584,109.331 69.567,109.336C65.107,110.613 59.272,111.243 58.566,106.019Z" style="fill:rgb(166,39,0);fill-opacity:0.25;fill-rule:nonzero;"/>
    </g>
    <g transform="matrix(1,0,0,1,-15.471,-7.45757)">
        <path d="M103.795,55.384C101.416,57.541 77.918,62.2 66.995,56.447C62.877,54.278 60.273,52.477 58.624,51.074C61.321,54.102 61.993,53.59 60.847,56.92C60.642,57.516 60.251,58.197 59.767,58.929C62.265,55.474 62.822,55.029 65.659,58.033C68.497,61.037 72.057,60.815 85.633,59.368C94.843,58.387 101.432,57.591 102.2,59.032C102.123,58.81 102.054,58.555 102.046,58.283C102.003,56.796 102.83,56.268 103.795,55.384Z" style="fill:rgb(166,39,0);fill-opacity:0.25;fill-rule:nonzero;"/>
    </g>
    <g transform="matrix(1,0,0,1,-15.471,-7.45757)">
        <path d="M94.602,47.162L92.474,47.454L84.071,43.962C84.071,43.962 75.976,49.461 75.249,46.848C74.522,44.235 73.046,43.626 73.046,43.626C73.046,43.626 73.278,44.017 76.17,39.434C79.062,34.851 86.513,33.541 90.442,38.069C94.37,42.597 92.092,46.106 94.602,47.162Z" style="fill:rgb(56,25,5);fill-rule:nonzero;"/>
    </g>
    <g transform="matrix(1,0,0,1,-15.471,-7.45757)">
        <path d="M66.375,40.86C66.375,40.86 66.499,40.106 67.5,37.311C68.249,35.219 69.343,31.052 67.656,27.959C65.969,24.866 62.171,25.061 60.083,27.645C58.178,30.002 58.61,30.644 58.066,30.417C58.066,30.417 58.246,33.529 58.131,34.948C58.131,34.948 61.224,42.582 62.841,41.959C64.458,41.335 64.286,41.098 66.375,40.86Z" style="fill:rgb(56,25,5);fill-rule:nonzero;"/>
    </g>
    <g transform="matrix(1,0,0,1,-15.471,-7.45757)">
        <path d="M58.03,33.698C58.03,33.698 57.153,38.559 58.625,41.619C60.097,44.679 63.393,42.47 64.207,41.668C65.021,40.865 58.03,33.698 58.03,33.698Z" style="fill:rgb(166,39,0);fill-opacity:0.35;fill-rule:nonzero;"/>
    </g>
    <g transform="matrix(1,0,0,1,-15.471,-7.45757)">
        <path d="M74.894,46.237C74.894,46.237 74.895,48.824 75.897,50.048C75.897,50.048 73.671,51.022 71.112,53.748C71.112,53.748 74.506,51.458 77.733,50.461L80.348,46.793C80.348,46.793 88.805,46.348 92.644,47.572C96.483,48.796 97.651,49.186 97.651,49.186L94.602,47.162L89.751,46.237L83.824,41.338L74.894,46.237Z" style="fill:rgb(166,39,0);fill-opacity:0.35;fill-rule:nonzero;"/>
    </g>
    <g transform="matrix(1,0,0,1,-15.471,-7.45757)">
        <path d="M77.733,50.461C77.733,50.461 85.522,46.181 92.644,47.572C92.644,47.572 94.313,38.948 86.301,36.278C78.289,33.608 70.278,45.069 77.733,50.461Z" style="fill:url(#_Linear3);fill-rule:nonzero;"/>
    </g>
    <g transform="matrix(1,0,0,1,-15.471,-7.45757)">
        <path d="M63.268,42.287C66.895,40.514 68.999,32.884 67.719,28.878C66.439,24.872 59.763,24.643 58.205,32.658C56.647,40.674 60.764,43.511 63.268,42.287Z" style="fill:url(#_Linear4);fill-rule:nonzero;"/>
    </g>
    <g transform="matrix(1,0,0,1,-15.471,-7.45757)">
        <g>
            <clipPath id="_clip5">
                <path d="M77.733,50.461C77.733,50.461 85.522,46.181 92.644,47.572C92.644,47.572 94.313,38.948 86.301,36.278C78.289,33.608 70.278,45.069 77.733,50.461Z"/>
            </clipPath>
            <g clip-path="url(#_clip5)">
                <g>
                    <g>
                        <path d="M86.895,43.525C86.432,45.65 85.431,47.237 84.66,47.069C83.889,46.901 83.639,45.042 84.102,42.916C84.565,40.791 85.566,39.204 86.337,39.372C87.108,39.541 87.358,41.4 86.895,43.525Z" style="fill:url(#_Linear6);fill-rule:nonzero;"/>
                        <path d="M87.352,49.99C86.691,53.023 83.696,54.946 80.663,54.285C77.63,53.624 75.707,50.629 76.368,47.596C77.029,44.563 80.024,42.64 83.057,43.301C86.09,43.962 88.013,46.957 87.352,49.99Z" style="fill:url(#_Linear7);fill-rule:nonzero;"/>
                    </g>
                </g>
                <path d="M72.53,47.172C72.53,47.172 76.076,36.084 85.585,37.412C95.095,38.74 92.788,57.481 92.788,57.481C92.788,57.481 100.103,35.868 97.394,29.717C94.685,23.565 94.158,14.515 87.609,16.886C81.06,19.256 75.633,30.965 75.633,30.965L72.53,47.172Z" style="fill:rgb(131,74,44);fill-opacity:0.47;fill-rule:nonzero;"/>
                <path d="M82.822,38.735C83.768,38.717 85.296,40.996 84.896,42.329C84.496,43.661 79.705,38.794 82.822,38.735Z" style="fill:white;fill-rule:nonzero;"/>
                <path d="M81.114,39.458C81.455,39.194 82.147,41.711 81.598,41.917C81.049,42.123 80.773,39.721 81.114,39.458Z" style="fill:white;fill-rule:nonzero;"/>
            </g>
        </g>
    </g>
    <g transform="matrix(1,0,0,1,-15.471,-7.45757)">
        <g>
            <clipPath id="_clip8">
                <path d="M63.268,42.287C66.895,40.514 68.999,32.884 67.719,28.878C66.439,24.872 59.763,24.643 58.205,32.658C56.647,40.674 60.764,43.511 63.268,42.287Z"/>
            </clipPath>
            <g clip-path="url(#_clip8)">
                <g>
                    <g>
                        <path d="M66.115,35.263C65.652,37.388 64.651,38.975 63.88,38.807C63.109,38.639 62.859,36.78 63.322,34.654C63.785,32.529 64.786,30.942 65.557,31.11C66.328,31.278 66.578,33.138 66.115,35.263Z" style="fill:url(#_Linear9);fill-rule:nonzero;"/>
                        <path d="M69.936,42.975C69.275,46.008 66.28,47.931 63.247,47.27C60.214,46.609 58.291,43.614 58.952,40.581C59.613,37.548 62.608,35.625 65.641,36.286C68.674,36.947 70.597,39.942 69.936,42.975Z" style="fill:url(#_Linear10);fill-rule:nonzero;"/>
                    </g>
                </g>
                <path d="M56.09,38.003C56.09,38.003 58.704,26.044 65.103,27.432C71.502,28.82 65.715,48.185 65.715,48.185C65.715,48.185 72.877,26.891 71.018,20.723C69.159,14.555 68.748,5.503 64.362,7.832C59.976,10.161 56.402,21.834 56.402,21.834L56.09,38.003Z" style="fill:rgb(131,74,44);fill-opacity:0.47;fill-rule:nonzero;"/>
                <path d="M62.042,30.473C62.988,30.455 64.516,32.734 64.116,34.067C63.715,35.399 58.925,30.531 62.042,30.473Z" style="fill:white;fill-rule:nonzero;"/>
                <path d="M60.333,31.195C60.674,30.931 61.366,33.448 60.818,33.654C60.269,33.861 59.992,31.459 60.333,31.195Z" style="fill:white;fill-rule:nonzero;"/>
            </g>
        </g>
    </g>
    <g transform="matrix(1,0,0,1,-15.471,-7.45757)">
        <path d="M67.614,46.315C67.507,46.129 67.343,45.951 67.266,45.751C67.193,45.563 67.273,45.286 67.306,45.093C67.349,44.84 67.405,44.589 67.47,44.341C67.578,43.934 66.948,43.76 66.84,44.167C66.772,44.424 66.491,45.513 66.481,45.526C66.361,45.701 66.253,45.885 66.16,46.076C66.049,46.305 65.928,46.55 65.922,46.81C65.918,46.981 66.075,47.145 66.249,47.137C66.423,47.129 66.557,46.999 66.57,46.825C66.582,46.739 66.617,46.651 66.654,46.561C66.67,46.525 66.678,46.507 66.686,46.489C66.707,46.443 66.729,46.397 66.752,46.352C66.809,46.362 66.93,46.448 66.961,46.498C67.089,46.703 67.202,46.918 67.289,47.143C67.353,47.307 67.508,47.422 67.691,47.371C67.848,47.328 67.984,47.134 67.919,46.969C67.833,46.745 67.734,46.525 67.614,46.315Z" style="fill:rgb(56,25,5);fill-rule:nonzero;"/>
    </g>
    <g transform="matrix(1,0,0,1,-15.471,-7.45757)">
        <path d="M66.499,42.444C66.499,42.444 68.275,40.361 69.416,40.796C70.557,41.23 68.799,43.528 68.799,43.528L66.931,43.342L66.499,42.444Z" style="fill:rgb(255,189,115);fill-opacity:0.68;fill-rule:nonzero;"/>
    </g>
    <g transform="matrix(1,0,0,1,-15.471,-7.45757)">
        <path d="M68.204,42.921C67.836,42.936 67.465,42.804 67.197,42.551C67.017,42.382 66.779,42.278 66.499,42.443C65.995,42.74 66.609,43.847 66.892,44.303C66.967,44.423 67.111,44.477 67.246,44.435C67.769,44.272 69.004,43.823 68.806,43.282C68.697,42.987 68.45,42.912 68.204,42.921Z" style="fill:rgb(249,212,185);fill-rule:nonzero;"/>
        <path d="M68.204,42.921C67.836,42.936 67.465,42.804 67.197,42.551C67.017,42.382 66.779,42.278 66.499,42.443C65.995,42.74 66.609,43.847 66.892,44.303C66.967,44.423 67.111,44.477 67.246,44.435C67.769,44.272 69.004,43.823 68.806,43.282C68.697,42.987 68.45,42.912 68.204,42.921Z" style="fill:rgb(243,126,136);fill-rule:nonzero;"/>
        <path d="M66.891,44.304C66.966,44.424 67.11,44.478 67.245,44.436C67.687,44.298 68.634,43.956 68.798,43.527C67.355,44.065 66.647,43.877 66.308,42.789C66.277,43.247 66.678,43.96 66.891,44.304Z" style="fill:rgb(243,184,136);fill-rule:nonzero;"/>
    </g>
    <g transform="matrix(1,0,0,1,-15.471,-7.45757)">
        <path d="M72.295,33.698C71.356,32.314 74.256,27.362 79.138,27.487C84.02,27.612 82.331,30.95 79.9,32.536C77.469,34.122 73.338,35.236 72.295,33.698Z" style="fill:rgb(255,189,115);fill-opacity:0.68;fill-rule:nonzero;"/>
    </g>
    <g transform="matrix(1,0,0,1,-15.471,-7.45757)">
        <path d="M70.065,30.784C71.327,30.648 74.78,23.356 71.901,23.19C69.022,23.023 68.521,30.951 70.065,30.784Z" style="fill:rgb(255,189,115);fill-opacity:0.68;fill-rule:nonzero;"/>
    </g>
    <g transform="matrix(1,0,0,1,-15.471,-7.45757)">
        <path d="M70.397,47.826C69.793,47.271 69.708,46.104 69.756,45.339C69.792,44.779 69.924,44.215 70.032,43.665C70.13,43.166 70.346,42.609 69.699,42.486C69.386,42.427 69.293,42.137 69.104,41.904C68.942,41.704 68.739,41.54 68.505,41.43C68.044,41.214 67.511,41.178 67.022,41.318C66.877,41.359 66.75,41.435 66.597,41.423C66.472,41.413 66.372,41.346 66.247,41.335C66.048,41.318 65.883,41.42 65.773,41.58C65.546,41.91 65.378,42.283 65.149,42.615C64.863,43.028 64.561,43.446 64.232,43.826C63.899,44.21 63.487,44.616 62.946,44.62C62.525,44.623 62.546,45.277 62.967,45.273C63.717,45.267 64.311,44.747 64.769,44.203C65.246,43.636 65.698,43.011 66.076,42.375C66.139,42.27 66.227,42.149 66.276,42.031C66.304,42.044 66.331,42.058 66.36,42.067C66.792,42.203 67.195,41.884 67.629,41.887C68.088,41.89 68.445,42.091 68.703,42.464C68.834,42.652 68.95,42.839 69.141,42.973C69.221,43.03 69.304,43.074 69.399,43.102C69.411,43.106 69.441,43.114 69.475,43.122C69.441,43.366 69.376,43.617 69.332,43.846C69.282,44.108 69.235,44.371 69.193,44.635C69.123,45.077 69.079,45.507 69.109,45.954C69.163,46.751 69.332,47.736 69.95,48.304C70.26,48.588 70.707,48.111 70.397,47.826Z" style="fill:rgb(99,84,119);fill-rule:nonzero;"/>
        <path d="M74.527,55.139C73.71,55.506 72.751,55.535 71.961,55.114C68.17,53.099 68.617,44.386 72.584,42.028C77.007,39.399 81.732,44.031 79.724,49.33C78.355,52.944 75.932,54.509 74.527,55.139Z" style="fill:url(#_Linear11);fill-rule:nonzero;"/>
        <path d="M63.253,36.234C59.845,34.536 57.049,39.576 57.428,44.47C57.807,49.356 60.27,50.164 62.969,45.796C65.668,41.428 65.215,37.211 63.253,36.234Z" style="fill:url(#_Linear12);fill-rule:nonzero;"/>
        <g>
            <path d="M75.205,41.27C78.621,41.27 81.333,45.086 79.724,49.331C78.355,52.943 75.931,54.509 74.527,55.139C74.117,55.323 73.672,55.422 73.23,55.422C72.791,55.422 72.354,55.324 71.96,55.115C68.169,53.1 68.616,44.387 72.583,42.029C73.464,41.506 74.356,41.27 75.205,41.27ZM75.205,40.943C74.253,40.943 73.314,41.214 72.416,41.748C69.979,43.196 68.957,46.703 69.025,49.537C69.091,52.32 70.131,54.513 71.807,55.404C72.232,55.63 72.725,55.75 73.23,55.75C73.712,55.75 74.207,55.642 74.661,55.438C76.056,54.812 78.608,53.201 80.03,49.447C80.861,47.254 80.648,44.998 79.445,43.256C78.445,41.808 76.86,40.943 75.205,40.943Z" style="fill:rgb(99,84,119);fill-rule:nonzero;"/>
        </g>
        <g>
            <path d="M61.909,35.897C62.341,35.897 62.792,36.003 63.253,36.233C65.216,37.211 65.668,41.427 62.969,45.795C61.774,47.729 60.626,48.648 59.683,48.648C58.497,48.648 57.639,47.191 57.428,44.468C57.1,40.238 59.146,35.897 61.909,35.897ZM61.909,35.571C60.979,35.571 60.078,36.013 59.303,36.85C57.761,38.516 56.877,41.588 57.102,44.494C57.323,47.342 58.264,48.975 59.683,48.975C60.799,48.975 62.031,47.935 63.247,45.967C64.92,43.259 65.575,40.226 64.956,38.052C64.666,37.034 64.127,36.304 63.399,35.941C62.905,35.695 62.404,35.571 61.909,35.571Z" style="fill:rgb(99,84,119);fill-rule:nonzero;"/>
        </g>
        <path d="M80.041,48.237L69.359,49.514C69.366,49.834 69.389,50.149 69.423,50.46L79.342,50.193C79.473,49.914 79.607,49.64 79.724,49.331C79.864,48.962 79.964,48.597 80.041,48.237Z" style="fill:url(#_Linear13);fill-rule:nonzero;"/>
        <path d="M79.286,43.636L69.37,48.623C69.36,48.8 69.362,48.976 69.361,49.152L80.137,47.629C80.323,46.113 79.978,44.728 79.286,43.636Z" style="fill:url(#_Linear14);fill-rule:nonzero;"/>
        <path d="M64.65,38.2L57.46,42.369C57.44,42.568 57.426,42.768 57.416,42.97L64.634,41.794C64.937,40.414 64.917,39.176 64.65,38.2Z" style="fill:url(#_Linear15);fill-rule:nonzero;"/>
        <path d="M57.402,43.327C57.396,43.624 57.402,43.922 57.418,44.221L63.901,44.014C64.152,43.439 64.348,42.876 64.497,42.33L57.402,43.327Z" style="fill:url(#_Linear16);fill-rule:nonzero;"/>
    </g>
    <g transform="matrix(1,0,0,1,-15.471,-7.45757)">
        <path d="M71.391,16.534C71.25,16.363 71.117,16.18 70.99,15.992C70.01,14.705 67.446,11.589 65.938,12.077C64.574,12.518 63.907,17.668 63.879,19.059C63.87,19.492 63.633,20.024 63.285,20.579C66.077,17.538 71.391,16.534 71.391,16.534Z" style="fill:rgb(166,39,0);fill-opacity:0.6;fill-rule:nonzero;"/>
    </g>
    <g transform="matrix(1,0,0,1,-15.471,-7.45757)">
        <path d="M97.206,15.345C95.161,14.928 91.948,20.352 91.448,20.227C87.275,24.233 106.694,38.337 102.952,26.987C100.832,21.414 98.617,15.632 97.206,15.345Z" style="fill:rgb(166,39,0);fill-opacity:0.6;fill-rule:nonzero;"/>
    </g>
    <g transform="matrix(1,0,0,1,-15.471,-7.45757)">
        <path d="M89.695,115.323C65.49,114.714 72.195,127.801 65.923,134.978C59.651,142.155 66.424,152.732 84.382,142.721C102.34,132.71 104.55,115.697 89.695,115.323Z" style="fill:rgb(166,39,0);fill-opacity:0.6;fill-rule:nonzero;"/>
    </g>
    <g transform="matrix(1,0,0,1,-15.471,-7.45757)">
        <path d="M62.979,133.643C67.222,132.423 68.784,121.296 64.468,121.461C60.152,121.626 51.952,136.814 62.979,133.643Z" style="fill:rgb(166,39,0);fill-opacity:0.6;fill-rule:nonzero;"/>
    </g>
    <g transform="matrix(1,0,0,1,-15.471,-7.45757)">
        <path d="M106.498,71.107C105.608,67.49 92.7,62.038 101.212,78.771C109.724,95.504 90.363,81.4 97.651,102.722C104.939,124.043 130.752,124.129 132.051,111.5C129.253,103.97 124.787,96.002 120.657,91.665C115.65,86.407 112.896,79.731 112.896,79.731C112.896,79.731 114.982,76.894 112.896,74.64C112.896,74.64 115.483,70.801 111.477,66.628C106.553,62.038 106.498,71.107 106.498,71.107Z" style="fill:rgb(166,39,0);fill-opacity:0.6;fill-rule:nonzero;"/>
    </g>
    <g transform="matrix(1,0,0,1,-15.471,-7.45757)">
        <path d="M59.381,73.664C58.986,71.404 62.966,64.578 68.8,64.277C74.634,63.976 60.61,80.694 59.381,73.664Z" style="fill:rgb(166,39,0);fill-opacity:0.6;fill-rule:nonzero;"/>
    </g>
    <g transform="matrix(1,0,0,1,-15.471,-7.45757)">
        <path d="M48.885,82.735C48.885,82.735 46.437,79.146 51.417,78.312C51.417,78.312 43.898,69.371 40.96,67.115C37.539,65.938 39.628,82.235 48.885,82.735Z" style="fill:rgb(166,39,0);fill-opacity:0.6;fill-rule:nonzero;"/>
    </g>
    <g transform="matrix(1,0,0,1,-15.471,-7.45757)">
        <path d="M60.735,66.322C56.763,70.712 53.603,67.407 56.991,62.745C55.016,65.45 53.27,68.267 54.365,70.272C54.365,70.272 51.778,72.192 54.671,76.281C56.093,75.001 56.535,73.555 60.318,67.991C64.101,62.427 70.11,63.206 70.11,63.206C70.11,63.206 64.711,61.927 60.735,66.322Z" style="fill:rgb(166,39,0);fill-opacity:0.6;fill-rule:nonzero;"/>
    </g>
    <g transform="matrix(1,0,0,1,-15.471,-7.45757)">
        <path d="M71.387,89.494C71.269,89.537 71.173,89.587 71.068,89.635C72.455,89.081 73.846,88.77 75.174,88.828C82.852,89.162 89.695,100.011 89.695,100.011C87.609,95.588 84.354,92.5 84.354,92.5C90.446,94.253 94.452,100.428 94.452,100.428C91.448,94.085 87.776,93.084 83.269,90.83C78.762,88.577 83.019,81.733 83.019,81.733C83.019,81.733 78.226,87.017 71.387,89.494Z" style="fill:rgb(166,39,0);fill-opacity:0.25;fill-rule:nonzero;"/>
    </g>
    <g transform="matrix(1,0,0,1,-15.471,-7.45757)">
        <path d="M65.792,47.81C65.792,47.81 66.723,49.876 67.509,50.622C68.294,51.368 64.393,51.6 65.792,47.81Z" style="fill:rgb(166,39,0);fill-opacity:0.25;fill-rule:nonzero;"/>
    </g>
    <g transform="matrix(1,0,0,1,-15.471,-7.45757)">
        <path d="M94.238,21.264L93.372,22.947C93.22,23.242 93.275,23.601 93.509,23.837L94.908,25.252C95.436,25.786 96.336,25.322 96.209,24.583L95.676,21.485C95.55,20.759 94.575,20.609 94.238,21.264Z" style="fill:rgb(243,126,136);fill-opacity:0.42;fill-rule:nonzero;"/>
    </g>
    <g transform="matrix(1,0,0,1,-15.471,-7.45757)">
        <path d="M32.361,68.601C32.781,68.595 32.783,67.942 32.361,67.947C31.197,67.963 30.208,68.677 29.552,69.595C29.492,69.679 29.448,69.772 29.394,69.859C29.487,69.944 29.66,70.083 29.915,70.243C30.058,70.009 30.212,69.782 30.397,69.579C30.903,69.024 31.594,68.612 32.361,68.601Z" style="fill:rgb(166,39,0);fill-opacity:0.36;fill-rule:nonzero;"/>
    </g>
    <g transform="matrix(1,0,0,1,-15.471,-7.45757)">
        <g>
            <path d="M102.684,44.7C105.092,44.584 107.511,44.767 109.87,45.265C111.04,45.512 112.194,45.833 113.324,46.226C113.868,46.415 114.406,46.621 114.937,46.844C115.545,47.099 116.174,47.349 116.567,47.907C116.793,48.227 117.241,47.813 117.018,47.497C116.654,46.98 116.107,46.696 115.542,46.445C114.955,46.185 114.356,45.949 113.752,45.732C112.585,45.313 111.39,44.972 110.178,44.71C107.726,44.18 105.212,43.97 102.706,44.091C102.316,44.109 102.291,44.719 102.684,44.7Z" style="fill:rgb(144,60,33);fill-rule:nonzero;"/>
        </g>
        <g>
            <path d="M100.707,48.24C104.629,49.558 108.082,52.053 110.58,55.35C110.817,55.663 111.266,55.25 111.031,54.94C108.47,51.559 104.904,49.008 100.884,47.657C100.512,47.532 100.335,48.115 100.707,48.24Z" style="fill:rgb(144,60,33);fill-rule:nonzero;"/>
        </g>
        <g>
            <path d="M99.225,51.536C101.515,53.333 104.053,55.397 104.432,58.484C104.48,58.873 105.074,58.736 105.026,58.35C104.626,55.1 101.961,52.913 99.55,51.021C99.242,50.779 98.919,51.296 99.225,51.536Z" style="fill:rgb(144,60,33);fill-rule:nonzero;"/>
        </g>
    </g>
    <g transform="matrix(1,0,0,1,-15.471,-7.45757)">
        <path d="M56.598,96.663C57.612,96.596 58.553,96.02 58.986,95.102C59.486,95.424 60.165,95.384 60.645,95.016C61.228,94.57 61.366,93.824 61.299,93.126C63.479,93.703 65.721,91.916 66.918,90.255C68.248,88.409 68.818,86.075 68.47,83.827C68.422,83.516 67.949,83.648 67.997,83.957C68.313,85.995 67.786,88.111 66.632,89.811C65.502,91.474 63.229,93.399 61.084,92.571C60.896,92.499 60.748,92.708 60.782,92.873C60.899,93.433 60.879,94.119 60.441,94.547C60.07,94.91 59.437,94.97 59.074,94.571C58.945,94.429 58.717,94.511 58.664,94.679C58.362,95.645 57.347,96.191 56.371,96.178C55.253,96.163 54.259,95.493 53.485,94.742C53.259,94.522 52.911,94.868 53.138,95.089C54.054,95.976 55.271,96.751 56.598,96.663Z" style="fill:rgb(166,39,0);fill-opacity:0.36;fill-rule:nonzero;"/>
    </g>
    <g transform="matrix(1,0,0,1,-15.471,-7.45757)">
        <path d="M83.551,111.204C82.181,111.201 80.887,111.932 80.118,113.048C79.749,112.55 79.152,112.242 78.509,112.35C77.793,112.47 77.29,113.088 77.184,113.782C74.915,112.73 72.188,112.878 70.07,114.234C69.805,114.404 70.051,114.828 70.317,114.657C72.386,113.333 75.085,113.205 77.263,114.35C77.417,114.431 77.645,114.334 77.632,114.138C77.595,113.564 77.944,112.973 78.533,112.843C79.08,112.723 79.669,113.052 79.88,113.563C79.955,113.745 80.216,113.823 80.328,113.622C80.973,112.468 82.216,111.691 83.55,111.694C84.884,111.697 86.124,112.48 86.763,113.637C86.916,113.913 87.339,113.666 87.186,113.39C86.466,112.084 85.052,111.207 83.551,111.204Z" style="fill:rgb(166,39,0);fill-opacity:0.36;fill-rule:nonzero;"/>
    </g>
    <g transform="matrix(1,0,0,1,-15.471,-7.45757)">
        <path d="M74.98,135.389C75.018,136.421 74.735,137.355 73.919,138.028C73.159,138.655 72.21,139.134 71.272,139.424C69.45,139.987 67.352,139.737 66.002,138.292C65.884,138.166 65.706,138.221 65.617,138.342C64.124,140.357 61.051,140.252 59.68,138.166C59.6,138.045 59.402,137.989 59.295,138.116C58.16,139.46 56.416,140.149 54.669,140.064C52.833,139.975 51.132,139.05 49.862,137.755C49.641,137.529 49.294,137.876 49.515,138.102C50.878,139.493 52.702,140.457 54.669,140.554C56.444,140.642 58.245,139.957 59.459,138.653C60.2,139.616 61.314,140.257 62.542,140.312C63.82,140.369 65.022,139.763 65.84,138.803C67.345,140.25 69.599,140.492 71.537,139.853C72.566,139.514 73.616,138.975 74.419,138.241C75.227,137.502 75.51,136.455 75.471,135.388C75.459,135.074 74.968,135.073 74.98,135.389Z" style="fill:rgb(166,39,0);fill-opacity:0.36;fill-rule:nonzero;"/>
    </g>
    <g transform="matrix(1,0,0,1,-15.471,-7.45757)">
        <path d="M127.629,116.99C128.124,116.661 128.409,116.106 128.467,115.491C128.553,114.568 128.108,113.756 127.446,113.141C127.071,112.793 126.642,112.506 126.207,112.237C126.007,112.113 125.676,111.99 125.515,111.817C125.334,111.622 125.593,111.187 125.629,110.954C125.8,109.843 125.264,108.758 124.71,107.832C124.035,106.703 123.188,105.684 122.213,104.802C121.98,104.591 121.632,104.937 121.866,105.149C122.88,106.067 123.749,107.129 124.426,108.319C124.769,108.923 125.092,109.58 125.161,110.281C125.195,110.629 125.148,110.954 125.038,111.285C124.965,111.506 124.888,111.702 124.984,111.931C125.071,112.139 125.282,112.251 125.464,112.361C125.721,112.517 125.981,112.669 126.233,112.833C126.762,113.177 127.279,113.571 127.633,114.102C128.161,114.896 128.174,116.374 127.098,116.728C126.892,116.796 126.861,117.058 127.039,117.176C128.155,117.918 129.416,118.895 128.971,120.404C128.573,121.756 127.489,122.881 126.267,123.529C125.988,123.677 126.236,124.1 126.514,123.952C127.9,123.217 129.206,121.836 129.514,120.25C129.798,118.782 128.727,117.763 127.629,116.99Z" style="fill:rgb(166,39,0);fill-opacity:0.36;fill-rule:nonzero;"/>
    </g>
    <g transform="matrix(1,0,0,1,-15.471,-7.45757)">
        <path d="M101.479,76.862C102.504,78.786 103.431,80.985 102.858,83.198C102.363,85.106 100.443,86.704 98.42,85.949C98.226,85.877 98.092,86.086 98.119,86.25C98.214,86.85 97.968,87.573 97.382,87.839C96.855,88.078 96.137,87.841 95.934,87.282C95.868,87.1 95.588,87.02 95.486,87.223C95.063,88.067 94.349,88.833 93.387,89.02C92.526,89.188 91.523,88.766 91.196,87.92C91.083,87.629 90.609,87.755 90.723,88.05C91.112,89.056 92.174,89.635 93.237,89.534C94.302,89.433 95.169,88.703 95.715,87.817C96.125,88.329 96.836,88.563 97.48,88.326C98.243,88.045 98.595,87.263 98.597,86.494C100.608,87.035 102.576,85.582 103.221,83.695C104.052,81.264 103.045,78.755 101.904,76.613C101.754,76.336 101.331,76.583 101.479,76.862Z" style="fill:rgb(166,39,0);fill-opacity:0.36;fill-rule:nonzero;"/>
    </g>
    <g transform="matrix(1,0,0,1,-15.471,-7.45757)">
        <path d="M40.636,91.47C40.643,90.398 41.131,89.377 41.95,88.687C42.192,88.483 41.843,88.138 41.603,88.34C40.69,89.11 40.153,90.278 40.146,91.47C40.144,91.786 40.634,91.786 40.636,91.47Z" style="fill:rgb(192,85,54);fill-rule:nonzero;"/>
    </g>
    <g transform="matrix(1,0,0,1,-15.471,-7.45757)">
        <path d="M41.767,89.358C40.96,90.513 40.641,91.941 40.836,93.332C40.855,93.464 41.021,93.534 41.138,93.503C41.28,93.466 41.328,93.332 41.309,93.202C41.132,91.942 41.464,90.646 42.19,89.606C42.371,89.346 41.946,89.101 41.767,89.358Z" style="fill:rgb(192,85,54);fill-rule:nonzero;"/>
    </g>
    <g transform="matrix(1,0,0,1,-15.471,-7.45757)">
        <path d="M122.141,92.709C122.438,92.608 122.311,92.135 122.011,92.236C120.899,92.613 119.667,92.498 118.648,91.91C118.374,91.752 118.127,92.175 118.401,92.333C119.526,92.983 120.909,93.126 122.141,92.709Z" style="fill:rgb(155,61,39);fill-rule:nonzero;"/>
    </g>
    <g transform="matrix(1,0,0,1,-15.471,-7.45757)">
        <path d="M123.494,93.345C122.587,93.881 121.495,94.047 120.471,93.799C120.164,93.724 120.034,94.197 120.341,94.272C121.492,94.551 122.722,94.372 123.742,93.769C124.013,93.608 123.766,93.185 123.494,93.345Z" style="fill:rgb(155,61,39);fill-rule:nonzero;"/>
    </g>
    <g transform="matrix(1,0,0,1,-15.471,-7.45757)">
        <path d="M111.692,68.697C111.384,68.638 111.252,69.11 111.562,69.17C113.034,69.453 114.367,70.306 115.217,71.544C115.394,71.802 115.82,71.557 115.64,71.296C114.72,69.957 113.292,69.004 111.692,68.697Z" style="fill:rgb(155,61,39);fill-rule:nonzero;"/>
    </g>
    <g transform="matrix(1,0,0,1,-15.471,-7.45757)">
        <path d="M78.825,150.714C79.232,151.797 79.217,152.983 78.787,154.056C78.737,154.18 78.841,154.324 78.958,154.358C79.097,154.398 79.211,154.309 79.26,154.187C79.718,153.043 79.731,151.738 79.298,150.584C79.188,150.291 78.714,150.418 78.825,150.714Z" style="fill:rgb(192,85,54);fill-rule:nonzero;"/>
    </g>
    <g transform="matrix(1,0,0,1,-15.471,-7.45757)">
        <path d="M67.023,102.399C66.951,102.293 66.804,102.236 66.688,102.311C66.579,102.381 66.527,102.53 66.6,102.646C66.777,102.928 66.954,103.209 67.132,103.491C67.17,103.552 67.234,103.587 67.304,103.6C67.376,103.64 67.457,103.658 67.533,103.609C67.638,103.541 67.698,103.387 67.621,103.274C67.421,102.983 67.222,102.691 67.023,102.399Z" style="fill:rgb(192,85,54);fill-rule:nonzero;"/>
    </g>
    <g transform="matrix(1,0,0,1,-15.471,-7.45757)">
        <path d="M44.389,130.421C44.588,130.666 44.933,130.317 44.736,130.074C43.697,128.795 42.148,127.998 40.51,127.859C40.196,127.833 40.197,128.323 40.51,128.349C42.023,128.478 43.433,129.245 44.389,130.421Z" style="fill:rgb(192,85,54);fill-rule:nonzero;"/>
    </g>
    <defs>
        <linearGradient id="_Linear1" x1="0" y1="0" x2="1" y2="0" gradientUnits="userSpaceOnUse" gradientTransform="matrix(35.6873,35.6873,-35.6873,35.6873,27.1934,96.7589)"><stop offset="0" style="stop-color:rgb(255,239,232);stop-opacity:1"/><stop offset="0.42" style="stop-color:rgb(250,217,194);stop-opacity:1"/><stop offset="1" style="stop-color:rgb(243,184,136);stop-opacity:1"/></linearGradient>
        <linearGradient id="_Linear2" x1="0" y1="0" x2="1" y2="0" gradientUnits="userSpaceOnUse" gradientTransform="matrix(7.82534e-15,-127.797,127.797,7.82534e-15,81.8596,147.453)"><stop offset="0" style="stop-color:rgb(224,122,95);stop-opacity:1"/><stop offset="0.12" style="stop-color:rgb(224,122,95);stop-opacity:1"/><stop offset="0.48" style="stop-color:rgb(237,151,104);stop-opacity:1"/><stop offset="1" style="stop-color:rgb(255,189,115);stop-opacity:1"/></linearGradient>
        <linearGradient id="_Linear3" x1="0" y1="0" x2="1" y2="0" gradientUnits="userSpaceOnUse" gradientTransform="matrix(8.9281e-16,-14.5807,14.5807,8.9281e-16,83.7786,50.4613)"><stop offset="0" style="stop-color:rgb(255,205,0);stop-opacity:1"/><stop offset="0.16" style="stop-color:rgb(255,205,0);stop-opacity:1"/><stop offset="1" style="stop-color:rgb(255,144,0);stop-opacity:1"/></linearGradient>
        <linearGradient id="_Linear4" x1="0" y1="0" x2="1" y2="0" gradientUnits="userSpaceOnUse" gradientTransform="matrix(1.00419e-15,-16.3996,16.3996,1.00419e-15,62.9785,42.56)"><stop offset="0" style="stop-color:rgb(255,205,0);stop-opacity:1"/><stop offset="0.07" style="stop-color:rgb(255,205,0);stop-opacity:1"/><stop offset="1" style="stop-color:rgb(255,144,0);stop-opacity:1"/></linearGradient>
        <linearGradient id="_Linear6" x1="0" y1="0" x2="1" y2="0" gradientUnits="userSpaceOnUse" gradientTransform="matrix(1.6771,-7.69701,7.69701,1.6771,84.6596,47.0695)"><stop offset="0" style="stop-color:rgb(157,0,0);stop-opacity:1"/><stop offset="0.16" style="stop-color:rgb(130,4,0);stop-opacity:1"/><stop offset="0.39" style="stop-color:rgb(98,8,0);stop-opacity:1"/><stop offset="0.61" style="stop-color:rgb(75,11,0);stop-opacity:1"/><stop offset="0.82" style="stop-color:rgb(61,13,0);stop-opacity:1"/><stop offset="1" style="stop-color:rgb(56,14,0);stop-opacity:1"/></linearGradient>
        <linearGradient id="_Linear7" x1="0" y1="0" x2="1" y2="0" gradientUnits="userSpaceOnUse" gradientTransform="matrix(2.39334,-10.9842,10.9842,2.39334,80.663,54.2852)"><stop offset="0" style="stop-color:black;stop-opacity:0.32"/><stop offset="0.48" style="stop-color:rgb(129,129,0);stop-opacity:0.32"/><stop offset="0.84" style="stop-color:rgb(219,219,0);stop-opacity:0.32"/><stop offset="1" style="stop-color:rgb(255,255,0);stop-opacity:0.32"/></linearGradient>
        <linearGradient id="_Linear9" x1="0" y1="0" x2="1" y2="0" gradientUnits="userSpaceOnUse" gradientTransform="matrix(1.6771,-7.69701,7.69701,1.6771,63.8792,38.8074)"><stop offset="0" style="stop-color:rgb(157,0,0);stop-opacity:1"/><stop offset="0.16" style="stop-color:rgb(130,4,0);stop-opacity:1"/><stop offset="0.39" style="stop-color:rgb(98,8,0);stop-opacity:1"/><stop offset="0.61" style="stop-color:rgb(75,11,0);stop-opacity:1"/><stop offset="0.82" style="stop-color:rgb(61,13,0);stop-opacity:1"/><stop offset="1" style="stop-color:rgb(56,14,0);stop-opacity:1"/></linearGradient>
        <linearGradient id="_Linear10" x1="0" y1="0" x2="1" y2="0" gradientUnits="userSpaceOnUse" gradientTransform="matrix(2.39334,-10.9842,10.9842,2.39334,63.2472,47.2705)"><stop offset="0" style="stop-color:black;stop-opacity:0.32"/><stop offset="0.48" style="stop-color:rgb(129,129,0);stop-opacity:0.32"/><stop offset="0.84" style="stop-color:rgb(219,219,0);stop-opacity:0.32"/><stop offset="1" style="stop-color:rgb(255,255,0);stop-opacity:0.32"/></linearGradient>
        <linearGradient id="_Linear11" x1="0" y1="0" x2="1" y2="0" gradientUnits="userSpaceOnUse" gradientTransform="matrix(-10.8508,1.32884e-15,-1.32884e-15,-10.8508,80.1999,48.3461)"><stop offset="0" style="stop-color:rgb(225,233,252);stop-opacity:0.58"/><stop offset="0.87" style="stop-color:rgb(180,193,219);stop-opacity:0.58"/><stop offset="1" style="stop-color:rgb(180,193,219);stop-opacity:0.58"/></linearGradient>
        <linearGradient id="_Linear12" x1="0" y1="0" x2="1" y2="0" gradientUnits="userSpaceOnUse" gradientTransform="matrix(-8.44024,2.0968,-2.0968,-8.44024,65.3835,41.1169)"><stop offset="0" style="stop-color:rgb(225,233,252);stop-opacity:0.58"/><stop offset="0.87" style="stop-color:rgb(180,193,219);stop-opacity:0.58"/><stop offset="1" style="stop-color:rgb(180,193,219);stop-opacity:0.58"/></linearGradient>
        <linearGradient id="_Linear13" x1="0" y1="0" x2="1" y2="0" gradientUnits="userSpaceOnUse" gradientTransform="matrix(-10.8508,1.32884e-15,-1.32884e-15,-10.8508,80.1999,49.3482)"><stop offset="0" style="stop-color:rgb(225,233,252);stop-opacity:0.58"/><stop offset="0.87" style="stop-color:rgb(180,193,219);stop-opacity:0.58"/><stop offset="1" style="stop-color:rgb(180,193,219);stop-opacity:0.58"/></linearGradient>
        <linearGradient id="_Linear14" x1="0" y1="0" x2="1" y2="0" gradientUnits="userSpaceOnUse" gradientTransform="matrix(-10.8508,1.32884e-15,-1.32884e-15,-10.8508,80.1999,46.394)"><stop offset="0" style="stop-color:rgb(225,233,252);stop-opacity:0.58"/><stop offset="0.87" style="stop-color:rgb(180,193,219);stop-opacity:0.58"/><stop offset="1" style="stop-color:rgb(180,193,219);stop-opacity:0.58"/></linearGradient>
        <linearGradient id="_Linear15" x1="0" y1="0" x2="1" y2="0" gradientUnits="userSpaceOnUse" gradientTransform="matrix(-8.44015,2.09677,-2.09677,-8.44015,65.0717,39.8905)"><stop offset="0" style="stop-color:rgb(225,233,252);stop-opacity:0.58"/><stop offset="0.87" style="stop-color:rgb(180,193,219);stop-opacity:0.58"/><stop offset="1" style="stop-color:rgb(180,193,219);stop-opacity:0.58"/></linearGradient>
        <linearGradient id="_Linear16" x1="0" y1="0" x2="1" y2="0" gradientUnits="userSpaceOnUse" gradientTransform="matrix(-8.43995,2.09673,-2.09673,-8.43995,65.7057,42.4149)"><stop offset="0" style="stop-color:rgb(225,233,252);stop-opacity:0.58"/><stop offset="0.87" style="stop-color:rgb(180,193,219);stop-opacity:0.58"/><stop offset="1" style="stop-color:rgb(180,193,219);stop-opacity:0.58"/></linearGradient>
    </defs>
</svg>
