<?xml version="1.0" encoding="UTF-8" standalone="no"?>
<!DOCTYPE svg PUBLIC "-//W3C//DTD SVG 1.1//EN" "http://www.w3.org/Graphics/SVG/1.1/DTD/svg11.dtd">
<svg width="100%" height="100%" viewBox="0 0 148 116" version="1.1" xmlns="http://www.w3.org/2000/svg" xmlns:xlink="http://www.w3.org/1999/xlink" xml:space="preserve" xmlns:serif="http://www.serif.com/" style="fill-rule:evenodd;clip-rule:evenodd;stroke-linejoin:round;stroke-miterlimit:2;">
    <g transform="matrix(1,0,0,1,-340.526,-318.442)">
        <path d="M416.858,425.324C416.858,425.324 427.417,425.345 435.656,424.418C443.895,423.491 456.74,423.166 459.538,423.236C462.336,423.306 457.552,417.004 457.552,417.004L419.934,418.363L411.855,422.613L416.858,425.324Z" style="fill:rgb(224,122,95);fill-rule:nonzero;"/>
    </g>
    <g transform="matrix(1,0,0,1,-340.526,-318.442)">
        <path d="M416.858,425.324C416.858,425.324 427.417,425.345 435.656,424.418C443.895,423.491 456.74,423.166 459.538,423.236C462.336,423.306 457.552,417.004 457.552,417.004L419.934,418.363L411.855,422.613L416.858,425.324Z" style="fill:rgb(166,39,0);fill-opacity:0.18;fill-rule:nonzero;"/>
    </g>
    <g transform="matrix(1,0,0,1,-340.526,-318.442)">
        <path d="M416.858,425.324C416.858,425.324 427.417,425.345 435.656,424.418C443.895,423.491 456.74,423.166 459.538,423.236C462.336,423.306 457.552,417.004 457.552,417.004L419.934,418.363L411.855,422.613L416.858,425.324Z" style="fill:rgb(166,39,0);fill-opacity:0.18;fill-rule:nonzero;"/>
    </g>
    <g transform="matrix(1,0,0,1,-340.526,-318.442)">
        <path d="M469.387,343.085C471.863,345.942 474.086,348.863 480.435,347.53C483.729,346.838 488.182,346.578 486.213,334.386C484.245,322.195 476.18,316.099 466.846,319.274C457.512,322.449 451.607,332.672 451.607,332.672C451.607,332.672 450.655,331.212 448.242,333.307C445.829,335.402 446.591,339.212 446.591,339.212C445.448,338.513 443.797,339.974 443.988,344.609C444.178,349.244 446.464,352.673 450.528,357.308C454.592,361.943 460.306,370.706 465.64,377.944C470.974,385.183 471.355,386.516 469.767,386.262C468.179,386.008 464.37,381.055 464.37,381.055C464.243,378.071 460.687,376.039 460.687,376.039C460.687,376.039 460.348,375.929 455.077,368.5C449.807,361.071 438.758,355.991 431.202,358.849C423.646,361.706 418.185,374.342 418.185,374.342C414.566,373.866 415.328,379.628 415.328,379.628C411.518,375.104 409.899,377.58 411.851,382.914C413.803,388.248 410.698,387.231 410.698,387.231C408.412,386.374 408.555,391.041 408.555,391.041C406.983,388.565 406.412,393.184 406.412,393.184C403.507,383.66 400.602,387.041 400.602,387.041C400.055,384.423 398.588,383.299 397.511,382.82C396.972,382.58 396.385,382.975 396.382,383.565C396.381,383.816 396.361,384.061 396.325,384.3C395.819,387.641 392.027,389.395 388.984,387.926C368.439,378.008 360.013,374.851 361.505,382.041C363.077,389.613 371.411,397.709 371.411,397.709L368.03,399.09C346.171,395.788 337.758,392.55 341.314,401.312C344.87,410.074 358.014,424.298 358.014,424.298C357.614,424.591 357.001,424.873 356.425,425.102C355.724,425.38 355.562,426.306 356.142,426.788C357.171,427.642 358.725,428.706 360.363,428.997C363.22,429.505 394.207,428.616 399.16,428.172C404.113,427.727 403.605,426.267 405.954,427.219C408.303,428.172 409.065,426.457 409.065,426.457C411.478,427.727 413.7,425.759 413.7,425.759C418.272,426.267 428.368,421.441 428.368,421.441C428.368,421.441 437.131,420.743 443.226,422.076C449.322,423.409 465.45,424.171 468.117,422.203C470.784,420.235 471.228,415.091 470.847,413.059C470.466,411.027 466.339,408.995 466.339,408.995C470.339,408.804 472.371,407.027 473.766,407.803C474.711,408.329 474.911,416.742 474.911,416.742C473.01,418.263 472.851,419.981 472.958,420.961C473.01,421.437 473.34,421.846 473.793,422C477.926,423.405 481.688,422.718 483.563,422.184C484.259,421.986 484.651,421.256 484.419,420.57C483.045,416.496 479.532,403.068 477.386,401.566C474.846,399.788 474.021,401.629 472.624,401.502C471.227,401.375 467.608,398.454 467.608,397.248C467.608,396.042 468.116,394.518 468.116,394.518C474.148,397.947 481.196,393.756 479.863,385.946C478.826,379.873 473.367,370.7 468.18,362.833C462.402,354.07 460.878,346.705 463.291,342.895C465.704,339.085 466.911,340.228 469.387,343.085ZM460.244,409.884C460.054,411.662 456.561,413.948 453.259,414.583L446.338,411.98C446.338,411.98 448.56,407.472 448.56,403.218C448.56,403.218 452.814,407.155 456.434,407.98C460.053,408.804 460.434,408.106 460.244,409.884Z" style="fill:url(#_Linear1);fill-rule:nonzero;"/>
    </g>
    <g transform="matrix(1,0,0,1,-340.526,-318.442)">
        <path d="M399.16,428.171C404.113,427.726 403.605,426.266 405.954,427.218C408.303,428.171 409.065,426.456 409.065,426.456C411.478,427.726 413.7,425.758 413.7,425.758C418.272,426.266 428.368,421.44 428.368,421.44C428.368,421.44 437.131,420.742 443.226,422.075C447.47,423.003 458.467,423.717 463.424,423.326C454.407,423.613 418.196,419.665 414.145,410.328C409.764,400.232 411.462,388.755 411.462,388.755C409.224,395.756 411.462,406.756 411.462,406.756C408.652,402.375 408.557,391.04 408.557,391.04C407.747,396.564 409.129,406.041 409.129,406.041C405.938,398.612 406.46,392.881 406.46,392.881C405.886,396.008 406.843,402.755 408.605,407.184C410.367,411.613 410.224,425.042 406.557,423.852C402.89,422.662 402.128,429.852 394.89,425.614C387.651,421.376 379.698,423.233 374.222,425.424C368.745,427.615 359.173,429.71 356.143,426.787C357.172,427.641 358.726,428.705 360.364,428.996C363.221,429.504 394.207,428.615 399.16,428.171Z" style="fill:rgb(166,39,0);fill-opacity:0.18;fill-rule:nonzero;"/>
    </g>
    <g transform="matrix(1,0,0,1,-340.526,-318.442)">
        <path d="M469.768,386.263C468.18,386.009 464.371,381.056 464.371,381.056C464.476,383.977 461.514,384.564 461.514,384.564C466.133,387.564 462.181,388.755 462.181,388.755C463.328,397.336 459.668,404.357 453.006,398.518C446.272,392.615 442.54,388.025 442.54,388.025C444.572,395.772 424.242,401.375 424.242,401.375C426.337,401.121 427.036,402.772 427.036,402.772C426.147,397.502 431.544,405.502 431.544,405.502C431.544,405.502 441.704,410.201 446.339,411.979C446.339,411.979 448.561,407.471 448.561,403.217C448.561,403.217 452.815,407.154 456.435,407.979C460.054,408.804 460.435,408.106 460.245,409.884C460.055,411.662 456.562,413.948 453.26,414.583C453.26,414.583 460.689,417.123 461.959,416.996C463.229,416.869 462.911,414.583 462.911,414.583C460.879,413.504 461.324,411.281 461.768,409.567C462.212,407.853 463.927,407.979 466.34,408.995C470.34,408.804 472.372,407.027 473.767,407.803C474.712,408.329 474.912,416.742 474.912,416.742C473.011,418.263 472.852,419.981 472.959,420.961C473.011,421.437 473.341,421.846 473.794,422C477.927,423.405 481.689,422.718 483.564,422.184C484.26,421.986 484.652,421.256 484.42,420.57C483.046,416.496 479.533,403.068 477.387,401.566C474.847,399.788 474.022,401.629 472.625,401.502C471.228,401.375 467.609,398.454 467.609,397.248C467.609,396.042 468.117,394.518 468.117,394.518C474.149,397.947 481.197,393.756 479.864,385.946C478.827,379.873 473.368,370.7 468.181,362.833C462.403,354.07 460.879,346.705 463.292,342.895C465.705,339.085 466.911,340.228 469.388,343.085C471.864,345.942 474.087,348.863 480.436,347.53C483.73,346.838 488.183,346.578 486.214,334.386C485.111,327.553 482.091,322.638 478.008,320.194C479.33,321.365 480.97,323.361 482.182,326.656C484.563,333.133 479.134,333.609 479.134,333.609C481.753,338.038 476.61,339.657 474.276,336.8C471.943,333.943 464.561,328.895 458.418,338.467C452.275,348.039 462.085,356.849 468.419,368.469C474.753,380.089 470.943,385.185 467.781,380.911C471.032,385.542 471.111,386.478 469.768,386.263Z" style="fill:rgb(166,39,0);fill-opacity:0.18;fill-rule:nonzero;"/>
    </g>
    <g transform="matrix(1,0,0,1,-340.526,-318.442)">
        <path d="M460.244,409.884C460.054,411.662 456.561,413.948 453.259,414.583C453.259,414.583 460.688,417.123 461.958,416.996C463.228,416.869 462.91,414.583 462.91,414.583C460.878,413.504 461.323,411.281 461.767,409.567C462.085,408.339 463.064,408.066 464.476,408.378C459.055,406.094 452.973,399.439 452.973,399.439C451.83,399.503 449.957,398.518 449.957,398.518C449.957,398.518 450.275,401.153 449.671,401.248C449.068,401.343 448.242,400.01 448.242,400.01C448.242,400.01 448.591,401.344 448.559,403.217C448.559,403.217 452.813,407.154 456.433,407.979C460.053,408.804 460.434,408.106 460.244,409.884Z" style="fill:rgb(166,39,0);fill-opacity:0.18;fill-rule:nonzero;"/>
    </g>
    <g transform="matrix(1,0,0,1,-340.526,-318.442)">
        <path d="M392.28,413.181C392.28,413.181 398.684,413.514 400.935,409.466C403.186,405.418 400.179,400.663 398.947,399.465C397.715,398.267 392.28,413.181 392.28,413.181Z" style="fill:rgb(166,39,0);fill-opacity:0.3;fill-rule:nonzero;"/>
    </g>
    <g transform="matrix(1,0,0,1,-340.526,-318.442)">
        <path d="M388.041,419.333C390.438,420.181 392.279,421.086 392.279,421.086C392.279,421.086 390.017,418.038 387.306,416.949C383.452,415.4 366.849,417.597 365.69,420C364.531,422.404 363.875,422.609 362.722,423.324C361.135,424.308 360.785,425.324 360.785,425.324C360.785,425.324 363.134,424.218 363.928,424.091C363.928,424.091 366.579,421.418 367.516,421.545C368.491,421.677 368.532,421.863 368.532,421.863L370.151,419.736L381.485,417.831L387.328,418.422L388.041,419.333Z" style="fill:rgb(166,39,0);fill-opacity:0.3;fill-rule:nonzero;"/>
    </g>
    <g transform="matrix(1,0,0,1,-340.526,-318.442)">
        <path d="M389.899,414.205C389.899,414.205 388.38,413.075 386.276,411.579C384.172,410.083 380.806,404.914 384.172,399.424C387.135,394.591 393.811,395.229 395.829,396.375C397.886,397.544 398.431,396.151 398.431,396.151C398.431,396.151 398.533,398.972 399.557,400.6C400.581,402.228 394.921,412.771 393.249,412.952C391.089,413.187 389.899,414.205 389.899,414.205Z" style="fill:rgb(56,25,5);fill-rule:nonzero;"/>
    </g>
    <g transform="matrix(1,0,0,1,-340.526,-318.442)">
        <path d="M392.28,413.181C385.871,413.396 380.993,405.657 384.708,400.037C387.761,395.419 394.852,394.703 398.947,399.465C403.042,404.228 400.804,412.895 392.28,413.181Z" style="fill:url(#_Linear2);fill-rule:nonzero;"/>
    </g>
    <g transform="matrix(1,0,0,1,-340.526,-318.442)">
        <path d="M387.306,416.948C387.306,416.948 386.657,416.762 384.662,415.742C382.668,414.721 378.818,412.588 372.788,414.721C366.758,416.855 365.053,419.853 364.96,421.337C364.867,422.821 363.928,424.091 363.928,424.091L367.754,422.466L368.52,419.916L377.394,416.344L387.773,419.018C387.774,419.019 387.145,418.058 387.306,416.948Z" style="fill:rgb(56,25,5);fill-rule:nonzero;"/>
    </g>
    <g transform="matrix(1,0,0,1,-340.526,-318.442)">
        <path id="SVGID_00000183236107834318959730000013618326908348589956_" d="M388.041,419.333C388.041,419.333 384.136,413.609 376.564,414.466C368.992,415.323 363.611,421.228 366.706,422.467L367.754,422.467C367.754,422.467 376.517,416.009 388.041,419.333Z" style="fill:url(#_Linear3);fill-rule:nonzero;"/>
        <g>
            <clipPath id="_clip4">
                <path d="M388.041,419.333C388.041,419.333 384.136,413.609 376.564,414.466C368.992,415.323 363.611,421.228 366.706,422.467L367.754,422.467C367.754,422.467 376.517,416.009 388.041,419.333Z"/>
            </clipPath>
            <g clip-path="url(#_clip4)">
                <g>
                    <path d="M386.083,420.419C386.083,424.339 382.905,427.516 378.986,427.516C375.066,427.516 371.889,424.338 371.889,420.419C371.889,416.499 375.067,413.322 378.986,413.322C382.905,413.322 386.083,416.5 386.083,420.419Z" style="fill:url(#_Linear5);fill-rule:nonzero;"/>
                    <circle cx="380.201" cy="421.926" r="5.935" style="fill:url(#_Linear6);"/>
                </g>
            </g>
        </g>
        <clipPath id="_clip7">
            <path d="M388.041,419.333C388.041,419.333 384.136,413.609 376.564,414.466C368.992,415.323 363.611,421.228 366.706,422.467L367.754,422.467C367.754,422.467 376.517,416.009 388.041,419.333Z"/>
        </clipPath>
        <g clip-path="url(#_clip7)">
            <path d="M362.082,431.191C362.082,431.191 363.689,417.847 377.707,415.323C391.726,412.799 392.565,433.832 392.565,433.832C392.565,433.832 398.565,408.419 392.985,403.251C387.406,398.083 384.162,389.069 375.411,394.156C366.66,399.244 362.084,413.397 362.084,413.397L362.082,431.191Z" style="fill:rgb(131,74,44);fill-opacity:0.47;fill-rule:nonzero;"/>
        </g>
    </g>
    <g transform="matrix(1,0,0,1,-340.526,-318.442)">
        <g>
            <clipPath id="_clip8">
                <path d="M392.28,413.181C385.871,413.396 380.993,405.657 384.708,400.037C387.761,395.419 394.852,394.703 398.947,399.465C403.042,404.228 400.804,412.895 392.28,413.181Z"/>
            </clipPath>
            <g clip-path="url(#_clip8)">
                <g>
                    <path d="M396.398,400.615C399.073,403.48 398.92,407.971 396.055,410.646C393.19,413.321 388.699,413.168 386.024,410.303C383.349,407.438 383.502,402.947 386.367,400.272C389.232,397.596 393.723,397.75 396.398,400.615Z" style="fill:url(#_Linear9);fill-rule:nonzero;"/>
                    <path d="M397.147,403.304C399.249,405.819 398.915,409.562 396.4,411.665C393.885,413.767 390.142,413.433 388.04,410.918C385.938,408.403 386.272,404.66 388.787,402.558C391.302,400.454 395.045,400.789 397.147,403.304Z" style="fill:url(#_Linear10);fill-rule:nonzero;"/>
                </g>
            </g>
        </g>
        <clipPath id="_clip11">
            <path d="M392.28,413.181C385.871,413.396 380.993,405.657 384.708,400.037C387.761,395.419 394.852,394.703 398.947,399.465C403.042,404.228 400.804,412.895 392.28,413.181Z"/>
        </clipPath>
        <g clip-path="url(#_clip11)">
            <path d="M398.947,399.465C395.042,395.385 388.041,397.544 385.771,402.116C383.949,405.785 385.414,411.189 389.371,412.717C393.327,414.244 388.946,415.705 388.565,415.387C388.184,415.07 377.356,407.293 376.928,406.292C376.5,405.291 375.738,396.878 378.088,395.56C380.437,394.242 397.137,390.75 397.328,390.814C397.518,390.877 400.312,395.576 400.439,395.83C400.566,396.084 398.947,399.465 398.947,399.465Z" style="fill:rgb(131,74,44);fill-opacity:0.47;fill-rule:nonzero;"/>
        </g>
    </g>
    <g transform="matrix(1,0,0,1,-340.526,-318.442)">
        <path d="M376.058,416.212C376.331,416.739 375.475,418.231 374.615,418.376C373.755,418.522 375.159,414.477 376.058,416.212Z" style="fill:white;fill-rule:nonzero;"/>
    </g>
    <g transform="matrix(1,0,0,1,-340.526,-318.442)">
        <path d="M374.969,415.215C375.212,415.333 373.99,416.422 373.722,416.171C373.454,415.92 374.726,415.097 374.969,415.215Z" style="fill:white;fill-rule:nonzero;"/>
    </g>
    <g transform="matrix(1,0,0,1,-340.526,-318.442)">
        <path d="M388.831,400.775C389.104,401.302 388.248,402.794 387.388,402.939C386.529,403.085 387.932,399.04 388.831,400.775Z" style="fill:white;fill-rule:nonzero;"/>
    </g>
    <g transform="matrix(1,0,0,1,-340.526,-318.442)">
        <path d="M387.743,399.778C387.986,399.896 386.764,400.985 386.496,400.734C386.227,400.483 387.5,399.66 387.743,399.778Z" style="fill:white;fill-rule:nonzero;"/>
    </g>
    <g transform="matrix(1,0,0,1,-340.526,-318.442)">
        <path d="M409.783,407.185C409.783,407.185 413.7,419.853 409.224,424.71C409.224,424.71 416.248,425.758 409.783,407.185Z" style="fill:rgb(166,39,0);fill-opacity:0.18;fill-rule:nonzero;"/>
    </g>
    <g transform="matrix(1,0,0,1,-340.526,-318.442)">
        <path d="M413.613,424.329C413.613,424.329 417.32,422.905 411.51,407.759C411.51,407.759 423.049,425.472 413.613,424.329Z" style="fill:rgb(166,39,0);fill-opacity:0.18;fill-rule:nonzero;"/>
    </g>
    <g transform="matrix(1,0,0,1,-340.526,-318.442)">
        <g>
            <path d="M397.872,415.889C397.857,415.068 397.329,414.38 396.709,413.891C396.332,413.594 395.849,414.162 396.226,414.46C396.694,414.829 397.134,415.326 397.129,415.959C397.123,416.574 396.591,416.952 396.112,417.234C395.535,417.575 394.912,417.902 394.275,418.116C393.993,418.211 393.703,418.255 393.421,418.137C393.113,418.008 392.841,417.811 392.521,417.708C392.329,417.647 392.118,417.686 392.024,417.885C391.947,418.048 392.008,418.32 392.201,418.382C392.582,418.504 392.904,418.752 393.284,418.874C393.294,418.954 393.309,419.034 393.311,419.115C393.312,419.155 393.316,419.199 393.311,419.238C393.32,419.172 393.311,419.226 393.309,419.261C393.304,419.333 393.295,419.404 393.283,419.475C393.271,419.546 393.257,419.616 393.239,419.686C393.231,419.716 393.223,419.746 393.215,419.775C393.202,419.817 393.203,419.814 393.218,419.768C393.211,419.788 393.205,419.807 393.198,419.826C393.149,419.961 393.087,420.092 393.016,420.217C392.919,420.387 393.017,420.64 393.193,420.714C393.391,420.798 393.586,420.719 393.69,420.537C393.966,420.054 394.083,419.478 394.039,418.921C394.206,418.899 394.373,418.869 394.535,418.814C395.294,418.557 396.062,418.158 396.734,417.725C397.386,417.306 397.887,416.701 397.872,415.889Z" style="fill:rgb(56,25,5);fill-rule:nonzero;"/>
            <path d="M391.156,416.467C391.073,416.879 390.826,417.254 390.474,417.484C390.238,417.638 390.059,417.874 390.166,418.229C390.359,418.868 391.753,418.487 392.335,418.296C392.488,418.246 392.587,418.101 392.577,417.94C392.537,417.316 392.374,415.825 391.72,415.899C391.362,415.939 391.211,416.193 391.156,416.467Z" style="fill:rgb(94,41,11);fill-rule:nonzero;"/>
            <path d="M392.334,418.297C392.487,418.247 392.586,418.102 392.576,417.94C392.543,417.413 392.419,416.271 391.988,415.972C392.356,416.456 391.795,418.451 390.497,418.533C390.996,418.692 391.896,418.44 392.334,418.297Z" style="fill:rgb(191,54,136);fill-rule:nonzero;"/>
        </g>
        <path d="M396.016,421.615C396.016,421.615 398.348,420.497 399.178,419.58C400.008,418.664 400.379,423.108 396.016,421.615Z" style="fill:rgb(166,39,0);fill-opacity:0.18;fill-rule:nonzero;"/>
    </g>
    <g transform="matrix(1,0,0,1,-340.526,-318.442)">
        <path d="M378.812,407.487C381.202,407.413 382.781,399.044 377.923,399.313C373.065,399.581 375.755,407.582 378.812,407.487Z" style="fill:rgb(196,124,75);fill-rule:nonzero;"/>
    </g>
    <g transform="matrix(1,0,0,1,-340.526,-318.442)">
        <path d="M376.589,410.854C377.132,408.406 366.683,406.185 367.668,410.153C368.652,414.122 376.081,413.142 376.589,410.854Z" style="fill:rgb(196,124,75);fill-rule:nonzero;"/>
    </g>
    <g transform="matrix(1,0,0,1,-340.526,-318.442)">
        <path d="M359.92,414.835L362.678,406.606C362.819,406.185 362.568,405.734 362.136,405.631L349.36,402.596C348.642,402.425 348.13,403.281 348.621,403.833L358.639,415.097C359.026,415.53 359.736,415.385 359.92,414.835Z" style="fill:rgb(243,126,136);fill-opacity:0.42;fill-rule:nonzero;"/>
    </g>
    <g transform="matrix(1,0,0,1,-340.526,-318.442)">
        <path d="M379.816,394.532L383.956,393.067C384.565,392.851 384.64,392.02 384.079,391.7L371,384.214C370.871,384.14 370.736,384.3 370.83,384.415L378.981,394.3C379.183,394.545 379.516,394.638 379.816,394.532Z" style="fill:rgb(243,126,136);fill-opacity:0.42;fill-rule:nonzero;"/>
    </g>
    <g transform="matrix(1,0,0,1,-340.526,-318.442)">
        <path d="M401.319,400.772C399.906,400.195 400.033,391.803 401.129,391.708C402.224,391.613 403.224,401.549 401.319,400.772Z" style="fill:rgb(100,39,0);fill-opacity:0.18;fill-rule:nonzero;"/>
        <path d="M402.89,404.471C401.432,402.897 403.652,396.042 404.7,397.375C405.748,398.708 404.081,405.757 402.89,404.471Z" style="fill:rgb(100,39,0);fill-opacity:0.18;fill-rule:nonzero;"/>
        <path d="M403.176,407.488C402.784,406.721 405.271,403.376 405.557,403.995C405.843,404.613 403.843,408.79 403.176,407.488Z" style="fill:rgb(100,39,0);fill-opacity:0.18;fill-rule:nonzero;"/>
        <path d="M362.73,385.675C363.045,386.382 363.387,387.083 363.766,387.767C367.757,385.979 370.546,385.228 362.73,385.675Z" style="fill:rgb(100,39,0);fill-opacity:0.18;fill-rule:nonzero;"/>
        <path d="M371.094,389.385C370.819,388.585 367.516,388.987 364.699,389.341C365.418,390.488 366.182,391.574 366.933,392.559C368.658,391.59 371.44,390.39 371.094,389.385Z" style="fill:rgb(100,39,0);fill-opacity:0.18;fill-rule:nonzero;"/>
        <path d="M374.079,395.56C377.401,393.865 371.924,394.402 368.32,394.298C369.194,395.348 369.971,396.208 370.528,396.799C371.559,396.597 372.749,396.239 374.079,395.56Z" style="fill:rgb(100,39,0);fill-opacity:0.18;fill-rule:nonzero;"/>
        <path d="M362.205,401.643C362.864,404.532 364.857,401.143 366.025,398.776C364.411,398.524 362.868,398.275 361.412,398.034C361.573,398.811 361.819,399.949 362.205,401.643Z" style="fill:rgb(100,39,0);fill-opacity:0.18;fill-rule:nonzero;"/>
        <path d="M457.232,371.512C454.465,370.516 451.163,377.818 452.052,382.009C452.941,386.2 452.42,373.519 458.903,373.795C458.464,373.205 457.914,372.455 457.232,371.512C457.233,371.512 457.233,371.512 457.232,371.512Z" style="fill:rgb(100,39,0);fill-opacity:0.18;fill-rule:nonzero;"/>
        <path d="M424.94,397.502C432.687,400.042 419.924,395.788 420.178,386.517C420.432,377.253 421.065,369.665 423.665,365.142C420.282,369.507 418.188,374.343 418.188,374.343C415.606,385.628 417.193,394.962 424.94,397.502Z" style="fill:rgb(100,39,0);fill-opacity:0.18;fill-rule:nonzero;"/>
        <path d="M357.443,401.185C358.017,404.774 359.816,400.324 360.669,397.912C359.209,397.668 357.847,397.437 356.55,397.218C356.846,398.174 357.167,399.461 357.443,401.185Z" style="fill:rgb(100,39,0);fill-opacity:0.18;fill-rule:nonzero;"/>
        <path d="M441.322,383.152C443.608,387.47 439.538,376.899 443.798,368.992C447.354,362.391 449.681,363.162 450.355,363.597C449.091,362.596 447.726,361.708 446.307,360.942C439.543,360.227 439.039,378.841 441.322,383.152Z" style="fill:rgb(100,39,0);fill-opacity:0.18;fill-rule:nonzero;"/>
        <path d="M430.908,384.485C433.638,390.327 433.384,387.787 432.051,383.977C430.719,380.172 434.048,358.831 441.912,359.057C440.305,358.542 438.688,358.21 437.11,358.096C431.894,359.074 428.182,378.653 430.908,384.485Z" style="fill:rgb(100,39,0);fill-opacity:0.18;fill-rule:nonzero;"/>
        <path d="M453.386,350.07C447.29,350.387 446.592,339.212 446.592,339.212C445.449,338.513 443.798,339.974 443.989,344.609C444.034,345.714 444.207,346.748 444.486,347.749C446.4,350.39 450.911,355.923 454.783,355.403C458.245,354.938 460.888,349.861 462.215,346.692C462.259,345.816 462.401,345.013 462.643,344.293C460.725,346.589 457.326,349.865 453.386,350.07Z" style="fill:rgb(100,39,0);fill-opacity:0.18;fill-rule:nonzero;"/>
        <path d="M460.688,376.04C460.688,376.04 460.64,376.024 460.308,375.619C460.161,375.674 460.016,375.727 459.863,375.786C456.18,377.183 455.418,385.056 456.688,385.755C457.957,386.453 458.048,375.079 462.62,377.579C461.669,376.613 460.688,376.04 460.688,376.04Z" style="fill:rgb(100,39,0);fill-opacity:0.18;fill-rule:nonzero;"/>
        <path d="M467.038,370.96C464.181,372.23 460.307,369.453 456.434,365C458.22,367.495 460.108,370.207 462.007,372.891C464.532,374.521 468.208,376.47 470.023,375.405C472.174,374.142 471.089,368.893 470.367,366.21C469.641,365.067 468.909,363.937 468.182,362.833C468.123,362.743 468.071,362.657 468.013,362.567C468.511,365.56 468.929,370.12 467.038,370.96Z" style="fill:rgb(100,39,0);fill-opacity:0.18;fill-rule:nonzero;"/>
        <path d="M458.466,360.293C455.761,360.539 452.07,358.104 449.308,355.879C449.698,356.346 450.098,356.818 450.529,357.309C451.753,358.706 453.13,360.481 454.598,362.473C456.936,363.669 460.215,365.028 462.148,364.421C464.251,363.761 463.998,357.956 463.562,353.952C463.145,352.814 462.827,351.728 462.601,350.699C462.457,354.437 461.7,359.999 458.466,360.293Z" style="fill:rgb(100,39,0);fill-opacity:0.18;fill-rule:nonzero;"/>
        <path d="M411.853,382.914C412.072,383.512 412.219,384.02 412.322,384.468C412.457,384.796 412.538,385.12 412.518,385.437C412.113,391.723 416.558,394.962 417.828,395.025C419.098,395.088 411.879,392.106 415.33,379.628C411.52,375.104 409.901,377.581 411.853,382.914Z" style="fill:rgb(100,39,0);fill-opacity:0.18;fill-rule:nonzero;"/>
        <path d="M426.824,361.689C422.207,366.987 421.394,381.779 424.686,390.263C427.988,398.771 437.449,399.597 438.147,398.517C438.846,397.438 434.655,400.104 428.559,391.786C422.513,383.536 428.467,359.472 432.99,358.346C432.379,358.474 431.778,358.63 431.204,358.848C429.642,359.44 428.177,360.461 426.824,361.689Z" style="fill:rgb(100,39,0);fill-opacity:0.18;fill-rule:nonzero;"/>
        <path d="M464.477,376.35C464.866,376.888 465.255,377.421 465.641,377.945C465.92,378.323 466.177,378.676 466.429,379.022C470.852,380.207 476.474,380.373 476.515,376.886C475.506,374.861 474.341,372.758 473.091,370.646C472.737,371.829 475.783,381.764 464.477,376.35Z" style="fill:rgb(100,39,0);fill-opacity:0.18;fill-rule:nonzero;"/>
        <path d="M461.323,338.259C456.124,337.879 453.257,331.484 458.438,324.448C454.12,328.346 451.608,332.671 451.608,332.671C449.322,339.021 455.372,343.278 465.512,340.573C466.055,340.371 466.571,340.484 467.117,340.84C465.768,339.529 466.53,338.64 461.323,338.259Z" style="fill:rgb(100,39,0);fill-opacity:0.18;fill-rule:nonzero;"/>
        <path d="M468.629,318.779C458.979,322.333 464.373,334.514 467.419,335.466C470.467,336.418 464.436,330.621 468.435,324.545C472.434,318.469 478.008,320.195 478.008,320.195C475.274,318.557 472.063,318.029 468.629,318.779Z" style="fill:rgb(100,39,0);fill-opacity:0.18;fill-rule:nonzero;"/>
        <path d="M361.955,383.684C363.036,383.183 364.12,382.63 364.745,382.073C366.298,380.688 363.471,380.802 361.373,381.038C361.397,381.352 361.43,381.674 361.506,382.041C361.62,382.587 361.777,383.135 361.955,383.684Z" style="fill:rgb(100,39,0);fill-opacity:0.18;fill-rule:nonzero;"/>
        <path d="M353.061,400.771C353.927,403.044 354.779,399.489 355.233,396.996C354.156,396.815 353.134,396.648 352.178,396.497C352.374,397.878 352.6,399.56 353.061,400.771Z" style="fill:rgb(100,39,0);fill-opacity:0.18;fill-rule:nonzero;"/>
        <path d="M452.484,365.485C447.729,365.774 444.183,375.858 447.291,384.929C450.402,394.009 446.973,382.135 448.244,375.976C449.514,369.817 453.356,368.098 455.721,369.402C455.513,369.109 455.307,368.82 455.08,368.5C454.326,367.44 453.445,366.434 452.484,365.485Z" style="fill:rgb(100,39,0);fill-opacity:0.18;fill-rule:nonzero;"/>
        <path d="M350.365,396.223C349.325,396.071 348.361,395.946 347.489,395.855C347.078,402.033 348.503,401.711 350.365,396.223Z" style="fill:rgb(100,39,0);fill-opacity:0.18;fill-rule:nonzero;"/>
    </g>
    <g transform="matrix(1,0,0,1,-340.526,-318.442)">
        <path d="M462.299,411.133C462.782,411.135 463.26,411.195 463.718,411.354C464.43,411.602 465.054,412.156 465.24,412.903C465.356,413.369 466.075,413.171 465.959,412.705C465.716,411.727 464.918,411.012 463.999,410.665C463.461,410.462 462.872,410.39 462.299,410.387C462.062,410.386 461.815,410.398 461.57,410.417C461.518,410.666 461.478,410.918 461.446,411.172C461.738,411.14 462.036,411.132 462.299,411.133Z" style="fill:rgb(166,39,0);fill-opacity:0.5;fill-rule:nonzero;"/>
    </g>
    <g transform="matrix(1,0,0,1,-340.526,-318.442)">
        <path d="M479.709,418.881C479.928,418.455 479.285,418.077 479.065,418.504C478.374,419.849 478.307,421.419 478.784,422.817C479.045,422.818 479.311,422.826 479.56,422.816C479.058,421.561 479.086,420.092 479.709,418.881Z" style="fill:rgb(166,39,0);fill-opacity:0.5;fill-rule:nonzero;"/>
    </g>
    <g transform="matrix(1,0,0,1,-340.526,-318.442)">
        <path d="M475.963,418.096C476.214,417.685 475.569,417.31 475.319,417.72C474.51,419.047 474.18,420.615 474.329,422.151C474.594,422.23 474.86,422.312 475.121,422.375C474.907,420.899 475.18,419.381 475.963,418.096Z" style="fill:rgb(166,39,0);fill-opacity:0.5;fill-rule:nonzero;"/>
    </g>
    <g transform="matrix(1,0,0,1,-340.526,-318.442)">
        <g>
            <path d="M398.37,390.526C399.097,387.873 400.152,385.313 401.529,382.93C402.212,381.748 402.969,380.61 403.795,379.524C404.193,379.001 404.607,378.491 405.036,377.993C405.528,377.423 406.022,376.83 406.766,376.601C407.193,376.47 406.903,375.837 406.48,375.967C405.79,376.179 405.288,376.671 404.816,377.195C404.326,377.74 403.858,378.306 403.408,378.885C402.54,380.003 401.747,381.179 401.033,382.401C399.589,384.874 398.471,387.527 397.715,390.288C397.599,390.716 398.251,390.959 398.37,390.526Z" style="fill:rgb(144,60,33);fill-rule:nonzero;"/>
        </g>
        <g>
            <path d="M401.51,393.924C404.329,390.136 408.259,387.273 412.721,385.732C413.145,385.586 412.855,384.953 412.435,385.098C407.86,386.679 403.829,389.644 400.94,393.526C400.673,393.884 401.243,394.284 401.51,393.924Z" style="fill:rgb(144,60,33);fill-rule:nonzero;"/>
        </g>
        <g>
            <path d="M404.561,396.699C407.321,394.851 410.46,392.829 413.943,393.511C414.382,393.597 414.444,392.904 414.008,392.819C410.341,392.102 407.023,394.219 404.117,396.164C403.746,396.413 404.192,396.946 404.561,396.699Z" style="fill:rgb(144,60,33);fill-rule:nonzero;"/>
        </g>
    </g>
    <g transform="matrix(1,0,0,1,-340.526,-318.442)">
        <path d="M421.396,399.105C420.905,398.834 420.253,398.654 419.738,398.97C419.457,399.142 419.309,399.405 419.237,399.698C418.516,398.773 417.374,398.214 416.168,398.529C414.524,398.959 414.163,400.654 414.174,402.136C414.177,402.496 414.736,402.497 414.734,402.136C414.725,400.923 414.93,399.421 416.317,399.068C417.606,398.74 418.726,399.617 419.224,400.75C419.336,401.005 419.763,400.875 419.745,400.609C419.714,400.128 419.688,399.4 420.336,399.362C420.842,399.332 421.362,399.706 421.728,400.014C422.491,400.656 422.998,401.53 423.21,402.501C423.287,402.853 423.826,402.704 423.75,402.352C423.457,401.016 422.606,399.773 421.396,399.105Z" style="fill:rgb(166,39,0);fill-opacity:0.5;fill-rule:nonzero;"/>
    </g>
    <g transform="matrix(1,0,0,1,-340.526,-318.442)">
        <path d="M433.492,385.116C435.257,384.187 437.362,384.575 438.929,385.718C439.668,386.257 440.298,386.957 440.793,387.723C441.426,388.703 441.489,389.66 441.084,390.749C441.025,390.909 441.181,391.121 441.354,391.103C442.216,391.014 443.112,391.536 443.328,392.409C443.532,393.232 443.035,394.141 442.26,394.457C442.004,394.561 441.987,394.897 442.26,394.996C443.208,395.34 443.909,396.265 443.927,397.283C443.945,398.298 443.27,399.253 442.336,399.624C442.005,399.755 442.15,400.297 442.485,400.164C443.653,399.7 444.506,398.566 444.487,397.283C444.471,396.184 443.806,395.235 442.875,394.708C443.615,394.189 444.069,393.305 443.893,392.38C443.697,391.349 442.742,390.605 441.722,390.541C442.003,389.568 441.965,388.611 441.435,387.698C440.904,386.782 440.174,385.96 439.33,385.322C437.578,383.998 435.199,383.585 433.21,384.632C432.891,384.801 433.174,385.284 433.492,385.116Z" style="fill:rgb(166,39,0);fill-opacity:0.5;fill-rule:nonzero;"/>
    </g>
    <g transform="matrix(1,0,0,1,-340.526,-318.442)">
        <path d="M464.845,394.274C465.975,394.269 466.981,393.407 467.195,392.298C467.379,391.342 466.978,390.42 466.309,389.757C466.971,389.502 467.4,388.79 467.368,388.05C467.345,387.517 467.137,387.015 466.827,386.586C466.673,386.373 466.499,386.176 466.312,385.992C466.182,385.864 465.697,385.553 465.683,385.363C465.657,385.006 465.097,385.003 465.123,385.363C465.15,385.737 465.387,385.904 465.653,386.142C465.989,386.443 466.317,386.77 466.538,387.167C466.975,387.949 466.876,389.37 465.688,389.298C465.392,389.28 465.333,389.676 465.547,389.819C466.288,390.317 466.804,391.213 466.658,392.123C466.517,393.002 465.74,393.71 464.845,393.713C464.485,393.716 464.484,394.275 464.845,394.274Z" style="fill:rgb(166,39,0);fill-opacity:0.5;fill-rule:nonzero;"/>
    </g>
    <g transform="matrix(1,0,0,1,-340.526,-318.442)">
        <path d="M466.394,338.521C467.314,338.989 468.363,338.77 469.312,338.401C469.153,339.015 469.343,339.735 469.824,340.185C470.673,340.978 471.962,340.654 472.775,339.956C473.406,341.923 475.575,343.196 477.613,342.914C480.033,342.579 481.756,340.35 482.047,338.023C482.092,337.667 481.532,337.67 481.487,338.023C481.232,340.061 479.686,342.029 477.587,342.356C475.634,342.661 473.538,341.319 473.176,339.35C473.14,339.152 472.838,339.069 472.708,339.226C472.172,339.879 471.128,340.407 470.328,339.873C469.728,339.472 469.581,338.394 470.245,337.989C470.556,337.799 470.284,337.352 469.962,337.506C469.016,337.959 467.712,338.547 466.676,338.037C465.606,337.51 465.549,336.131 465.524,335.094C465.516,334.734 464.956,334.733 464.964,335.094C464.994,336.346 465.135,337.88 466.394,338.521Z" style="fill:rgb(166,39,0);fill-opacity:0.5;fill-rule:nonzero;"/>
    </g>
    <g transform="matrix(1,0,0,1,-340.526,-318.442)">
        <path d="M428.456,358.953C428.56,358.607 428.02,358.46 427.917,358.804C427.514,360.149 427.556,361.61 428.045,362.927C428.169,363.262 428.71,363.117 428.585,362.778C428.127,361.548 428.079,360.211 428.456,358.953Z" style="fill:rgb(195,86,51);fill-rule:nonzero;"/>
    </g>
    <g transform="matrix(1,0,0,1,-340.526,-318.442)">
        <path d="M425.87,360.375C425.972,360.029 425.432,359.881 425.33,360.226C424.855,361.837 425.473,363.626 426.801,364.636C426.922,364.728 427.113,364.654 427.184,364.536C427.27,364.393 427.203,364.244 427.084,364.153C425.956,363.295 425.472,361.725 425.87,360.375Z" style="fill:rgb(195,86,51);fill-rule:nonzero;"/>
    </g>
    <g transform="matrix(1,0,0,1,-340.526,-318.442)">
        <path d="M459.029,326.202C458.355,325.452 458.152,324.359 458.477,323.411C458.594,323.07 458.054,322.923 457.938,323.262C457.546,324.402 457.831,325.706 458.633,326.598C458.875,326.866 459.27,326.469 459.029,326.202Z" style="fill:rgb(195,86,51);fill-rule:nonzero;"/>
    </g>
    <g transform="matrix(1,0,0,1,-340.526,-318.442)">
        <path d="M484.193,343.135C484.044,343.109 483.891,343.175 483.849,343.33C483.812,343.465 483.895,343.648 484.044,343.674C485.374,343.908 486.439,345.265 486.248,346.628C486.227,346.777 486.284,346.928 486.443,346.972C486.574,347.008 486.766,346.927 486.787,346.777C487.017,345.132 485.853,343.427 484.193,343.135Z" style="fill:rgb(195,86,51);fill-rule:nonzero;"/>
    </g>
    <g transform="matrix(1,0,0,1,-340.526,-318.442)">
        <path d="M485.306,341.713C484.96,341.612 484.812,342.152 485.157,342.253C486.306,342.588 487.276,343.482 487.687,344.61C487.739,344.752 487.877,344.848 488.031,344.805C488.168,344.767 488.278,344.603 488.226,344.461C487.747,343.146 486.653,342.106 485.306,341.713Z" style="fill:rgb(195,86,51);fill-rule:nonzero;"/>
    </g>
    <g transform="matrix(1,0,0,1,-340.526,-318.442)">
        <path d="M473.882,371.306C474.22,372.491 473.836,373.804 472.923,374.629C472.655,374.871 473.052,375.266 473.319,375.025C474.375,374.071 474.811,372.525 474.422,371.158C474.323,370.812 473.783,370.959 473.882,371.306Z" style="fill:rgb(195,86,51);fill-rule:nonzero;"/>
    </g>
    <g transform="matrix(1,0,0,1,-340.526,-318.442)">
        <path d="M459.247,376.929C459.271,375.855 459.639,374.79 460.302,373.942C460.395,373.823 460.418,373.662 460.302,373.546C460.205,373.449 460,373.426 459.906,373.546C459.148,374.516 458.715,375.695 458.687,376.929C458.679,377.289 459.239,377.289 459.247,376.929Z" style="fill:rgb(195,86,51);fill-rule:nonzero;"/>
    </g>
    <g transform="matrix(1,0,0,1,-340.526,-318.442)">
        <path d="M434.482,409.006C434.849,407.55 434.631,405.989 433.876,404.691C433.695,404.38 433.211,404.661 433.393,404.973C434.073,406.142 434.273,407.545 433.942,408.857C433.855,409.207 434.394,409.356 434.482,409.006Z" style="fill:rgb(195,86,51);fill-rule:nonzero;"/>
    </g>
    <g transform="matrix(1,0,0,1,-340.526,-318.442)">
        <path d="M435.193,405.777C435.049,405.861 435.033,406.02 435.093,406.16C435.388,406.849 435.431,407.636 435.24,408.357C435.148,408.705 435.687,408.854 435.78,408.506C436.013,407.628 435.933,406.71 435.577,405.878C435.516,405.739 435.312,405.708 435.193,405.777Z" style="fill:rgb(195,86,51);fill-rule:nonzero;"/>
    </g>
    <defs>
        <linearGradient id="_Linear1" x1="0" y1="0" x2="1" y2="0" gradientUnits="userSpaceOnUse" gradientTransform="matrix(33.3341,66.6695,-66.6695,33.3341,408.243,355.446)"><stop offset="0" style="stop-color:rgb(255,189,115);stop-opacity:1"/><stop offset="0.59" style="stop-color:rgb(237,151,104);stop-opacity:1"/><stop offset="1" style="stop-color:rgb(224,122,95);stop-opacity:1"/></linearGradient>
        <linearGradient id="_Linear2" x1="0" y1="0" x2="1" y2="0" gradientUnits="userSpaceOnUse" gradientTransform="matrix(11.9677,11.9678,-11.9678,11.9677,385.769,398.263)"><stop offset="0" style="stop-color:rgb(255,144,0);stop-opacity:1"/><stop offset="0.44" style="stop-color:rgb(255,172,0);stop-opacity:1"/><stop offset="1" style="stop-color:rgb(255,205,0);stop-opacity:1"/></linearGradient>
        <linearGradient id="_Linear3" x1="0" y1="0" x2="1" y2="0" gradientUnits="userSpaceOnUse" gradientTransform="matrix(1.3909,5.2646,-5.2646,1.3909,375.397,414.591)"><stop offset="0" style="stop-color:rgb(255,144,0);stop-opacity:1"/><stop offset="0.24" style="stop-color:rgb(255,153,0);stop-opacity:1"/><stop offset="0.65" style="stop-color:rgb(255,178,0);stop-opacity:1"/><stop offset="1" style="stop-color:rgb(255,205,0);stop-opacity:1"/></linearGradient>
        <linearGradient id="_Linear5" x1="0" y1="0" x2="1" y2="0" gradientUnits="userSpaceOnUse" gradientTransform="matrix(8.69162e-16,-14.1945,14.1945,8.69162e-16,378.986,427.517)"><stop offset="0" style="stop-color:rgb(157,0,0);stop-opacity:1"/><stop offset="0.16" style="stop-color:rgb(130,4,0);stop-opacity:1"/><stop offset="0.39" style="stop-color:rgb(98,8,0);stop-opacity:1"/><stop offset="0.61" style="stop-color:rgb(75,11,0);stop-opacity:1"/><stop offset="0.82" style="stop-color:rgb(61,13,0);stop-opacity:1"/><stop offset="1" style="stop-color:rgb(56,14,0);stop-opacity:1"/></linearGradient>
        <linearGradient id="_Linear6" x1="0" y1="0" x2="1" y2="0" gradientUnits="userSpaceOnUse" gradientTransform="matrix(0.651685,-11.8526,11.8526,0.651685,379.875,427.853)"><stop offset="0" style="stop-color:black;stop-opacity:0.18"/><stop offset="0.48" style="stop-color:rgb(129,129,0);stop-opacity:0.18"/><stop offset="0.84" style="stop-color:rgb(219,219,0);stop-opacity:0.18"/><stop offset="1" style="stop-color:rgb(255,255,0);stop-opacity:0.18"/></linearGradient>
        <linearGradient id="_Linear9" x1="0" y1="0" x2="1" y2="0" gradientUnits="userSpaceOnUse" gradientTransform="matrix(-9.68761,-10.3746,10.3746,-9.68761,396.055,410.646)"><stop offset="0" style="stop-color:rgb(157,0,0);stop-opacity:1"/><stop offset="0.16" style="stop-color:rgb(130,4,0);stop-opacity:1"/><stop offset="0.39" style="stop-color:rgb(98,8,0);stop-opacity:1"/><stop offset="0.61" style="stop-color:rgb(75,11,0);stop-opacity:1"/><stop offset="0.82" style="stop-color:rgb(61,13,0);stop-opacity:1"/><stop offset="1" style="stop-color:rgb(56,14,0);stop-opacity:1"/></linearGradient>
        <linearGradient id="_Linear10" x1="0" y1="0" x2="1" y2="0" gradientUnits="userSpaceOnUse" gradientTransform="matrix(-7.6138,-9.10712,9.10712,-7.6138,396.401,411.664)"><stop offset="0" style="stop-color:black;stop-opacity:0.18"/><stop offset="0.48" style="stop-color:rgb(129,129,0);stop-opacity:0.18"/><stop offset="0.84" style="stop-color:rgb(219,219,0);stop-opacity:0.18"/><stop offset="1" style="stop-color:rgb(255,255,0);stop-opacity:0.18"/></linearGradient>
    </defs>
</svg>
