<?xml version="1.0" encoding="UTF-8" standalone="no"?>
<!DOCTYPE svg PUBLIC "-//W3C//DTD SVG 1.1//EN" "http://www.w3.org/Graphics/SVG/1.1/DTD/svg11.dtd">
<svg width="100%" height="100%" viewBox="0 0 150 157" version="1.1" xmlns="http://www.w3.org/2000/svg" xmlns:xlink="http://www.w3.org/1999/xlink" xml:space="preserve" xmlns:serif="http://www.serif.com/" style="fill-rule:evenodd;clip-rule:evenodd;stroke-linejoin:round;stroke-miterlimit:2;">
    <g transform="matrix(1,0,0,1,-377.696,-277.758)">
        <path d="M441.899,345.468C439.132,342.967 436.699,336.348 439.205,328.34C441.711,320.332 445.987,318.546 445.987,318.546C445.987,318.546 449.414,311.59 453.327,313.741C457.241,315.893 455.991,325.435 454.21,326.963C454.21,326.963 458.107,324.636 459.041,328.626C459.967,332.583 456.702,336.436 454.405,336.592C454.405,336.592 457.211,342.406 453.282,346.304C449.353,350.203 445.181,347.65 444.643,346.22C444.644,346.22 443.162,346.609 441.899,345.468Z" style="fill:rgb(255,174,184);fill-rule:nonzero;"/>
    </g>
    <g transform="matrix(1,0,0,1,-377.696,-277.758)">
        <path d="M417.983,309.944C417.983,309.944 420.803,300.965 425.364,294.636C426.078,293.645 427.622,293.954 427.885,295.147C428.778,299.204 430.094,307.026 428.936,314.077C427.282,324.149 417.983,309.944 417.983,309.944Z" style="fill:url(#_Linear1);fill-rule:nonzero;"/>
    </g>
    <g transform="matrix(1,0,0,1,-377.696,-277.758)">
        <path d="M411.715,317.101C415.66,316.214 427.118,314.393 436.837,320.281C437.892,320.92 439.223,320.862 440.207,320.12C442.207,318.612 445.434,316.402 446.446,317.009C448.791,318.416 447.949,327.681 448.024,329.71C448.099,331.739 450.504,334.445 453.586,336.248C456.667,338.052 457.719,339.329 456.066,342.26C456.066,342.26 470.496,337.751 481.318,339.479C492.14,341.208 493.568,338.201 492.516,333.091C491.464,327.98 487.556,318.736 484.474,309.417C481.393,300.098 483.873,289.05 491.914,282.136C499.956,275.222 512.882,277.101 515.889,283.564C518.895,290.027 515.062,296.416 515.062,296.416C515.062,296.416 519.496,300.023 517.542,305.435C517.542,305.435 525.133,306.337 526.786,320.917C528.439,335.497 517.467,342.261 517.467,342.261C517.467,342.261 519.872,342.637 520.022,345.643C520.172,348.649 515.137,350.829 513.559,350.678C513.559,350.678 516.715,356.465 511.004,357.066C511.004,357.066 517.993,366.911 513.409,379.387C513.409,379.387 517.317,382.168 511.154,388.556C511.154,388.556 512.056,390.66 510.553,392.314C510.553,392.314 508.864,398.436 515.02,399.377C515.418,399.438 515.765,399.674 515.932,400.04C517.087,402.577 521.635,412.685 522.879,417.266C522.879,417.266 522.729,418.769 520.925,419.295C519.121,419.821 516.04,417.491 515.213,416.289C514.386,415.087 510.553,405.692 509.05,404.189C507.547,402.686 506.57,404.339 501.61,404.49C496.65,404.64 488.984,397.801 488.984,397.801C488.984,397.801 484.475,402.836 481.393,405.166C481.393,405.166 480.822,408.089 482.784,409.365C483.081,409.558 483.233,409.906 483.238,410.26C483.269,412.472 483.066,419.755 479.31,424.566C479.195,424.713 479.053,424.827 478.885,424.906C477.853,425.391 473.901,427.035 471.268,425.174C470.966,424.961 470.807,424.591 470.826,424.222C470.871,423.304 471.401,421.665 474.512,421.216C474.512,421.216 475.757,417.34 475.156,414.71C474.555,412.08 472.15,412.681 469.745,410.351C469.745,410.351 464.259,414.409 460.501,411.027C460.501,411.027 459.299,418.167 451.107,410.576C451.107,410.576 446.973,415.236 442.915,417.039C438.857,418.843 438.481,424.479 434.648,423.427C434.648,423.427 432.619,430.792 427.583,433.949C427.583,433.949 423.157,434.933 420.476,433.842C419.947,433.627 419.66,433.029 419.825,432.482C420.106,431.55 420.961,430.187 423.525,429.665C423.525,429.665 427.508,421.398 426.681,405.766C426.681,405.766 423.449,404.864 422.172,402.835C422.172,402.835 422.473,407.194 418.039,411.403C413.605,415.612 417.588,417.265 413.605,420.948C413.605,420.948 411.952,427.937 408.194,431.244C408.194,431.244 402.919,433.11 400.761,431.484C400.434,431.238 400.29,430.813 400.36,430.41C400.513,429.53 401.069,427.928 403.084,427.185C403.084,427.185 404.737,418.693 403.084,405.465C401.43,392.238 397.522,384.572 399.326,380.513C399.326,380.513 396.696,379.16 396.545,374.726C396.395,370.292 402.407,365.632 401.806,360.071C401.205,354.51 399.551,352.931 397.597,352.255C395.643,351.579 388.203,346.167 391.434,341.884C391.434,341.884 387.526,340.606 389.856,337.149C389.856,337.149 388.654,333.091 389.856,331.362C390.994,329.726 394.017,330.985 398.861,323.925C399.396,323.145 399.721,322.236 399.81,321.294C400.05,318.747 400.729,313.423 402.257,312.723C403.578,312.118 407.276,314.937 409.162,316.491C409.875,317.082 410.81,317.305 411.715,317.101Z" style="fill:url(#_Linear2);fill-rule:nonzero;"/>
    </g>
    <g transform="matrix(1,0,0,1,-377.696,-277.758)">
        <path d="M475.156,414.711C475.757,417.341 474.512,421.217 474.512,421.217C471.402,421.666 470.871,423.304 470.826,424.223C470.808,424.592 470.967,424.961 471.268,425.175C473.9,427.036 477.853,425.392 478.885,424.907C479.053,424.828 479.196,424.714 479.31,424.567C483.066,419.755 483.269,412.473 483.238,410.261C483.233,409.906 483.081,409.559 482.784,409.366C480.822,408.09 481.393,405.167 481.393,405.167C478.988,408.023 472.074,410.203 469.744,410.353C472.15,412.682 474.555,412.08 475.156,414.711Z" style="fill:rgb(180,174,189);fill-opacity:0.69;fill-rule:nonzero;"/>
    </g>
    <g transform="matrix(1,0,0,1,-377.696,-277.758)">
        <path d="M455.089,390.887C455.089,390.887 459.269,390.361 453.534,382.845C453.534,382.845 473.427,382.394 473.878,365.033L475.607,368.189L477.862,365.033C477.862,365.033 472.676,378.636 488.985,397.801C488.985,397.801 496.651,404.64 501.611,404.49C506.571,404.34 507.548,402.686 509.051,404.189C510.554,405.692 514.387,415.086 515.214,416.289C516.041,417.491 519.122,419.821 520.926,419.295C522.73,418.769 522.88,417.266 522.88,417.266C521.637,412.685 517.088,402.577 515.933,400.04C515.766,399.674 515.419,399.438 515.021,399.377C508.865,398.436 510.554,392.314 510.554,392.314C512.057,390.661 511.155,388.556 511.155,388.556C517.318,382.168 513.41,379.387 513.41,379.387C516.889,369.92 513.705,361.973 511.966,358.688C511.579,358.096 511.249,357.548 511.005,357.066C507.698,350.527 498.078,345.116 498.078,345.116C498.078,345.116 514.462,344.869 516.416,328.834C518.37,312.799 498.379,300.774 491.464,301.075C484.555,301.375 483.784,307.076 485.965,313.76C488.707,321.521 491.628,328.779 492.516,333.092C493.568,338.203 492.14,341.209 481.318,339.48C470.496,337.751 456.066,342.261 456.066,342.261C456.066,342.261 456.112,345.074 453.135,346.061C453.135,346.061 453.924,351.58 448.814,351.429C448.814,351.429 447.01,358.794 437.353,357.892C437.353,357.892 429.036,377.933 442.864,378.434C442.864,378.434 438.054,386.651 445.469,385.549C445.469,385.549 445.068,389.457 438.655,389.257C438.655,389.257 439.457,390.96 437.252,390.56C437.252,390.56 437.252,395.37 431.64,398.075C426.028,400.781 426.68,405.766 426.68,405.766C427.507,421.398 423.524,429.665 423.524,429.665C425.855,429.241 427.286,432.023 427.93,433.705C432.706,430.434 434.647,423.427 434.647,423.427C438.48,424.479 438.856,418.843 442.914,417.039C446.972,415.235 451.106,410.576 451.106,410.576C456.668,405.091 456.592,395.02 455.089,390.887Z" style="fill:rgb(180,174,189);fill-opacity:0.8;fill-rule:nonzero;"/>
    </g>
    <g transform="matrix(1,0,0,1,-377.696,-277.758)">
        <path d="M408.193,431.245C411.951,427.938 413.604,420.949 413.604,420.949C417.587,417.267 413.604,415.613 418.038,411.404C422.472,407.195 422.171,402.836 422.171,402.836L421.419,401.483C421.419,401.483 405.987,400.281 404.484,386.151C404.484,386.151 400.175,386.953 400.776,381.842C400.776,381.842 399.649,381.967 399.323,380.514C397.519,384.572 401.427,392.238 403.081,405.466C404.735,418.693 403.081,427.186 403.081,427.186C403.081,427.186 407.441,427.036 408.193,431.245Z" style="fill:rgb(180,174,189);fill-opacity:0.8;fill-rule:nonzero;"/>
    </g>
    <g transform="matrix(1,0,0,1,-377.696,-277.758)">
        <path d="M451.633,343.177C451.633,343.177 452.54,346.392 445.769,350.83C439.01,355.257 428.403,351.439 425.305,345.755C423.523,342.486 422.873,340.896 421.843,339.185C421.834,339.17 421.822,339.157 421.812,339.143C420.669,337.617 418.499,337.267 416.941,338.366C415.343,339.493 414.521,341.19 413.527,342.298C412.113,343.874 407.737,349.628 401.273,347.627C394.809,345.614 393.314,338.208 393.314,338.208C393.314,338.208 389.381,337.702 389.323,333.816C389.299,332.898 389.429,331.979 389.853,331.367C390.995,329.73 394.009,330.99 398.86,323.926C399.39,323.149 399.719,322.242 399.814,321.289C400.05,318.746 400.732,313.424 402.251,312.729C403.57,312.117 407.267,314.931 409.151,316.485C409.869,317.085 410.811,317.309 411.718,317.097C415.674,316.214 427.119,314.401 436.833,320.276C437.893,320.924 439.223,320.865 440.212,320.111C442.214,318.604 445.44,316.402 446.44,317.014C448.795,318.415 447.947,327.682 448.03,329.707C448.101,331.744 450.503,334.44 453.588,336.253C455.79,337.536 456.932,338.573 456.814,340.127C456.508,342.317 451.633,343.177 451.633,343.177Z" style="fill:rgb(180,174,189);fill-opacity:0.8;fill-rule:nonzero;"/>
    </g>
    <g transform="matrix(1,0,0,1,-377.696,-277.758)">
        <path d="M423.352,340.067C423.352,340.067 423.705,340.222 424.818,336.476C425.93,332.73 428.749,329.662 432.812,329.388C436.876,329.115 439.997,331.647 441.046,334.984C442.094,338.321 443.292,338.314 443.292,338.314C443.292,338.314 441.633,338.851 439.987,341.897C438.341,344.943 426.786,343.884 426.197,342.378C425.608,340.872 423.352,340.067 423.352,340.067Z" style="fill:rgb(28,10,1);fill-rule:nonzero;"/>
        <path d="M415.364,339.082C415.364,339.082 414.988,339.145 415.043,335.256C415.098,331.368 413.357,327.713 409.63,326.447C405.903,325.181 402.236,326.854 400.277,329.813C398.317,332.773 397.69,332.721 397.69,332.721C397.69,332.721 398.594,333.398 399.244,336.742C399.894,340.086 411.242,341.944 412.235,340.638C413.228,339.331 415.364,339.082 415.364,339.082Z" style="fill:rgb(28,10,1);fill-rule:nonzero;"/>
        <path d="M399.243,336.742C399.243,336.742 399.626,341.979 404.661,343.62C409.696,345.261 412.896,339.753 412.896,339.753L399.243,336.742Z" style="fill:rgb(89,39,116);fill-opacity:0.29;fill-rule:nonzero;"/>
        <path d="M425.466,341.49C427.324,346.184 430.229,347.144 432.877,347.378C435.526,347.612 439.604,345.331 440.752,340.734C441.9,336.137 425.466,341.49 425.466,341.49Z" style="fill:rgb(89,39,116);fill-opacity:0.29;fill-rule:nonzero;"/>
        <path d="M433.416,329.892C441.62,330.148 443.741,341.547 437.361,345.036C430.981,348.525 423.904,344.484 425.247,337.327C426.303,331.703 430.855,329.812 433.416,329.892Z" style="fill:url(#_Linear3);fill-rule:nonzero;"/>
        <path d="M408.535,326.863C414.583,327.569 416.134,336.712 411.926,340.971C407.719,345.23 400.018,341.76 399.253,337.088C398.488,332.416 401.313,326.021 408.535,326.863Z" style="fill:url(#_Linear4);fill-rule:nonzero;"/>
        <g>
            <g>
                <clipPath id="_clip5">
                    <path d="M433.416,329.892C441.62,330.148 443.741,341.547 437.361,345.036C430.981,348.525 423.904,344.484 425.247,337.327C426.303,331.703 430.855,329.812 433.416,329.892Z"/>
                </clipPath>
                <g clip-path="url(#_clip5)">
                    <g>
                        <g>
                            <path d="M439.758,339.131C439.073,342.651 435.548,344.997 431.885,344.371C428.222,343.745 425.808,340.385 426.493,336.866C427.178,333.346 430.703,331 434.366,331.625C438.029,332.251 440.443,335.611 439.758,339.131Z" style="fill:url(#_Linear6);fill-rule:nonzero;"/>
                            <path d="M435.65,343.861C435.077,346.804 432.129,348.766 429.066,348.243C426.003,347.72 423.984,344.91 424.557,341.967C425.13,339.024 428.078,337.062 431.141,337.585C434.203,338.107 436.222,340.917 435.65,343.861Z" style="fill:url(#_Linear7);fill-rule:nonzero;"/>
                        </g>
                    </g>
                    <path d="M425.012,340.966C425.012,340.966 424.883,330.021 434.095,330.989C443.434,331.97 440.776,343.657 440.776,343.657C440.776,343.657 448.606,329.16 445.705,323.341C442.804,317.523 442.005,308.833 435.505,311.358C429.004,313.883 423.907,325.352 423.907,325.352L425.012,340.966Z" style="fill:rgb(131,74,44);fill-opacity:0.47;fill-rule:nonzero;"/>
                    <path d="M436.878,334.797C437.827,334.745 439.428,336.881 439.066,338.178C438.704,339.475 433.752,334.969 436.878,334.797Z" style="fill:white;fill-rule:nonzero;"/>
                    <path d="M435.185,335.556C435.519,335.29 436.289,337.686 435.744,337.905C435.2,338.123 434.851,335.822 435.185,335.556Z" style="fill:white;fill-rule:nonzero;"/>
                </g>
            </g>
        </g>
        <g>
            <g>
                <clipPath id="_clip8">
                    <path d="M408.535,326.863C414.583,327.569 416.134,336.712 411.926,340.971C407.719,345.23 400.018,341.76 399.253,337.088C398.488,332.416 401.313,326.021 408.535,326.863Z"/>
                </clipPath>
                <g clip-path="url(#_clip8)">
                    <g>
                        <g>
                            <path d="M413.493,334.622C413.386,338.199 410.407,341.066 406.84,341.025C403.273,340.984 400.468,338.05 400.576,334.473C400.683,330.896 403.662,328.029 407.229,328.07C410.796,328.111 413.601,331.044 413.493,334.622Z" style="fill:url(#_Linear9);fill-rule:nonzero;"/>
                            <path d="M413.117,340.452C413.027,343.444 410.536,345.841 407.553,345.806C404.57,345.771 402.225,343.318 402.314,340.326C402.404,337.334 404.895,334.937 407.878,334.972C410.861,335.007 413.206,337.461 413.117,340.452Z" style="fill:url(#_Linear10);fill-rule:nonzero;"/>
                        </g>
                    </g>
                    <path d="M399.028,338.888C399.028,338.888 397.833,327.96 406.895,327.681C416.127,327.396 414.577,339.792 414.577,339.792C414.577,339.792 420.343,323.403 416.699,318.122C413.054,312.841 410.961,304.401 405.19,307.911C399.419,311.421 396.354,323.528 396.354,323.528L399.028,338.888Z" style="fill:rgb(131,74,44);fill-opacity:0.47;fill-rule:nonzero;"/>
                    <path d="M410.097,330.802C410.988,330.601 412.834,332.456 412.691,333.791C412.547,335.127 407.162,331.462 410.097,330.802Z" style="fill:white;fill-rule:nonzero;"/>
                    <path d="M408.61,331.816C408.886,331.501 409.984,333.742 409.501,334.043C409.019,334.345 408.334,332.131 408.61,331.816Z" style="fill:white;fill-rule:nonzero;"/>
                </g>
            </g>
        </g>
        <path d="M419.666,346.193C419.666,346.193 418.94,347.543 417.694,347.463C416.448,347.383 416.301,345.48 416.301,345.48L417.124,344.992L418.506,342.644L419.014,344.758L419.463,345.505L419.666,346.193Z" style="fill:rgb(243,126,136);fill-rule:nonzero;"/>
        <g>
            <path d="M415.751,344.77C416.568,345.521 417.336,344.258 417.61,343.593C417.992,342.667 418.181,341.651 418.43,340.683C418.443,340.633 418.482,340.612 418.509,340.577C418.569,340.463 418.677,340.408 418.803,340.434C418.931,340.445 419.019,340.528 419.044,340.655C419.06,340.696 419.092,340.727 419.09,340.779C419.053,341.778 418.945,342.805 419.047,343.802C419.121,344.518 419.496,345.947 420.494,345.46C420.866,345.278 421.104,345.875 420.735,346.055C420.216,346.309 419.598,346.236 419.187,345.819C418.798,345.425 418.591,344.873 418.481,344.34C418.412,344.005 418.391,343.664 418.384,343.322C418.28,343.648 418.163,343.969 418.001,344.27C417.743,344.75 417.388,345.219 416.902,345.486C416.389,345.768 415.776,345.662 415.351,345.27C415.048,344.994 415.445,344.49 415.751,344.77Z" style="fill:rgb(28,10,1);fill-rule:nonzero;"/>
            <g>
                <path d="M419.481,339.572C419.129,339.656 418.747,339.599 418.441,339.407C418.236,339.278 417.986,339.224 417.748,339.435C417.319,339.817 418.12,340.767 418.478,341.153C418.573,341.255 418.721,341.279 418.844,341.213C419.317,340.957 420.422,340.291 420.128,339.807C419.968,339.542 419.715,339.516 419.481,339.572Z" style="fill:rgb(249,212,185);fill-rule:nonzero;"/>
                <path d="M419.481,339.572C419.129,339.656 418.747,339.599 418.441,339.407C418.236,339.278 417.986,339.224 417.748,339.435C417.319,339.817 418.12,340.767 418.478,341.153C418.573,341.255 418.721,341.279 418.844,341.213C419.317,340.957 420.422,340.291 420.128,339.807C419.968,339.542 419.715,339.516 419.481,339.572Z" style="fill:rgb(243,184,136);fill-rule:nonzero;"/>
                <path d="M418.478,341.152C418.573,341.254 418.721,341.278 418.844,341.212C419.243,340.996 420.091,340.487 420.168,340.043C418.88,340.835 418.162,340.788 417.63,339.803C417.686,340.25 418.207,340.862 418.478,341.152Z" style="fill:rgb(243,184,136);fill-rule:nonzero;"/>
            </g>
            <path d="M415.402,349.501C415.402,349.501 417.117,350.918 418.132,351.235C419.148,351.552 415.812,353.446 415.402,349.501Z" style="fill:rgb(89,39,116);fill-opacity:0.17;fill-rule:nonzero;"/>
        </g>
    </g>
    <g transform="matrix(1,0,0,1,-377.696,-277.758)">
        <path d="M420.681,330.462C419.43,328.176 424.764,324.227 427.094,326.294C429.424,328.36 423.086,334.858 420.681,330.462Z" style="fill:rgb(225,233,252);fill-rule:nonzero;"/>
    </g>
    <g transform="matrix(1,0,0,1,-377.696,-277.758)">
        <path d="M418.643,330.061C420.356,328.696 417.512,322.921 415.044,324.274C412.989,325.401 414.525,333.342 418.643,330.061Z" style="fill:rgb(225,233,252);fill-rule:nonzero;"/>
    </g>
    <g transform="matrix(1,0,0,1,-377.696,-277.758)">
        <path d="M404.797,321.075L406.655,319.717C406.972,319.485 406.968,319.011 406.648,318.785L404.585,317.324C404.189,317.043 403.645,317.35 403.68,317.834L403.885,320.654C403.918,321.103 404.433,321.341 404.797,321.075Z" style="fill:rgb(243,126,136);fill-rule:nonzero;"/>
    </g>
    <g transform="matrix(1,0,0,1,-377.696,-277.758)">
        <path d="M443.41,325.605L441.541,324.262C441.222,324.033 441.222,323.559 441.54,323.33L443.591,321.852C443.985,321.568 444.531,321.87 444.5,322.355L444.318,325.176C444.289,325.626 443.776,325.868 443.41,325.605Z" style="fill:rgb(243,126,136);fill-rule:nonzero;"/>
    </g>
    <g transform="matrix(1,0,0,1,-377.696,-277.758)">
        <path d="M401.804,360.073C401.818,360.207 401.812,360.338 401.819,360.471C401.82,360.458 401.83,360.445 401.831,360.432C401.922,358.72 402.33,355.639 403.984,356.917C405.637,358.195 408.944,366.762 417.821,366.161C426.697,365.56 428.485,360.149 438.255,359.773C448.025,359.397 450.505,352.491 450.505,352.491C455.465,351.598 453.135,346.062 453.135,346.062C452.976,348.49 451.363,350.581 449.054,351.35L448.813,351.43C444.792,357.818 435.022,356.058 435.022,356.058C412.325,363.767 403.908,353.459 403.908,353.459C403.908,353.459 398.06,353.533 393.307,349.211C394.894,350.792 396.753,351.965 397.595,352.257C399.55,352.933 401.203,354.511 401.804,360.073Z" style="fill:rgb(89,39,116);fill-opacity:0.17;fill-rule:nonzero;"/>
    </g>
    <g transform="matrix(1,0,0,1,-377.696,-277.758)">
        <path d="M511.606,367.389C514.813,377.085 506.896,378.737 506.896,378.737C508.9,387.555 494.433,400.859 485.051,389.359C475.732,377.935 477.861,365.034 477.861,365.034C477.861,365.034 472.124,391.063 466.513,390.461C460.901,389.86 456.822,384.849 456.822,384.849C460.959,379.369 460.401,372.423 460.401,372.423C458.497,380.54 451.382,383.145 451.382,383.145C456.344,401.822 447.553,413.172 442.557,417.229C442.676,417.166 442.789,417.096 442.915,417.04C446.973,415.236 451.107,410.577 451.107,410.577C459.299,418.168 460.502,411.028 460.502,411.028C464.26,414.41 469.746,410.352 469.746,410.352C472.151,412.682 474.556,412.081 475.157,414.711C475.758,417.341 474.513,421.217 474.513,421.217C471.403,421.666 470.872,423.304 470.827,424.223C470.809,424.592 470.968,424.961 471.269,425.175C473.901,427.036 477.854,425.392 478.886,424.907C479.054,424.828 479.197,424.714 479.311,424.567C483.067,419.755 483.27,412.473 483.239,410.261C483.234,409.906 483.082,409.559 482.784,409.366C480.822,408.09 481.393,405.167 481.393,405.167C484.474,402.837 488.984,397.802 488.984,397.802C488.984,397.802 496.65,404.641 501.61,404.491C506.57,404.341 507.547,402.687 509.05,404.19C510.553,405.693 514.386,415.087 515.213,416.29C516.04,417.492 519.121,419.822 520.925,419.296C522.729,418.77 522.879,417.267 522.879,417.267C521.636,412.686 517.087,402.578 515.932,400.041C515.765,399.675 515.418,399.439 515.02,399.378C508.865,398.437 510.553,392.315 510.553,392.315C512.056,390.662 511.154,388.557 511.154,388.557C517.317,382.169 513.409,379.388 513.409,379.388C517.993,366.912 511.004,357.067 511.004,357.067C515.262,364.595 511.606,367.389 511.606,367.389Z" style="fill:rgb(89,39,116);fill-opacity:0.17;fill-rule:nonzero;"/>
    </g>
    <g transform="matrix(1,0,0,1,-377.696,-277.758)">
        <path d="M514.612,338.509C504.554,343.154 493.067,339.656 492.8,335.548C492.8,335.541 492.796,335.537 492.796,335.53C492.789,339.017 490.361,340.821 481.872,339.559C481.905,339.564 481.927,339.574 481.962,339.579C485.013,339.957 492.266,341.661 498.078,345.118C503.89,348.575 508.299,352.283 511.005,357.068C516.717,356.467 513.56,350.68 513.56,350.68C515.138,350.83 520.174,348.651 520.023,345.645C519.873,342.639 517.468,342.263 517.468,342.263C517.468,342.263 528.441,335.499 526.787,320.919C526.698,320.132 526.588,319.392 526.466,318.683C527.181,325.479 523.346,334.476 514.612,338.509Z" style="fill:rgb(89,39,116);fill-opacity:0.17;fill-rule:nonzero;"/>
    </g>
    <g transform="matrix(1,0,0,1,-377.696,-277.758)">
        <path d="M431.541,399.078C435.75,397.375 437.654,394.569 437.654,394.569C439.216,394.962 441.06,391.563 441.06,391.563C446.169,390.461 445.47,385.551 445.47,385.551C442.163,388.933 435.625,388.557 435.625,388.557C436.828,393.743 430.364,393.668 430.364,393.668C427.886,397.873 415.129,400.352 408.892,395.774C413.944,400.896 421.42,401.484 421.42,401.484L422.172,402.837C423.45,404.866 426.681,405.768 426.681,405.768C426.931,403.036 427.332,400.782 431.541,399.078Z" style="fill:rgb(89,39,116);fill-opacity:0.17;fill-rule:nonzero;"/>
    </g>
    <g transform="matrix(1,0,0,1,-377.696,-277.758)">
        <path d="M462.666,340.609C460.863,340.984 459.327,341.362 458.189,341.663L467.114,364.633C473.728,349.501 467.156,343.74 462.666,340.609Z" style="fill:rgb(89,39,116);fill-opacity:0.17;fill-rule:nonzero;"/>
    </g>
    <g transform="matrix(1,0,0,1,-377.696,-277.758)">
        <path d="M403.608,354.211C403.608,354.211 407.967,359.405 417.211,360.265C426.455,361.125 435.323,357.238 435.323,357.238C435.323,357.238 424.576,362.929 416.985,362.328C409.395,361.726 403.608,354.211 403.608,354.211Z" style="fill:rgb(89,39,116);fill-opacity:0.17;fill-rule:nonzero;"/>
    </g>
    <g transform="matrix(1,0,0,1,-377.696,-277.758)">
        <path d="M413.604,420.949C417.587,417.267 413.604,415.613 418.038,411.404C422.472,407.195 422.171,402.836 422.171,402.836L421.419,401.483C421.419,401.483 405.987,400.281 404.484,386.151C404.484,386.151 400.175,386.953 400.776,381.842C400.776,381.842 399.649,381.967 399.323,380.514C398.489,382.39 398.882,385.05 399.702,388.661C398.917,384.053 403.387,387.97 406.588,397.274C409.795,406.593 416.007,424.129 408.191,431.244C411.95,427.938 413.604,420.949 413.604,420.949Z" style="fill:rgb(180,174,189);fill-opacity:0.69;fill-rule:nonzero;"/>
    </g>
    <g transform="matrix(1,0,0,1,-377.696,-277.758)">
        <path d="M486.127,339.955L486.126,339.953C484.915,339.928 483.509,339.801 481.873,339.558C481.906,339.563 481.928,339.573 481.963,339.578C485.014,339.956 492.267,341.66 498.079,345.117C503.891,348.574 508.3,352.282 511.006,357.067C511.155,344.666 491.69,340.533 486.127,339.955Z" style="fill:rgb(89,39,116);fill-opacity:0.17;fill-rule:nonzero;"/>
    </g>
    <g transform="matrix(1,0,0,1,-377.696,-277.758)">
        <path d="M459.861,341.24C458.894,340.867 457.86,340.639 456.752,340.609L456.735,340.609C456.621,341.103 456.418,341.639 456.067,342.261C456.067,342.261 456.113,345.074 453.136,346.061C453.136,346.061 462.029,348.724 462.906,360.899C463.716,372.145 467.165,367.388 468.092,361.049C469.317,352.671 466.116,343.654 459.861,341.24Z" style="fill:rgb(89,39,116);fill-rule:nonzero;"/>
    </g>
    <g transform="matrix(1,0,0,1,-377.696,-277.758)">
        <path d="M468.091,361.05C469.316,352.671 466.116,343.654 459.861,341.24C458.894,340.867 457.86,340.639 456.752,340.609L456.735,340.609C456.621,341.103 456.418,341.639 456.067,342.261C456.067,342.261 456.07,342.566 455.972,343.006C458.754,344.598 469.011,351.636 465.71,367.388C466.702,366.549 467.664,363.97 468.091,361.05Z" style="fill:rgb(89,39,116);fill-opacity:0.33;fill-rule:nonzero;"/>
    </g>
    <g transform="matrix(1,0,0,1,-377.696,-277.758)">
        <path d="M454.346,345.457C454.01,345.692 453.616,345.902 453.135,346.061C453.135,346.061 462.028,348.724 462.905,360.899C462.955,361.59 463.015,362.218 463.083,362.792C463.189,350.068 457.596,346.474 454.346,345.457Z" style="fill:rgb(89,39,116);fill-opacity:0.33;fill-rule:nonzero;"/>
    </g>
    <g transform="matrix(1,0,0,1,-377.696,-277.758)">
        <path d="M458.446,346.327C456.736,343.012 456.789,335.96 461.953,329.347C467.117,322.733 471.748,322.567 471.748,322.567C471.748,322.567 477.404,317.262 480.31,320.654C483.216,324.046 478.688,332.537 476.483,333.341C476.483,333.341 480.95,332.535 480.419,336.598C479.893,340.627 475.48,343.085 473.276,342.423C473.276,342.423 473.856,348.852 468.806,351.119C463.756,353.385 460.75,349.527 460.75,347.999C460.751,347.998 459.227,347.841 458.446,346.327Z" style="fill:rgb(252,204,226);fill-rule:nonzero;"/>
    </g>
    <g transform="matrix(1,0,0,1,-377.696,-277.758)">
        <path d="M420.617,303.16C420.529,303.356 420.443,303.55 420.359,303.741C422.19,303.565 427.453,303.692 429.321,310.431C429.348,309.944 429.368,309.457 429.377,308.972C428.55,306.689 426.138,301.965 420.617,303.16Z" style="fill:rgb(166,39,0);fill-opacity:0.35;fill-rule:nonzero;"/>
    </g>
    <g transform="matrix(1,0,0,1,-377.696,-277.758)">
        <path d="M429.351,306.205C429.344,306.031 429.335,305.858 429.327,305.685C427.021,298.778 423.606,299.502 421.934,300.393C421.84,300.579 421.742,300.767 421.651,300.952C427.085,298.812 429.076,305.195 429.351,306.205Z" style="fill:rgb(166,39,0);fill-opacity:0.35;fill-rule:nonzero;"/>
    </g>
    <g transform="matrix(1,0,0,1,-377.696,-277.758)">
        <path d="M428.807,300.284C428.743,299.826 428.676,299.378 428.606,298.948C427.892,297.636 426.417,296.069 423.699,297.175C423.596,297.346 423.499,297.52 423.398,297.692C424.326,297.246 427.037,296.382 428.807,300.284Z" style="fill:rgb(166,39,0);fill-opacity:0.35;fill-rule:nonzero;"/>
    </g>
    <g transform="matrix(1,0,0,1,-377.696,-277.758)">
        <path d="M427.6,294.578C428.607,298.947 423.495,308.066 423.495,308.066C423.495,308.066 422.588,305.312 419.52,305.743C418.526,308.217 417.983,309.945 417.983,309.945C417.983,309.945 427.282,324.149 428.936,314.079C430.094,307.028 428.778,299.207 427.885,295.149C427.834,294.921 427.728,294.738 427.6,294.578Z" style="fill:rgb(166,39,0);fill-opacity:0.35;fill-rule:nonzero;"/>
    </g>
    <g transform="matrix(1,0,0,1,-377.696,-277.758)">
        <path d="M409.796,320.108C409.796,320.108 412.207,325.131 418.864,323.213C418.864,323.213 423.636,326.336 426.229,321.879C426.229,321.879 433.402,323.925 432.867,318.449C432.333,312.974 409.796,320.108 409.796,320.108Z" style="fill:rgb(89,39,116);fill-opacity:0.17;fill-rule:nonzero;"/>
    </g>
    <g transform="matrix(1,0,0,1,-377.696,-277.758)">
        <path d="M416.3,312.199C416.3,312.199 413.911,309.493 416.651,307.088C419.391,304.683 424.31,308.574 425.779,312.642C425.779,312.642 428.71,310.763 431.416,312.274C434.122,313.785 432.318,315.881 432.318,315.881C432.318,315.881 434.122,319.038 431.341,320.616C428.56,322.194 425.855,319.564 425.855,319.564C425.855,319.564 426.08,322.194 423.525,323.021C420.97,323.848 419.467,321.742 419.467,321.742C419.467,321.742 416.386,323.515 412.027,321.742C407.668,319.969 408.344,315.13 411.726,313.176C414.462,311.595 416.3,312.199 416.3,312.199Z" style="fill:rgb(252,204,226);fill-rule:nonzero;"/>
    </g>
    <g transform="matrix(1,0,0,1,-377.696,-277.758)">
        <path d="M412.025,321.742C416.384,323.515 419.465,321.742 419.465,321.742C419.465,321.742 420.968,323.848 423.523,323.021C426.078,322.194 425.853,319.564 425.853,319.564C425.853,319.564 428.559,322.194 431.339,320.616C434.12,319.038 432.316,315.881 432.316,315.881C432.316,315.881 433.697,314.275 432.23,312.862C433.421,314.778 430.387,315.355 430.387,315.355C430.387,315.355 432.82,318.708 430.387,319.514C427.954,320.32 424.867,317.686 424.867,317.686C424.867,317.686 425.376,320.365 423.07,320.616C420.764,320.867 419.865,319.201 419.865,319.201C417.463,320.89 408.368,317.369 410.31,314.333C408.264,316.624 408.373,320.257 412.025,321.742Z" style="fill:rgb(255,174,184);fill-rule:nonzero;"/>
    </g>
    <g transform="matrix(1,0,0,1,-377.696,-277.758)">
        <path d="M420.168,313.852C420.168,313.852 423.652,314.332 424.869,313.401C424.869,313.401 424.622,314.303 425.501,314.566C425.501,314.566 424.051,315.017 424.501,316.144C424.501,316.144 421.929,314.29 420.359,316.382C420.359,316.383 421.246,314.604 420.168,313.852Z" style="fill:rgb(255,174,184);fill-rule:nonzero;"/>
    </g>
    <g transform="matrix(1,0,0,1,-377.696,-277.758)">
        <path d="M480.31,320.654C480.247,320.58 480.176,320.533 480.11,320.467C484.197,325.488 470.169,333.643 470.169,333.643L470.169,332.14C467.518,341.394 458.777,347.498 457.74,344.297C457.913,345.068 458.15,345.756 458.445,346.327C459.226,347.841 460.75,347.998 460.75,347.998C460.75,349.526 463.756,353.384 468.806,351.118C471.971,349.697 472.924,346.643 473.195,344.56C473.192,344.572 472.068,349.226 468.015,348.875C463.957,348.524 462.6,346.37 462.6,346.37C466.204,343.614 468.465,339.656 468.465,339.656C468.465,339.656 470.771,341.61 473.076,342.347C473.278,342.412 473.52,342.464 473.778,342.512C476.088,342.724 479.931,340.341 480.42,336.597C480.528,335.769 480.422,335.152 480.195,334.68C480.639,335.964 479.481,339.144 475.481,340.056C471.472,340.97 468.465,339.105 468.465,339.105C469.566,337.753 470.119,334.745 470.119,334.745C470.119,334.745 474.328,334.494 476.482,333.34C476.651,333.249 476.844,333.129 477.046,332.997C479.36,331.213 482.987,323.778 480.31,320.654Z" style="fill:rgb(255,174,184);fill-rule:nonzero;"/>
    </g>
    <g transform="matrix(1,0,0,1,-377.696,-277.758)">
        <path d="M425.914,387.635C426.046,387.279 425.477,387.126 425.346,387.479C424.931,388.602 423.818,389.277 422.744,389.667C421.523,390.11 420.177,390.309 418.886,390.1C416.588,389.727 414.488,387.858 414.58,385.396C414.589,385.161 414.327,385.045 414.137,385.142C413.554,385.439 412.803,385.147 412.474,384.603C412.066,383.927 412.306,383.046 412.793,382.482C412.993,382.25 412.798,381.942 412.507,381.99C411.522,382.152 410.7,381.359 410.338,380.515C409.885,379.458 410.188,378.292 410.675,377.303C411.685,375.25 413.586,373.468 413.478,371.016C413.461,370.639 412.873,370.637 412.889,371.016C413.011,373.794 410.385,375.679 409.692,378.22C409.4,379.289 409.488,380.414 410.126,381.343C410.588,382.016 411.263,382.475 412.041,382.558C411.624,383.304 411.518,384.236 412.018,384.978C412.457,385.629 413.264,385.956 414.011,385.794C414.11,387.639 415.345,389.314 416.993,390.118C419.039,391.116 421.558,390.899 423.582,389.954C424.611,389.472 425.512,388.721 425.914,387.635Z" style="fill:rgb(104,91,136);fill-rule:nonzero;"/>
    </g>
    <g transform="matrix(1,0,0,1,-377.696,-277.758)">
        <path d="M446.823,389.557C448.3,390.075 449.66,391.258 449.975,392.848C450.254,394.253 449.57,395.82 448.234,396.405C448.042,396.489 448.04,396.83 448.234,396.913C448.766,397.141 449.57,397.482 449.705,398.119C449.86,398.85 449.025,399.267 448.45,399.418C448.193,399.485 448.176,399.82 448.38,399.956C449.246,400.534 449.722,401.654 449.466,402.677C449.218,403.669 448.369,404.404 447.376,404.582C447.004,404.649 447.161,405.216 447.532,405.15C448.747,404.932 449.803,403.953 450.057,402.733C450.281,401.655 449.89,400.548 449.112,399.803C449.762,399.512 450.342,398.99 450.31,398.228C450.278,397.47 449.66,396.976 449.02,396.638C450.237,395.821 450.807,394.224 450.56,392.787C450.244,390.948 448.668,389.582 446.979,388.989C446.621,388.864 446.467,389.433 446.823,389.557Z" style="fill:rgb(104,91,136);fill-rule:nonzero;"/>
    </g>
    <g transform="matrix(1,0,0,1,-377.696,-277.758)">
        <path d="M474.871,384.562C474.516,384.428 474.363,384.996 474.714,385.13C476.447,385.788 477.125,387.709 477.084,389.428C477.063,390.298 476.928,391.23 476.469,391.986C476.034,392.702 475.213,393.232 474.355,393.032C474.041,392.959 473.823,393.407 474.128,393.57C474.53,393.785 474.767,394.299 474.566,394.735C474.371,395.157 473.806,395.338 473.393,395.149C473.115,395.022 472.756,395.382 473.036,395.611C474.247,396.603 473.396,398.247 472.472,399.088C471.558,399.92 470.131,400.467 468.979,399.801C468.65,399.611 468.354,400.12 468.682,400.309C470.105,401.131 471.858,400.491 472.968,399.43C473.912,398.527 474.625,396.94 473.933,395.765C474.402,395.713 474.844,395.48 475.075,395.032C475.309,394.578 475.234,394.054 474.983,393.632C475.643,393.554 476.262,393.207 476.695,392.682C477.38,391.852 477.601,390.741 477.662,389.693C477.783,387.604 476.957,385.353 474.871,384.562Z" style="fill:rgb(104,91,136);fill-rule:nonzero;"/>
    </g>
    <g transform="matrix(1,0,0,1,-377.696,-277.758)">
        <path d="M503.36,375.862C504.143,375.65 504.782,374.92 504.842,374.083C504.91,373.136 504.276,372.318 503.459,371.901C504.024,371.581 504.477,371.075 504.732,370.468C505.117,369.55 505.04,368.519 504.682,367.605C503.919,365.656 502.154,364.119 500.252,363.32C499.114,362.841 497.888,362.66 496.669,362.897C496.298,362.969 496.455,363.537 496.826,363.465C499.202,363.004 501.691,364.398 503.168,366.194C503.858,367.033 504.42,368.1 504.404,369.211C504.387,370.34 503.671,371.409 502.529,371.638C502.253,371.693 502.243,372.158 502.529,372.206C503.365,372.346 504.205,372.981 504.256,373.887C504.304,374.729 503.452,375.537 502.611,375.3C502.283,375.208 502.108,375.66 502.384,375.838C503.77,376.73 504.607,378.364 504.488,380.013C504.372,381.628 503.319,383.08 501.877,383.78C501.536,383.945 501.834,384.453 502.174,384.288C503.809,383.495 504.946,381.827 505.076,380.013C505.19,378.446 504.506,376.906 503.36,375.862Z" style="fill:rgb(104,91,136);fill-rule:nonzero;"/>
    </g>
    <g transform="matrix(1,0,0,1,-377.696,-277.758)">
        <path d="M511.162,343.207C510.792,343.156 510.631,343.723 511.006,343.775C512.855,344.029 514.759,343.271 515.876,341.759C516.936,340.324 517.093,338.363 516.405,336.741C517.339,336.771 518.217,336.059 518.839,335.412C519.688,334.529 520.362,333.489 520.837,332.361C521.796,330.084 521.87,327.504 521.022,325.18C520.537,323.853 519.786,322.644 518.806,321.627C518.543,321.354 518.127,321.77 518.39,322.043C519.958,323.672 520.917,325.857 521.021,328.12C521.122,330.319 520.402,332.53 519.053,334.268C518.393,335.118 517.187,336.554 515.965,336.058C515.716,335.957 515.515,336.286 515.633,336.49C516.5,337.993 516.441,339.951 515.431,341.374C514.49,342.701 512.768,343.428 511.162,343.207Z" style="fill:rgb(104,91,136);fill-rule:nonzero;"/>
    </g>
    <g transform="matrix(1,0,0,1,-377.696,-277.758)">
        <path d="M508.006,295.016C508.298,294.366 508.37,293.635 508.158,292.98C509.308,293.403 510.612,293.602 511.495,292.552C512.456,291.41 512.623,289.677 512.269,288.276C512.176,287.909 511.609,288.064 511.701,288.433C511.996,289.605 511.88,290.999 511.17,292.012C510.314,293.235 508.774,292.653 507.678,292.155C507.376,292.018 507.095,292.355 507.321,292.617C507.795,293.165 507.783,293.944 507.544,294.594C507.317,295.21 506.616,296.205 505.87,295.674C505.561,295.454 505.266,295.964 505.573,296.182C506.565,296.888 507.611,295.893 508.006,295.016Z" style="fill:rgb(104,91,136);fill-rule:nonzero;"/>
    </g>
    <g transform="matrix(1,0,0,1,-377.696,-277.758)">
        <path d="M402.004,365.24C402.057,365.233 401.963,365.243 401.962,365.243C401.937,365.245 401.912,365.246 401.887,365.247C401.832,365.249 401.777,365.248 401.722,365.245C401.697,365.244 401.672,365.242 401.647,365.239C401.638,365.238 401.573,365.229 401.621,365.236C401.572,365.228 401.522,365.219 401.474,365.207C401.246,365.154 401.114,365.098 400.92,364.978C400.82,364.916 400.77,364.879 400.7,364.818C400.621,364.749 400.546,364.673 400.479,364.593C400.382,364.478 400.259,364.26 400.209,364.111C400.157,363.961 400.007,363.861 399.847,363.905C399.701,363.945 399.59,364.116 399.641,364.267C399.998,365.31 401.078,365.953 402.161,365.806C402.319,365.785 402.405,365.582 402.367,365.444C402.319,365.276 402.162,365.219 402.004,365.24Z" style="fill:rgb(104,91,136);fill-rule:nonzero;"/>
    </g>
    <g transform="matrix(1,0,0,1,-377.696,-277.758)">
        <path d="M401.581,366.88C401.946,366.78 401.791,366.212 401.424,366.312C400.704,366.51 399.909,366.264 399.412,365.677C399.309,365.556 399.102,365.571 398.996,365.677C398.876,365.797 398.893,365.972 398.996,366.093C399.615,366.823 400.662,367.132 401.581,366.88Z" style="fill:rgb(104,91,136);fill-rule:nonzero;"/>
    </g>
    <g transform="matrix(1,0,0,1,-377.696,-277.758)">
        <path d="M428.609,410.647C427.617,410.506 426.617,410.55 425.644,410.794C425.277,410.886 425.432,411.454 425.8,411.362C426.664,411.146 427.569,411.09 428.452,411.215C428.609,411.237 428.768,411.176 428.814,411.009C428.852,410.871 428.767,410.669 428.609,410.647Z" style="fill:rgb(104,91,136);fill-rule:nonzero;"/>
    </g>
    <g transform="matrix(1,0,0,1,-377.696,-277.758)">
        <path d="M456.618,401.728C456.33,400.989 455.872,400.324 455.263,399.813C455.145,399.714 454.961,399.689 454.847,399.813C454.747,399.922 454.721,400.124 454.847,400.229C454.985,400.345 455.116,400.468 455.239,400.6C455.299,400.664 455.357,400.73 455.413,400.797C455.441,400.831 455.468,400.865 455.495,400.9C455.468,400.865 455.506,400.916 455.511,400.922C455.525,400.942 455.54,400.961 455.554,400.981C455.656,401.123 455.75,401.272 455.834,401.425C455.879,401.506 455.921,401.588 455.96,401.672C455.978,401.711 455.996,401.75 456.013,401.79C456.015,401.794 456.017,401.798 456.018,401.803C456.029,401.83 456.04,401.857 456.05,401.884C456.106,402.027 456.25,402.142 456.412,402.09C456.552,402.045 456.678,401.882 456.618,401.728Z" style="fill:rgb(104,91,136);fill-rule:nonzero;"/>
    </g>
    <g transform="matrix(1,0,0,1,-377.696,-277.758)">
        <path d="M456.952,400.224C457.075,400.317 457.286,400.248 457.355,400.118C457.437,399.963 457.381,399.815 457.249,399.715C456.715,399.313 456.182,398.911 455.648,398.509C455.524,398.416 455.314,398.485 455.245,398.615C455.163,398.77 455.219,398.918 455.351,399.018C455.885,399.421 456.419,399.823 456.952,400.224Z" style="fill:rgb(104,91,136);fill-rule:nonzero;"/>
    </g>
    <g transform="matrix(1,0,0,1,-377.696,-277.758)">
        <path d="M512.489,364.524C513.433,364.025 514.213,363.218 514.677,362.256C514.746,362.113 514.716,361.938 514.571,361.853C514.442,361.778 514.238,361.815 514.168,361.959C513.74,362.847 513.059,363.557 512.192,364.016C512.052,364.09 512.009,364.286 512.086,364.419C512.17,364.56 512.348,364.599 512.489,364.524Z" style="fill:rgb(104,91,136);fill-rule:nonzero;"/>
    </g>
    <g transform="matrix(1,0,0,1,-377.696,-277.758)">
        <path d="M515.331,363.809C515.211,363.689 515.036,363.706 514.915,363.809C514.203,364.416 513.343,364.827 512.429,365.022C512.273,365.055 512.183,365.237 512.223,365.384C512.267,365.545 512.429,365.623 512.585,365.59C513.6,365.374 514.541,364.898 515.33,364.226C515.452,364.122 515.437,363.915 515.331,363.809Z" style="fill:rgb(104,91,136);fill-rule:nonzero;"/>
    </g>
    <g transform="matrix(1,0,0,1,-377.696,-277.758)">
        <path d="M483.748,299.036C483.714,299.036 483.68,299.035 483.647,299.032C483.635,299.031 483.538,299.022 483.597,299.029C483.54,299.022 483.484,299.01 483.428,298.996C483.368,298.981 483.308,298.963 483.25,298.943C483.24,298.939 483.152,298.905 483.201,298.925C483.175,298.914 483.149,298.902 483.123,298.889C483.011,298.834 482.905,298.769 482.804,298.695C482.843,298.724 482.778,298.674 482.773,298.67C482.751,298.652 482.729,298.633 482.707,298.613C482.66,298.571 482.616,298.527 482.573,298.481C482.553,298.46 482.534,298.438 482.515,298.416C482.508,298.408 482.449,298.336 482.479,298.375C482.444,298.329 482.411,298.282 482.38,298.233C482.346,298.181 482.315,298.126 482.286,298.071C482.271,298.041 482.256,298.011 482.242,297.981C482.216,297.926 482.25,298.008 482.227,297.946C482.183,297.829 482.153,297.711 482.127,297.588C482.114,297.525 482.128,297.623 482.122,297.553C482.119,297.524 482.117,297.496 482.115,297.467C482.111,297.4 482.112,297.333 482.116,297.265C482.125,297.106 481.974,296.971 481.822,296.971C481.655,296.971 481.536,297.106 481.528,297.265C481.461,298.485 482.533,299.605 483.747,299.623C483.906,299.625 484.041,299.486 484.041,299.329C484.043,299.169 483.908,299.038 483.748,299.036Z" style="fill:rgb(104,91,136);fill-rule:nonzero;"/>
    </g>
    <g transform="matrix(1,0,0,1,-377.696,-277.758)">
        <path d="M484.534,298.361C484.424,298.338 484.316,298.307 484.211,298.268C484.201,298.264 484.131,298.235 484.178,298.256C484.152,298.245 484.127,298.233 484.102,298.221C484.052,298.197 484.002,298.17 483.954,298.143C483.905,298.115 483.858,298.085 483.812,298.054C483.789,298.038 483.766,298.022 483.743,298.006C483.689,297.968 483.76,298.022 483.714,297.984C483.623,297.91 483.537,297.831 483.458,297.745C483.42,297.704 483.383,297.661 483.348,297.618C483.335,297.602 483.336,297.603 483.351,297.622C483.342,297.611 483.334,297.6 483.326,297.588C483.309,297.565 483.293,297.542 483.278,297.519C483.215,297.426 483.158,297.329 483.109,297.228C483.097,297.203 483.085,297.178 483.074,297.152C483.066,297.133 483.066,297.135 483.076,297.158C483.071,297.145 483.066,297.132 483.061,297.119C483.041,297.067 483.023,297.014 483.006,296.96C482.99,296.906 482.976,296.852 482.964,296.797C482.958,296.77 482.953,296.742 482.948,296.715C482.946,296.703 482.933,296.607 482.94,296.668C482.921,296.51 482.818,296.374 482.646,296.374C482.502,296.374 482.332,296.509 482.352,296.668C482.483,297.75 483.301,298.702 484.381,298.929C484.536,298.962 484.699,298.883 484.743,298.723C484.779,298.577 484.69,298.394 484.534,298.361Z" style="fill:rgb(104,91,136);fill-rule:nonzero;"/>
    </g>
    <g transform="matrix(1,0,0,1,-377.696,-277.758)">
        <path d="M516.079,299.757C516.987,299.273 517.675,298.422 517.972,297.438C518.018,297.286 517.917,297.117 517.766,297.076C517.609,297.033 517.45,297.129 517.404,297.281C517.151,298.119 516.563,298.832 515.781,299.248C515.641,299.323 515.597,299.517 515.675,299.651C515.76,299.793 515.939,299.832 516.079,299.757Z" style="fill:rgb(104,91,136);fill-rule:nonzero;"/>
    </g>
    <g transform="matrix(1,0,0,1,-377.696,-277.758)">
        <path d="M405.421,429.773C405.673,429.491 405.258,429.073 405.005,429.357C404.333,430.11 404.077,431.135 404.261,432.104C404.46,432.086 404.658,432.064 404.853,432.038C404.685,431.246 404.882,430.376 405.421,429.773Z" style="fill:rgb(104,91,136);fill-rule:nonzero;"/>
    </g>
    <g transform="matrix(1,0,0,1,-377.696,-277.758)">
        <path d="M402.217,429.167C402.314,429.04 402.236,428.839 402.112,428.764C401.961,428.674 401.805,428.744 401.709,428.87C401.201,429.534 400.752,430.287 400.628,431.126C400.618,431.197 400.622,431.267 400.616,431.338C400.661,431.389 400.704,431.443 400.76,431.485C400.889,431.582 401.031,431.665 401.18,431.739C401.155,430.826 401.685,429.862 402.217,429.167Z" style="fill:rgb(104,91,136);fill-rule:nonzero;"/>
    </g>
    <g transform="matrix(1,0,0,1,-377.696,-277.758)">
        <path d="M424.89,431.806C424.182,432.455 423.78,433.397 423.75,434.356C423.948,434.356 424.143,434.352 424.335,434.345C424.373,433.542 424.703,432.775 425.306,432.223C425.586,431.965 425.169,431.55 424.89,431.806Z" style="fill:rgb(104,91,136);fill-rule:nonzero;"/>
    </g>
    <g transform="matrix(1,0,0,1,-377.696,-277.758)">
        <path d="M421.949,431.571C422.078,431.477 422.139,431.316 422.054,431.168C421.981,431.04 421.78,430.969 421.651,431.062C420.814,431.67 420.289,432.638 420.181,433.652C420.269,433.727 420.363,433.798 420.475,433.843C420.566,433.88 420.663,433.909 420.758,433.941C420.781,433.026 421.194,432.119 421.949,431.571Z" style="fill:rgb(104,91,136);fill-rule:nonzero;"/>
    </g>
    <g transform="matrix(1,0,0,1,-377.696,-277.758)">
        <path d="M475.028,423.193C475.402,423.159 475.406,422.57 475.028,422.604C473.958,422.7 472.937,423.211 472.264,424.057C471.95,424.452 471.735,424.901 471.593,425.371C471.764,425.47 471.939,425.558 472.117,425.632C472.487,424.343 473.62,423.319 475.028,423.193Z" style="fill:rgb(104,91,136);fill-rule:nonzero;"/>
    </g>
    <g transform="matrix(1,0,0,1,-377.696,-277.758)">
        <path d="M519.149,415.443C519.065,415.074 518.497,415.23 518.581,415.6C518.846,416.755 519.869,417.511 520.892,417.979C521.345,418.186 521.818,418.337 522.298,418.459C522.454,418.283 522.565,418.109 522.648,417.944C522.182,417.841 521.723,417.706 521.285,417.513C520.367,417.109 519.388,416.486 519.149,415.443Z" style="fill:rgb(104,91,136);fill-rule:nonzero;"/>
    </g>
    <g transform="matrix(1,0,0,1,-377.696,-277.758)">
        <path d="M516.015,416.296C516.115,416.706 516.242,417.109 516.394,417.501C516.695,417.751 517.026,418 517.379,418.232C517.034,417.57 516.761,416.87 516.583,416.139C516.493,415.772 515.925,415.928 516.015,416.296Z" style="fill:rgb(104,91,136);fill-rule:nonzero;"/>
    </g>
    <g transform="matrix(1,0,0,1,-377.696,-277.758)">
        <g>
            <path d="M378.187,336.558C383.108,335.419 388.157,334.899 393.207,334.994C393.691,335.003 393.643,334.254 393.163,334.245C388.047,334.149 382.937,334.692 377.952,335.846C377.48,335.954 377.72,336.666 378.187,336.558Z" style="fill:rgb(113,99,145);fill-rule:nonzero;"/>
        </g>
        <g>
            <path d="M383.43,345.461C386.309,342.151 390.17,339.813 394.432,338.779C394.902,338.665 394.663,337.953 394.197,338.066C389.812,339.129 385.823,341.565 382.863,344.969C382.546,345.333 383.112,345.826 383.43,345.461Z" style="fill:rgb(113,99,145);fill-rule:nonzero;"/>
        </g>
        <g>
            <path d="M387.939,349.239C390.184,346.515 392.835,344.167 395.81,342.266C396.217,342.006 395.801,341.381 395.394,341.641C392.367,343.575 389.657,345.975 387.372,348.747C387.066,349.118 387.631,349.613 387.939,349.239Z" style="fill:rgb(113,99,145);fill-rule:nonzero;"/>
        </g>
        <g>
            <path d="M446.031,346.009C448.727,347.251 451.267,348.826 453.561,350.712C454.699,351.647 455.777,352.654 456.788,353.726C457.274,354.242 457.745,354.773 458.199,355.318C458.719,355.942 459.263,356.573 459.375,357.405C459.439,357.883 460.164,357.686 460.101,357.213C459.997,356.441 459.562,355.82 459.087,355.225C458.594,354.607 458.073,354.009 457.536,353.428C456.499,352.307 455.387,351.255 454.212,350.28C451.834,348.306 449.207,346.649 446.4,345.356C445.965,345.155 445.591,345.806 446.031,346.009Z" style="fill:rgb(113,99,145);fill-rule:nonzero;"/>
        </g>
        <g>
            <path d="M441.859,348.753C445.395,352.422 447.749,357.111 448.603,362.133C448.684,362.61 449.409,362.414 449.329,361.941C448.453,356.791 446.007,351.976 442.384,348.216C442.049,347.868 441.524,348.405 441.859,348.753Z" style="fill:rgb(113,99,145);fill-rule:nonzero;"/>
        </g>
        <g>
            <path d="M438.366,351.511C439.846,354.776 441.445,358.474 440.105,362.062C439.936,362.515 440.663,362.702 440.831,362.253C442.242,358.475 440.573,354.57 439.014,351.133C438.816,350.693 438.169,351.074 438.366,351.511Z" style="fill:rgb(113,99,145);fill-rule:nonzero;"/>
        </g>
    </g>
    <defs>
        <linearGradient id="_Linear1" x1="0" y1="0" x2="1" y2="0" gradientUnits="userSpaceOnUse" gradientTransform="matrix(1.44765e-15,-23.642,23.642,1.44765e-15,423.686,317.687)"><stop offset="0" style="stop-color:rgb(255,144,0);stop-opacity:1"/><stop offset="0.91" style="stop-color:rgb(255,205,0);stop-opacity:1"/><stop offset="1" style="stop-color:rgb(255,205,0);stop-opacity:1"/></linearGradient>
        <linearGradient id="_Linear2" x1="0" y1="0" x2="1" y2="0" gradientUnits="userSpaceOnUse" gradientTransform="matrix(-82.5074,-54.2302,54.2302,-82.5074,495.709,381.395)"><stop offset="0" style="stop-color:rgb(180,193,219);stop-opacity:1"/><stop offset="0.13" style="stop-color:rgb(180,193,219);stop-opacity:1"/><stop offset="1" style="stop-color:rgb(225,233,252);stop-opacity:1"/></linearGradient>
        <linearGradient id="_Linear3" x1="0" y1="0" x2="1" y2="0" gradientUnits="userSpaceOnUse" gradientTransform="matrix(2.96809,-16.2674,16.2674,2.96809,431.697,346.291)"><stop offset="0" style="stop-color:rgb(255,205,0);stop-opacity:1"/><stop offset="0.09" style="stop-color:rgb(255,205,0);stop-opacity:1"/><stop offset="1" style="stop-color:rgb(255,144,0);stop-opacity:1"/></linearGradient>
        <linearGradient id="_Linear4" x1="0" y1="0" x2="1" y2="0" gradientUnits="userSpaceOnUse" gradientTransform="matrix(1.53888,-16.0566,16.0566,1.53888,405.979,342.82)"><stop offset="0" style="stop-color:rgb(255,205,0);stop-opacity:1"/><stop offset="0.09" style="stop-color:rgb(255,205,0);stop-opacity:1"/><stop offset="1" style="stop-color:rgb(255,144,0);stop-opacity:1"/></linearGradient>
        <linearGradient id="_Linear6" x1="0" y1="0" x2="1" y2="0" gradientUnits="userSpaceOnUse" gradientTransform="matrix(2.3307,-12.7741,12.7741,2.3307,431.961,344.385)"><stop offset="0" style="stop-color:rgb(157,0,0);stop-opacity:1"/><stop offset="0.16" style="stop-color:rgb(130,4,0);stop-opacity:1"/><stop offset="0.39" style="stop-color:rgb(98,8,0);stop-opacity:1"/><stop offset="0.61" style="stop-color:rgb(75,11,0);stop-opacity:1"/><stop offset="0.82" style="stop-color:rgb(61,13,0);stop-opacity:1"/><stop offset="1" style="stop-color:rgb(56,14,0);stop-opacity:1"/></linearGradient>
        <linearGradient id="_Linear7" x1="0" y1="0" x2="1" y2="0" gradientUnits="userSpaceOnUse" gradientTransform="matrix(1.9491,-10.6826,10.6826,1.9491,429.128,348.255)"><stop offset="0" style="stop-color:black;stop-opacity:0.32"/><stop offset="0.48" style="stop-color:rgb(129,129,0);stop-opacity:0.32"/><stop offset="0.84" style="stop-color:rgb(219,219,0);stop-opacity:0.32"/><stop offset="1" style="stop-color:rgb(255,255,0);stop-opacity:0.32"/></linearGradient>
        <linearGradient id="_Linear9" x1="0" y1="0" x2="1" y2="0" gradientUnits="userSpaceOnUse" gradientTransform="matrix(0.266988,-12.958,12.958,0.266988,406.901,341.026)"><stop offset="0" style="stop-color:rgb(157,0,0);stop-opacity:1"/><stop offset="0.16" style="stop-color:rgb(130,4,0);stop-opacity:1"/><stop offset="0.39" style="stop-color:rgb(98,8,0);stop-opacity:1"/><stop offset="0.61" style="stop-color:rgb(75,11,0);stop-opacity:1"/><stop offset="0.82" style="stop-color:rgb(61,13,0);stop-opacity:1"/><stop offset="1" style="stop-color:rgb(56,14,0);stop-opacity:1"/></linearGradient>
        <linearGradient id="_Linear10" x1="0" y1="0" x2="1" y2="0" gradientUnits="userSpaceOnUse" gradientTransform="matrix(0.223277,-10.8365,10.8365,0.223277,407.604,345.808)"><stop offset="0" style="stop-color:black;stop-opacity:0.32"/><stop offset="0.48" style="stop-color:rgb(129,129,0);stop-opacity:0.32"/><stop offset="0.84" style="stop-color:rgb(219,219,0);stop-opacity:0.32"/><stop offset="1" style="stop-color:rgb(255,255,0);stop-opacity:0.32"/></linearGradient>
    </defs>
</svg>
