<?xml version="1.0" encoding="UTF-8" standalone="no"?>
<!DOCTYPE svg PUBLIC "-//W3C//DTD SVG 1.1//EN" "http://www.w3.org/Graphics/SVG/1.1/DTD/svg11.dtd">
<svg width="100%" height="100%" viewBox="0 0 809 871" version="1.1" xmlns="http://www.w3.org/2000/svg" xmlns:xlink="http://www.w3.org/1999/xlink" xml:space="preserve" xmlns:serif="http://www.serif.com/" style="fill-rule:evenodd;clip-rule:evenodd;stroke-linejoin:round;stroke-miterlimit:2;">
    <g transform="matrix(1,0,0,1,-114.824,-200.001)">
        <g transform="matrix(4.16667,0,0,4.16667,-635.176,-633.335)">
            <clipPath id="_clip1">
                <path d="M212.813,240.915C206.572,251.209 202.47,262.942 201.099,275.501C200.955,276.862 200.84,278.231 200.758,279.607C200.648,281.324 200.582,283.052 200.582,284.803C200.582,290.818 201.281,296.659 202.483,302.311C203.111,305.288 203.844,308.225 204.772,311.074C205.281,312.608 205.805,314.135 206.389,315.624C206.395,315.65 206.408,315.669 206.419,315.695C206.582,316.114 206.781,316.506 206.947,316.915C207.226,317.603 207.543,318.265 207.832,318.944C208.228,319.876 209.082,321.823 209.098,321.866C214.529,333.029 222.35,342.813 231.88,350.576C246.44,362.444 264.757,369.568 285,369.596L285,400C285,400 315.894,388.11 340.706,363.155C346.889,356.932 352.835,349.854 357.792,341.991C358.013,341.635 358.325,341.306 358.546,340.956C359.465,339.454 360.358,337.905 361.202,336.352C362.837,333.345 364.358,330.225 365.702,326.998C367.047,323.753 368.244,320.397 369.238,316.915C369.335,316.577 369.464,316.261 369.561,315.919C369.997,314.327 370.373,312.714 370.731,311.074C370.734,311.049 370.746,311.014 370.749,310.978C372.075,304.891 372.85,298.488 372.85,291.731C372.85,287.523 372.659,283.487 372.297,279.607C371.177,267.719 368.401,257.354 364.393,248.387C359.023,236.365 351.423,226.865 342.533,219.568C325.895,205.911 304.769,200 285.386,200C254.611,200 227.673,216.389 212.813,240.915Z" clip-rule="nonzero"/>
            </clipPath>
            <g clip-path="url(#_clip1)">
                <g transform="matrix(0,-1,-1,0,298.773,127.479)">
                    <path d="M-118.773,-75.227L-72.522,-75.227L-72.522,118.773L-121.478,118.773L-118.773,-75.227Z" style="fill:rgb(170,195,53);fill-rule:nonzero;"/>
                </g>
                <g transform="matrix(0.999903,-0.0139419,-0.0139419,-0.999903,180.599,299.304)">
                    <path d="M-0.58,1.356L193.439,1.356L194.58,83.183L0.147,53.502L-0.58,1.356Z" style="fill:rgb(18,117,183);fill-rule:nonzero;"/>
                </g>
                <g transform="matrix(0.999903,-0.0139419,-0.0139419,-0.999903,180.601,326.304)">
                    <path d="M-0.582,1.356L193.436,1.356L194.582,83.541L0.145,53.493L-0.582,1.356Z" style="fill:rgb(25,156,214);fill-rule:nonzero;"/>
                </g>
                <g transform="matrix(0.999903,-0.0139419,-0.0139419,-0.999903,180.385,334.306)">
                    <path d="M-0.366,1.355L193.653,1.355L194.366,52.538L0.303,49.36L-0.366,1.355Z" style="fill:rgb(117,202,238);fill-rule:nonzero;"/>
                </g>
                <g transform="matrix(0.99991,-0.0134472,-0.0134472,-0.99991,180.36,355.965)">
                    <path d="M-0.343,1.307L193.675,1.307L194.227,42.357L0.36,53.57L-0.343,1.307Z" style="fill:rgb(228,43,44);fill-rule:nonzero;"/>
                </g>
                <g transform="matrix(0.99991,-0.0134472,-0.0134472,-0.99991,180.44,382.964)">
                    <path d="M-0.423,1.307L193.595,1.307L194.153,42.813L0.44,65.496L-0.423,1.307Z" style="fill:rgb(239,131,39);fill-rule:nonzero;"/>
                </g>
                <g transform="matrix(0,1,1,0,308.681,280.319)">
                    <path d="M65.319,-128.681L128.681,-128.681L128.681,65.319L82.681,65.319L65.319,-128.681Z" style="fill:rgb(247,184,35);fill-rule:nonzero;"/>
                </g>
                <g transform="matrix(1,0,0,1,263.003,317.734)">
                    <path d="M0,-59.796C4.654,-57.554 6.489,-51.733 4.102,-46.773L-16.064,-4.906C-18.45,0.042 -24.149,2.248 -28.804,0.01C-33.459,-2.233 -35.289,-8.063 -32.901,-13.015L-12.746,-54.888C-10.351,-59.838 -4.651,-62.044 0,-59.796" style="fill:white;"/>
                </g>
                <g transform="matrix(1,0,0,1,297.08,296.554)">
                    <path d="M0,-38.616C4.649,-36.374 6.492,-30.553 4.106,-25.593L-5.645,-4.899C-8.022,0.042 -13.724,2.248 -18.379,0.007C-23.033,-2.232 -24.87,-8.063 -22.479,-13.014L-12.74,-33.708C-10.347,-38.658 -4.646,-40.864 0,-38.616" style="fill:white;"/>
                </g>
                <g transform="matrix(1,0,0,1,331.589,317.734)">
                    <path d="M0,-59.796C4.639,-57.554 6.488,-51.733 4.096,-46.773L-16.071,-4.906C-18.455,0.042 -24.151,2.248 -28.811,0.01C-33.465,-2.233 -35.299,-8.063 -32.911,-13.015L-12.75,-54.888C-10.355,-59.838 -4.655,-62.044 0,-59.796" style="fill:white;"/>
                </g>
                <g transform="matrix(0,-1,-1,0,341.481,300.02)">
                    <path d="M-9.378,-9.384C-14.558,-9.384 -18.76,-5.185 -18.76,-0.004C-18.76,5.179 -14.558,9.378 -9.378,9.378C-4.202,9.378 -0.003,5.179 -0.003,-0.004C-0.003,-5.185 -4.202,-9.384 -9.378,-9.384" style="fill:white;"/>
                </g>
            </g>
        </g>
    </g>
</svg>
