<?xml version="1.0" encoding="UTF-8" standalone="no"?>
<!DOCTYPE svg PUBLIC "-//W3C//DTD SVG 1.1//EN" "http://www.w3.org/Graphics/SVG/1.1/DTD/svg11.dtd">
<svg width="100%" height="100%" viewBox="0 0 168 95" version="1.1" xmlns="http://www.w3.org/2000/svg" xmlns:xlink="http://www.w3.org/1999/xlink" xml:space="preserve" xmlns:serif="http://www.serif.com/" style="fill-rule:evenodd;clip-rule:evenodd;stroke-linejoin:round;stroke-miterlimit:2;">
    <g transform="matrix(1,0,0,1,-200.765,-175.629)">
        <path d="M358.903,246.115C357.683,251.066 351.44,265.992 338.094,255.73C338.094,255.73 338.094,260.466 334.578,260.968C331.062,261.47 326.111,259.102 324.388,256.806C324.388,256.806 323.24,266.206 314.414,267.857C305.588,269.508 301.57,265.92 301.57,265.92C301.57,265.92 296.834,270.943 287.29,264.27C287.29,264.27 286.357,268.152 281.478,268.292C276.599,268.432 275.881,263.84 275.881,263.84C275.881,263.84 272.15,269.868 265.62,269.796C259.09,269.724 256.938,268.433 256.938,268.433C256.938,268.433 254.785,270.372 249.404,269.797C244.022,269.222 240.65,265.347 238.999,262.047C238.999,262.047 237.062,264.846 233.904,264.056C230.746,263.266 231.249,260.97 231.249,260.97C231.249,260.97 226.944,262.764 222.997,258.53C219.05,254.296 220.27,251.211 220.27,251.211C220.27,251.211 216.467,255.229 214.027,247.695C211.587,240.161 219.265,225.953 219.265,225.953L239.213,219.925L269.064,206.793L314.199,193.59L339.242,203.205L357.827,217.628L365.361,231.19L361.486,244.25L358.903,246.115Z" style="fill:url(#_Linear1);fill-rule:nonzero;"/>
    </g>
    <g transform="matrix(1,0,0,1,-200.765,-175.629)">
        <path d="M221.687,225.22C223.582,226.069 226.263,227.479 230.057,229.759C243.606,237.902 251.602,236.87 251.602,236.87L259.329,234.873L262.109,225.385L248.415,219.228L241.056,219.113L239.213,219.924L221.687,225.22Z" style="fill:rgb(166,39,0);fill-opacity:0.16;fill-rule:nonzero;"/>
    </g>
    <g transform="matrix(1,0,0,1,-200.765,-175.629)">
        <path d="M359.893,221.349L355.107,219.247C355.107,219.247 354.908,223.488 358.334,231.746C361.761,240.004 352.228,241.379 352.228,241.379C351.654,235.447 347.253,234.055 347.253,234.055C350.793,235.724 350.315,245.78 342.182,248.746C334.05,251.712 331.849,247.406 331.849,247.406C331.849,247.406 330.223,251.711 326.587,250.755C322.951,249.798 322.76,245.014 322.76,245.014C322.76,245.014 321.995,250.468 313.958,250.276C305.921,250.085 299.798,243.196 299.798,243.196C299.798,243.196 302.286,250.563 295.875,253.529C289.465,256.495 285.351,252.285 285.351,252.285C285.351,252.285 285.734,259.078 281.284,259.008C276.834,258.938 276.804,254.39 276.804,254.39C270.936,253.146 273.974,247.31 273.974,247.31C286.534,242.531 287.432,226.524 287.432,226.524L262.966,245.3C262.966,245.3 252.438,244.152 249.953,253.988C247.468,263.824 239.302,257.738 239.302,257.738C236.307,259.269 233.726,256.603 233.726,256.603C225.729,259.295 226.128,251.328 226.128,251.328C226.128,251.328 223.066,253.05 221.826,250.658C220.586,248.266 222.971,245.779 222.971,245.779C222.971,245.779 221.344,245.014 220.196,243.1C219.048,241.187 216.979,241.187 216.979,241.187L217.083,230.56C215.025,235.377 212.469,242.889 214.024,247.693C216.464,255.227 220.267,251.209 220.267,251.209C220.267,251.209 219.047,254.294 222.994,258.528C226.941,262.762 231.246,260.968 231.246,260.968C231.246,260.968 230.744,263.264 233.901,264.054C237.058,264.844 238.996,262.045 238.996,262.045C240.646,265.346 244.019,269.221 249.401,269.795C254.783,270.37 256.936,268.431 256.936,268.431C256.936,268.431 259.089,269.723 265.618,269.794C272.148,269.866 275.879,263.838 275.879,263.838C275.879,263.838 276.596,268.43 281.476,268.29C286.356,268.15 287.288,264.268 287.288,264.268C296.832,270.941 301.568,265.918 301.568,265.918C301.568,265.918 305.586,269.506 314.412,267.856C323.238,266.206 324.386,256.805 324.386,256.805C326.108,259.101 331.059,261.469 334.575,260.967C338.091,260.465 338.091,255.729 338.091,255.729C351.438,265.99 357.681,251.065 358.9,246.114L361.483,244.248L364.938,232.602C364.97,231.918 365.002,231.249 365.032,230.603L359.893,221.349Z" style="fill:rgb(166,39,0);fill-opacity:0.16;fill-rule:nonzero;"/>
    </g>
    <g transform="matrix(1,0,0,1,-200.765,-175.629)">
        <path d="M230.723,191.96C232.172,191.462 234.32,190.768 235.769,190.505C235.769,190.505 235.052,189.142 236.343,188.28C237.635,187.419 239.5,188.567 239.5,188.567C239.5,188.567 239.428,185.625 241.15,185.338C242.872,185.051 245.671,186.773 247.464,188.352C247.464,188.352 250.98,189.644 258.515,184.477C266.049,179.311 274.876,175.292 274.517,179.095C274.517,179.095 278.751,176.081 279.971,179.238C279.971,179.238 293.963,172.36 313.481,177.593C332.999,182.826 342.255,198.397 342.255,198.397C342.255,198.397 345.556,201.411 350.148,200.334C354.74,199.258 358.615,200.477 357.324,204.783C357.324,204.783 362.06,206.362 360.338,210.093C360.338,210.093 365.72,211.528 367.011,222.794C368.303,234.06 365.863,245.038 358.903,246.115C358.903,246.115 364.141,227.889 347.924,222.077C347.924,222.077 348.498,218.059 346.058,215.978C343.618,213.897 341.681,216.337 341.681,216.337C341.681,216.337 338.022,205.789 328.98,205.358C319.939,204.928 319.293,210.872 319.293,210.872C319.293,210.872 317.356,206.936 314.055,210.309C314.055,210.309 312.476,207.582 309.606,207.51C306.736,207.438 306.52,210.237 306.52,210.237C306.52,210.237 304.152,206.793 298.555,209.017C292.958,211.241 292.743,218.345 292.743,218.345C292.743,218.345 290.519,218.488 290.806,221.143C291.093,223.798 290.734,227.171 287.433,226.525C287.433,226.525 282.625,245.254 264.328,248.124C264.328,248.124 264.113,250.349 261.386,250.635C261.386,250.635 262.175,253.147 259.09,255.73C256.004,258.313 257.87,262.906 255.43,265.704C255.43,265.704 252.632,267.785 250.12,265.704C247.608,263.623 249.761,259.533 250.192,258.241C250.623,256.949 248.039,248.697 252.632,232.409C252.632,232.409 240.577,234.777 231.894,230.615C223.212,226.453 221.633,227.027 219.695,229.395C217.758,231.763 218.547,236.427 219.982,237.073C219.982,237.073 217.327,238.867 220.197,243.101C220.197,243.101 221.273,245.254 219.695,248.196C218.116,251.138 217.04,251.497 217.686,255.874C218.332,260.251 217.112,261.184 217.112,261.184C217.112,261.184 214.601,262.619 211.73,261.041C208.86,259.462 210.008,255.659 210.654,253.578C211.3,251.497 208.375,250.636 209.873,234.563C211.371,218.489 214.385,216.05 214.385,216.05C214.385,216.05 210.582,214.615 212.735,210.74C212.735,210.74 210.152,208.946 211.013,206.578C211.874,204.21 213.022,205.717 213.022,205.717C213.022,205.717 212.233,203.923 214.672,203.277C217.111,202.631 219.264,201.124 219.91,199.33C220.556,197.536 220.412,190.002 222.063,188.208C223.243,186.926 226.365,189.676 228.051,191.349C228.754,192.048 229.786,192.282 230.723,191.96Z" style="fill:url(#_Linear2);fill-rule:nonzero;"/>
    </g>
    <g transform="matrix(1,0,0,1,-200.765,-175.629)">
        <path d="M256,212.35C244.224,213.386 239.547,213.583 241.128,218.228L256,212.35Z" style="fill:rgb(149,39,0);fill-opacity:0.4;fill-rule:nonzero;"/>
        <path d="M221.827,209.3C229.565,211.789 233.89,212.698 231.441,217.624L227.797,213.187L221.827,209.3Z" style="fill:rgb(149,39,0);fill-opacity:0.4;fill-rule:nonzero;"/>
        <path d="M231.441,217.625C231.441,217.625 231.513,214.208 226.921,211.586C222.328,208.964 218.925,207.819 216.981,211.143C216.981,211.143 218.438,209.385 223.331,211.822C228.223,214.258 231.441,217.625 231.441,217.625Z" style="fill:rgb(28,10,1);fill-rule:nonzero;"/>
        <path d="M241.127,218.228C241.127,218.228 241.127,215.478 251.997,213.024C258.584,211.537 260.528,212.365 262.076,215.264C262.076,215.264 260.758,213.617 255.686,214.507C250.614,215.395 241.127,218.228 241.127,218.228Z" style="fill:rgb(28,10,1);fill-rule:nonzero;"/>
    </g>
    <g transform="matrix(1,0,0,1,-200.765,-175.629)">
        <path d="M238.854,209.663C235.003,205.812 242.155,201.483 245.264,203.109C248.374,204.736 242.107,212.916 238.854,209.663Z" style="fill:rgb(169,149,131);fill-rule:nonzero;"/>
    </g>
    <g transform="matrix(1,0,0,1,-200.765,-175.629)">
        <path d="M232.779,208.85C235.7,206.217 231.2,200.239 228.378,201.961C225.555,203.684 229.382,211.912 232.779,208.85Z" style="fill:rgb(169,149,131);fill-rule:nonzero;"/>
    </g>
    <g transform="matrix(1,0,0,1,-200.765,-175.629)">
        <path d="M224.593,196.279L226.592,195.366C226.933,195.21 227.021,194.766 226.765,194.493L225.116,192.73C224.8,192.392 224.232,192.574 224.172,193.033L223.822,195.709C223.765,196.136 224.201,196.458 224.593,196.279Z" style="fill:rgb(243,126,136);fill-opacity:0.42;fill-rule:nonzero;"/>
    </g>
    <g transform="matrix(1,0,0,1,-200.765,-175.629)">
        <path d="M264.034,196.386L262.291,195.047C261.994,194.819 262.008,194.366 262.319,194.157L264.321,192.809C264.705,192.55 265.218,192.855 265.173,193.317L264.914,196.004C264.872,196.433 264.375,196.648 264.034,196.386Z" style="fill:rgb(243,126,136);fill-opacity:0.42;fill-rule:nonzero;"/>
    </g>
    <g transform="matrix(1,0,0,1,-200.765,-175.629)">
        <path d="M367.264,225.932C365.106,219.86 361.769,214.459 356.631,213.347C356.631,213.347 357.301,207.128 351.656,206.745C351.656,206.745 352.698,203.141 345.24,200.064C343.388,199.423 342.256,198.398 342.256,198.398C342.256,198.398 342.029,198.016 341.571,197.352C344.748,203.961 341.227,209.999 341.227,209.999C341.227,209.999 331.088,199.232 322.846,204.499C317.951,201.612 317.595,196.501 317.595,196.501C317.978,204.052 320.465,206.555 320.465,206.555C320.465,206.555 316.638,202.728 314.055,207.703C314.055,207.703 311.28,202.728 306.21,207.894C306.21,207.894 296.738,204.242 291.285,210.421C291.285,210.421 276.946,208.528 273.394,202.758C269.842,196.988 272.294,187.778 268.634,186.988C264.975,186.199 258.803,191.58 258.803,191.58C258.803,191.58 249.274,188.868 251.614,188L251.615,187.998C248.812,188.84 247.465,188.351 247.465,188.351L249.091,189.332C249.091,189.332 253.564,189.804 257.378,191.825C258.293,192.31 259.392,192.252 260.21,191.617C262.374,189.938 266.548,186.987 268.417,187.61C271,188.471 269.182,198.669 270.139,201.655C271.096,204.641 278.271,207.399 277.602,210.421C276.932,213.443 274.349,214.495 274.349,214.495C274.349,214.495 275.21,216.887 270.809,219.47C269.183,225.258 255.932,231.621 238.423,229.038C220.915,226.455 214.385,216.05 214.385,216.05C214.385,216.05 212.024,217.97 210.443,229.559C210.961,226.802 212.068,228.064 213.255,231.287C213.772,232.692 214.304,234.471 214.81,236.455C216.182,241.836 217.358,248.716 217.497,253.723L217.497,253.721C217.482,251.262 218.425,250.563 219.695,248.197C221.274,245.255 220.197,243.102 220.197,243.102C217.327,238.868 219.982,237.075 219.982,237.075C219.815,237 219.659,236.866 219.513,236.693C218.402,235.373 217.982,231.491 219.695,229.397C220.997,227.806 222.147,227.033 225.388,227.954C226.971,228.404 229.045,229.251 231.893,230.617C240.576,234.779 252.631,232.411 252.631,232.411C252.061,234.434 251.602,236.331 251.234,238.108C252.25,233.985 254.031,233.446 255.409,238.508C255.887,240.264 256.317,242.688 256.649,245.878C257.176,250.94 257.227,255.895 257.082,260.143C257.308,258.496 257.686,256.906 259.088,255.732C262.173,253.149 261.384,250.637 261.384,250.637C264.111,250.35 264.326,248.126 264.326,248.126C282.624,245.256 287.432,226.527 287.432,226.527C290.733,227.173 291.092,223.8 290.804,221.145C290.517,218.49 292.741,218.347 292.741,218.347C292.741,218.347 292.956,211.243 298.553,209.019C304.15,206.794 306.518,210.239 306.518,210.239C306.518,210.239 306.733,207.44 309.604,207.512C312.474,207.584 314.053,210.311 314.053,210.311C317.354,206.938 319.291,210.874 319.291,210.874C319.291,210.874 319.937,204.929 328.978,205.36C338.019,205.791 341.679,216.339 341.679,216.339C341.679,216.339 343.616,213.899 346.056,215.98C348.496,218.061 347.922,222.079 347.922,222.079C364.139,227.891 358.901,246.117 358.901,246.117C365.213,245.14 367.796,236.021 367.264,225.932Z" style="fill:rgb(149,39,0);fill-opacity:0.33;fill-rule:nonzero;"/>
    </g>
    <g transform="matrix(1,0,0,1,-200.765,-175.629)">
        <path d="M257.367,229.898C261.314,228.391 266.193,225.234 266.193,225.234C266.193,225.234 249.546,234.706 234.19,230.472C218.834,226.238 214.385,216.049 214.385,216.049C215.605,220.211 221.274,226.741 225.388,227.953C226.971,228.403 229.045,229.25 231.893,230.616C240.576,234.778 252.631,232.41 252.631,232.41C252.631,232.41 253.421,231.405 257.367,229.898Z" style="fill:rgb(149,39,0);fill-opacity:0.33;fill-rule:nonzero;"/>
    </g>
    <g transform="matrix(1,0,0,1,-200.765,-175.629)">
        <path d="M286.285,211.888C286.285,211.888 288.94,218.131 287.433,226.526C290.734,227.172 291.093,223.799 290.805,221.144C290.518,218.489 292.742,218.346 292.742,218.346C292.742,218.346 292.817,216.021 293.926,213.615C291.968,213.669 289.082,213.41 286.285,211.888Z" style="fill:rgb(149,39,0);fill-opacity:0.33;fill-rule:nonzero;"/>
    </g>
    <g transform="matrix(1,0,0,1,-200.765,-175.629)">
        <path d="M348.498,212.964C348.498,212.964 349.001,203.567 342.464,198.57C342.327,198.463 342.255,198.398 342.255,198.398C342.255,198.398 342.028,198.016 341.57,197.352C344.747,203.961 342.757,209.999 342.757,209.999C342.374,211.721 343.044,213.922 344.479,214.304C345.579,214.597 347.069,215.546 347.663,218.629C348.16,220.385 347.923,222.077 347.923,222.077C352.941,223.875 355.901,226.863 357.601,230.131L357.603,230.131C357.604,230.131 358.736,215.502 348.498,212.964Z" style="fill:rgb(149,39,0);fill-opacity:0.33;fill-rule:nonzero;"/>
    </g>
    <g transform="matrix(1,0,0,1,-200.765,-175.629)">
        <path d="M251.602,188.005C249.306,188.877 258.803,191.58 258.803,191.58C258.803,191.58 260.098,190.455 261.848,189.309C257.14,188.369 255.034,186.82 257.53,185.13C257.596,185.086 257.646,185.048 257.704,185.008C255.208,186.628 253.181,187.528 251.616,187.998C251.61,188.001 251.607,188.003 251.602,188.005Z" style="fill:rgb(169,149,131);fill-opacity:0.67;fill-rule:nonzero;"/>
    </g>
    <g transform="matrix(1,0,0,1,-200.765,-175.629)">
        <path d="M286.07,195.168C292.815,196.747 288.887,202.296 288.887,202.296C297.684,193.35 285.304,190.193 273.488,190.241C272.535,190.245 271.609,190.231 270.707,190.204C270.944,191.52 271.054,193.122 271.227,194.823C277.016,194.825 282.356,194.299 286.07,195.168Z" style="fill:rgb(169,149,131);fill-opacity:0.67;fill-rule:nonzero;"/>
    </g>
    <g transform="matrix(1,0,0,1,-200.765,-175.629)">
        <path d="M335.188,189.958C335.189,189.959 335.19,189.961 335.192,189.962C340.462,196.651 338.772,199.952 335.192,199.282C335.192,199.282 342.603,200.889 340.075,195.327C338.915,193.852 337.291,191.97 335.188,189.958Z" style="fill:rgb(169,149,131);fill-opacity:0.67;fill-rule:nonzero;"/>
    </g>
    <g transform="matrix(1,0,0,1,-200.765,-175.629)">
        <path d="M304.253,175.906C296.267,175.71 307.904,178.941 314.533,181.2C326.588,185.306 333.525,192.203 325.153,195.743C325.153,195.743 337.926,191.773 322.044,183.21C315.01,179.417 313.62,178.104 314.249,177.816C313.992,177.743 313.741,177.664 313.481,177.594C310.238,176.724 307.152,176.194 304.253,175.906Z" style="fill:rgb(169,149,131);fill-opacity:0.67;fill-rule:nonzero;"/>
    </g>
    <g transform="matrix(1,0,0,1,-200.765,-175.629)">
        <path d="M299.56,184.022C307.453,185.122 310.132,190.671 304.105,195.981C304.105,195.981 315.108,188.04 304.392,183.447C293.678,178.855 281.233,178.93 287.378,176.86C282.682,177.906 279.971,179.237 279.971,179.237C279.325,182.061 291.667,182.922 299.56,184.022Z" style="fill:rgb(169,149,131);fill-opacity:0.67;fill-rule:nonzero;"/>
    </g>
    <g transform="matrix(1,0,0,1,-200.765,-175.629)">
        <path d="M234.063,223.563C234.063,223.563 235.014,224.919 237.184,225.045C238.318,225.111 235.012,227.693 234.063,223.563Z" style="fill:rgb(166,39,116);fill-opacity:0.33;fill-rule:nonzero;"/>
        <path d="M232.34,220.963C232.345,220.774 232.499,220.62 232.689,220.629C232.878,220.632 233.028,220.788 233.026,220.977C233.023,221.15 233.074,221.685 233.335,221.865C233.476,221.963 233.695,221.954 233.984,221.839C234.352,221.693 234.692,221.622 235.006,221.601L235.036,219.823C235.039,219.634 235.2,219.485 235.385,219.486C235.574,219.489 235.725,219.646 235.722,219.835L235.691,221.644C236.323,221.755 236.828,222.049 237.216,222.282C237.401,222.394 237.712,222.582 237.792,222.558C238.199,222.436 238.547,221.742 238.642,221.509C238.713,221.333 238.913,221.248 239.088,221.318C239.264,221.389 239.35,221.588 239.279,221.764C239.233,221.88 238.828,222.85 238.131,223.163C238.086,223.183 238.038,223.202 237.99,223.216C237.619,223.328 237.268,223.116 236.862,222.871C236.222,222.486 235.426,222.006 234.238,222.478C233.719,222.683 233.285,222.666 232.942,222.43C232.335,222.004 232.338,221.068 232.34,220.963Z" style="fill:rgb(28,10,1);fill-rule:nonzero;"/>
        <g>
            <path d="M236.008,218.346C235.646,218.481 235.234,218.47 234.883,218.306C234.649,218.197 234.377,218.171 234.152,218.427C233.746,218.887 234.72,219.791 235.151,220.153C235.264,220.248 235.426,220.255 235.546,220.169C236.014,219.836 237.098,218.985 236.724,218.51C236.521,218.251 236.25,218.257 236.008,218.346Z" style="fill:rgb(249,212,185);fill-rule:nonzero;"/>
            <path d="M236.008,218.346C235.646,218.481 235.234,218.47 234.883,218.306C234.649,218.197 234.377,218.171 234.152,218.427C233.746,218.887 234.72,219.791 235.151,220.153C235.264,220.248 235.426,220.255 235.546,220.169C236.014,219.836 237.098,218.985 236.724,218.51C236.521,218.251 236.25,218.257 236.008,218.346Z" style="fill:rgb(94,41,11);fill-rule:nonzero;"/>
            <path d="M235.151,220.153C235.264,220.248 235.426,220.255 235.546,220.169C235.941,219.887 236.773,219.237 236.797,218.756C235.236,219.959 234.768,219.807 234.075,218.833C234.194,219.3 234.827,219.88 235.151,220.153Z" style="fill:rgb(191,151,136);fill-rule:nonzero;"/>
        </g>
    </g>
    <g transform="matrix(1,0,0,1,-200.765,-175.629)">
        <path d="M245.582,197.775C244.822,198.678 243.707,199.375 242.486,199.28C241.425,199.197 240.367,198.378 240.244,197.282C240.22,197.072 240.023,196.93 239.821,197.039C239.5,197.213 238.997,197.471 238.634,197.261C238.437,197.147 238.285,196.766 238.529,196.631C238.799,196.48 238.615,195.998 238.312,196.117C237.51,196.433 236.249,196.889 235.668,195.961C235.112,195.073 235.676,194.048 236.303,193.379C236.55,193.115 236.153,192.717 235.906,192.982C235.103,193.84 234.491,195.129 235.183,196.245C235.788,197.221 236.887,197.154 237.858,196.865C237.861,197.111 237.947,197.365 238.117,197.553C238.551,198.037 239.216,197.919 239.765,197.685C240.069,198.797 241.063,199.631 242.215,199.809C243.662,200.033 245.069,199.253 245.979,198.171C246.211,197.897 245.815,197.498 245.582,197.775Z" style="fill:rgb(166,39,0);fill-rule:nonzero;"/>
    </g>
    <g transform="matrix(1,0,0,1,-200.765,-175.629)">
        <path d="M267.44,221.114C267.09,221.024 266.94,221.566 267.291,221.656C268.407,221.942 269.391,222.647 270.011,223.619C270.205,223.923 270.692,223.642 270.496,223.335C269.799,222.242 268.697,221.436 267.44,221.114Z" style="fill:rgb(166,39,0);fill-rule:nonzero;"/>
    </g>
    <g transform="matrix(1,0,0,1,-200.765,-175.629)">
        <path d="M271.384,222.434C270.694,221.681 269.776,221.144 268.782,220.91C268.43,220.827 268.28,221.369 268.633,221.452C269.54,221.665 270.358,222.144 270.987,222.832C271.232,223.099 271.629,222.701 271.384,222.434Z" style="fill:rgb(166,39,0);fill-rule:nonzero;"/>
    </g>
    <g transform="matrix(1,0,0,1,-200.765,-175.629)">
        <path d="M215.751,204.499C215.88,204.57 216.064,204.534 216.136,204.398C216.206,204.266 216.172,204.089 216.035,204.013C215.962,203.973 215.891,203.93 215.822,203.884C215.791,203.863 215.759,203.842 215.729,203.82C215.711,203.807 215.693,203.793 215.674,203.78C215.631,203.748 215.694,203.797 215.668,203.775C215.543,203.671 215.422,203.564 215.312,203.444C215.258,203.386 215.208,203.325 215.158,203.263C215.137,203.237 215.185,203.3 215.154,203.257C215.141,203.239 215.127,203.221 215.114,203.202C215.092,203.171 215.071,203.14 215.05,203.109C214.959,202.97 214.879,202.824 214.811,202.673C214.751,202.538 214.545,202.496 214.426,202.572C214.287,202.662 214.261,202.812 214.325,202.956C214.616,203.606 215.13,204.156 215.751,204.499Z" style="fill:rgb(166,39,0);fill-rule:nonzero;"/>
    </g>
    <g transform="matrix(1,0,0,1,-200.765,-175.629)">
        <path d="M280.835,223.514C280.619,223.23 280.131,223.509 280.35,223.798C281.68,225.551 282.008,227.853 281.489,229.966C281.23,231.023 280.768,232.057 280.094,232.917C279.399,233.804 278.314,234.658 277.119,234.41C276.894,234.363 276.66,234.604 276.802,234.823C277.137,235.342 277.524,236.179 277.103,236.762C276.862,237.095 276.244,237.275 275.95,236.926C275.896,236.878 275.852,236.823 275.793,236.78C275.561,236.609 275.268,236.938 275.408,237.165C275.504,237.321 275.63,237.433 275.769,237.516C276.516,238.348 276.401,239.783 275.681,240.603C274.693,241.729 272.971,241.773 271.663,241.268C271.325,241.138 271.179,241.681 271.514,241.81C273.078,242.414 275.162,242.239 276.234,240.809C276.907,239.911 277.029,238.642 276.536,237.667C276.847,237.631 277.155,237.499 277.389,237.282C278.037,236.68 277.884,235.741 277.534,234.996C279.275,235.001 280.655,233.376 281.376,231.912C282.211,230.215 282.5,228.249 282.123,226.39C281.912,225.348 281.476,224.359 280.835,223.514Z" style="fill:rgb(166,39,0);fill-rule:nonzero;"/>
    </g>
    <g transform="matrix(1,0,0,1,-200.765,-175.629)">
        <path d="M333.687,198.695C334.171,197.557 333.466,196.253 332.252,195.987C332.606,195.126 332.695,194.186 332.591,193.259C332.48,192.275 332.199,191.257 331.41,190.597C329.716,189.181 327.434,189.859 325.584,190.527C325.246,190.649 325.392,191.192 325.733,191.069C327.343,190.487 329.377,189.779 330.92,190.923C331.66,191.471 331.929,192.381 332.028,193.259C332.136,194.213 332.068,195.198 331.619,196.062C331.52,196.252 331.642,196.48 331.862,196.485C333.095,196.514 333.686,197.882 332.964,198.843C332.806,199.053 333.066,199.307 333.281,199.256C334.402,198.992 334.888,200.446 334.649,201.293C334.364,202.304 333.32,202.877 332.309,202.642C331.957,202.56 331.807,203.102 332.16,203.184C333.54,203.505 334.976,202.659 335.239,201.237C335.361,200.579 335.243,199.895 334.82,199.365C334.53,198.999 334.128,198.755 333.687,198.695Z" style="fill:rgb(166,39,0);fill-rule:nonzero;"/>
    </g>
    <g transform="matrix(1,0,0,1,-200.765,-175.629)">
        <path d="M308.644,201.972C308.395,200.697 307.877,199.262 306.431,199.047C305.676,198.934 304.934,199.223 304.277,199.568C303.571,199.94 302.929,200.424 302.362,200.984C302.104,201.239 302.502,201.636 302.759,201.382C303.236,200.911 303.763,200.502 304.346,200.171C304.906,199.853 305.554,199.541 306.215,199.586C307.676,199.687 308.001,201.433 308.183,202.58C308.216,202.787 308.521,202.852 308.653,202.704C309.364,201.908 310.57,202.109 311.005,203.074C311.153,203.403 311.638,203.118 311.49,202.79C310.984,201.665 309.607,201.338 308.644,201.972Z" style="fill:rgb(166,39,0);fill-rule:nonzero;"/>
    </g>
    <g transform="matrix(1,0,0,1,-200.765,-175.629)">
        <path d="M361.695,222.246C362.104,221.966 362.392,221.472 362.415,220.975C362.454,220.142 361.843,219.497 361.164,219.067C361.461,218.706 361.575,218.055 361.604,217.683C361.672,216.816 361.494,215.941 361.152,215.146C360.424,213.453 358.958,212.247 357.244,211.633C356.224,211.267 355.133,211.116 354.052,211.128C353.691,211.132 353.69,211.694 354.052,211.69C356.023,211.668 358.095,212.243 359.506,213.684C360.171,214.363 360.662,215.213 360.901,216.134C361.019,216.589 361.072,217.056 361.051,217.525C361.041,217.758 360.968,218.889 360.543,218.735C360.247,218.628 360.037,219.115 360.326,219.249C360.945,219.534 361.646,219.97 361.822,220.68C361.968,221.27 361.452,222.104 360.781,221.874C360.429,221.779 360.292,222.3 360.632,222.416C362.346,222.88 363.68,224.514 363.706,226.307C363.732,228.099 362.468,229.78 360.764,230.299C360.419,230.404 360.566,230.947 360.914,230.841C362.852,230.251 364.3,228.35 364.268,226.307C364.243,224.599 363.184,223.028 361.695,222.246Z" style="fill:rgb(166,39,0);fill-rule:nonzero;"/>
    </g>
    <g transform="matrix(1,0,0,1,-200.765,-175.629)">
        <path d="M354.66,201.423C355.506,201.025 356.068,200.118 356.074,199.187C356.075,199.035 355.944,198.906 355.793,198.906C355.64,198.906 355.513,199.035 355.512,199.187C355.512,199.236 355.51,199.285 355.507,199.334C355.505,199.358 355.503,199.383 355.5,199.407C355.498,199.427 355.498,199.427 355.501,199.405C355.5,199.415 355.498,199.424 355.497,199.434C355.481,199.531 355.46,199.626 355.432,199.72C355.418,199.767 355.402,199.813 355.385,199.859C355.385,199.858 355.353,199.94 355.369,199.901C355.361,199.919 355.353,199.937 355.345,199.955C355.302,200.048 355.252,200.139 355.197,200.225C355,200.534 354.729,200.774 354.377,200.94C354.24,201.005 354.205,201.202 354.276,201.325C354.358,201.463 354.522,201.488 354.66,201.423Z" style="fill:rgb(166,39,0);fill-rule:nonzero;"/>
    </g>
    <g transform="matrix(1,0,0,1,-200.765,-175.629)">
        <path d="M355.955,201.177C355.907,201.191 355.858,201.202 355.809,201.211C355.801,201.212 355.72,201.223 355.785,201.216C355.76,201.219 355.735,201.221 355.71,201.223C355.66,201.226 355.61,201.227 355.56,201.225C355.539,201.224 355.518,201.223 355.497,201.221C355.484,201.22 355.472,201.219 355.459,201.217C355.492,201.222 355.492,201.222 355.459,201.217C355.314,201.194 355.15,201.254 355.113,201.413C355.082,201.548 355.154,201.734 355.309,201.759C355.8,201.836 356.305,201.721 356.708,201.424C357.103,201.134 357.41,200.712 357.483,200.219C357.505,200.074 357.447,199.91 357.287,199.873C357.154,199.843 356.964,199.914 356.941,200.069C356.926,200.169 356.902,200.266 356.868,200.361C356.864,200.373 356.834,200.44 356.859,200.386C356.849,200.409 356.838,200.431 356.827,200.454C356.806,200.495 356.784,200.535 356.759,200.574C356.746,200.595 356.732,200.616 356.718,200.637C356.713,200.644 356.67,200.703 356.688,200.679C356.709,200.652 356.667,200.704 356.663,200.709C356.647,200.728 356.63,200.747 356.613,200.765C356.579,200.802 356.543,200.837 356.506,200.871C356.487,200.888 356.468,200.904 356.449,200.92C356.44,200.928 356.44,200.928 356.437,200.931C356.433,200.933 356.434,200.933 356.426,200.938C356.347,200.994 356.266,201.046 356.179,201.09C356.157,201.101 356.134,201.112 356.111,201.122C356.082,201.136 356.146,201.11 356.097,201.128C356.05,201.146 356.004,201.163 355.955,201.177Z" style="fill:rgb(166,39,0);fill-rule:nonzero;"/>
    </g>
    <g transform="matrix(1,0,0,1,-200.765,-175.629)">
        <path d="M367.484,221.099C367.502,221.25 367.6,221.38 367.765,221.38C367.903,221.38 368.064,221.251 368.046,221.099C367.974,220.491 367.608,219.998 367.102,219.667C366.543,219.302 365.865,219.19 365.218,219.09C365.068,219.067 364.916,219.128 364.872,219.286C364.835,219.419 364.917,219.608 365.068,219.632C365.628,219.719 366.22,219.802 366.718,220.092C367.084,220.303 367.432,220.661 367.484,221.099Z" style="fill:rgb(166,39,0);fill-rule:nonzero;"/>
    </g>
    <g transform="matrix(1,0,0,1,-200.765,-175.629)">
        <path d="M366.134,234.088C365.996,234.024 365.831,234.049 365.749,234.189C365.678,234.31 365.711,234.509 365.85,234.574C366.715,234.974 367.347,235.745 367.562,236.669C367.597,236.817 367.766,236.904 367.908,236.865C368.06,236.823 368.139,236.668 368.104,236.519C367.86,235.468 367.115,234.542 366.134,234.088Z" style="fill:rgb(166,39,0);fill-rule:nonzero;"/>
    </g>
    <g transform="matrix(1,0,0,1,-200.765,-175.629)">
        <path d="M322.035,178.951C321.892,179.032 321.872,179.198 321.934,179.336C322.401,180.363 323.019,181.804 322.159,182.81C321.925,183.084 322.321,183.483 322.556,183.208C323.011,182.675 323.188,181.975 323.132,181.282C323.068,180.492 322.742,179.765 322.418,179.052C322.356,178.913 322.157,178.882 322.035,178.951Z" style="fill:rgb(166,39,0);fill-rule:nonzero;"/>
    </g>
    <g transform="matrix(1,0,0,1,-200.765,-175.629)">
        <path d="M324.096,180.552C323.943,180.594 323.867,180.749 323.9,180.898C324.025,181.461 323.949,182.08 323.685,182.598C323.616,182.733 323.65,182.903 323.786,182.982C323.911,183.055 324.101,183.017 324.17,182.881C324.506,182.221 324.602,181.47 324.441,180.747C324.409,180.6 324.237,180.513 324.096,180.552Z" style="fill:rgb(166,39,0);fill-rule:nonzero;"/>
    </g>
    <g transform="matrix(1,0,0,1,-200.765,-175.629)">
        <path d="M271.41,179.256C271.533,179.184 271.598,178.996 271.511,178.871C271.012,178.157 270.778,177.264 270.909,176.398C270.932,176.248 270.871,176.096 270.713,176.052C270.58,176.016 270.39,176.097 270.367,176.248C270.214,177.262 270.435,178.31 271.026,179.155C271.112,179.279 271.271,179.337 271.41,179.256Z" style="fill:rgb(166,39,0);fill-rule:nonzero;"/>
    </g>
    <g transform="matrix(1,0,0,1,-200.765,-175.629)">
        <path d="M215.154,257.519C215.222,257.165 214.68,257.014 214.612,257.369C214.341,258.78 214.204,260.412 214.68,261.779C214.887,261.774 215.08,261.757 215.267,261.734C214.756,260.443 214.899,258.842 215.154,257.519Z" style="fill:rgb(166,39,0);fill-rule:nonzero;"/>
    </g>
    <g transform="matrix(1,0,0,1,-200.765,-175.629)">
        <path d="M212.006,256.874C212.039,256.514 211.476,256.516 211.444,256.874C211.318,258.266 211.341,259.764 211.812,261.081C212.065,261.216 212.315,261.324 212.56,261.415C211.887,260.049 211.869,258.388 212.006,256.874Z" style="fill:rgb(166,39,0);fill-rule:nonzero;"/>
    </g>
    <g transform="matrix(1,0,0,1,-200.765,-175.629)">
        <path d="M253.875,262.127C254.011,261.792 253.468,261.647 253.333,261.978C252.733,263.452 252.661,265.08 253.068,266.6C253.258,266.579 253.442,266.548 253.617,266.507C253.22,265.068 253.309,263.518 253.875,262.127Z" style="fill:rgb(166,39,0);fill-rule:nonzero;"/>
    </g>
    <g transform="matrix(1,0,0,1,-200.765,-175.629)">
        <path d="M251.122,262.037C251.238,261.693 250.695,261.546 250.58,261.888C250.147,263.174 250.077,264.55 250.34,265.865C250.561,266.026 250.783,266.164 251.006,266.269C250.624,264.889 250.66,263.409 251.122,262.037Z" style="fill:rgb(166,39,0);fill-rule:nonzero;"/>
    </g>
    <g transform="matrix(1,0,0,1,-200.765,-175.629)">
        <g>
            <path d="M201.286,217.502C205.788,215.774 210.494,214.614 215.281,214.036C215.74,213.981 215.595,213.278 215.14,213.333C210.29,213.919 205.53,215.108 200.969,216.859C200.539,217.024 200.859,217.666 201.286,217.502Z" style="fill:rgb(109,38,19);fill-rule:nonzero;"/>
        </g>
        <g>
            <path d="M207.422,225.226C209.706,221.715 213.047,218.994 216.941,217.452C217.371,217.282 217.05,216.64 216.624,216.809C212.618,218.395 209.169,221.225 206.82,224.836C206.569,225.222 207.169,225.613 207.422,225.226Z" style="fill:rgb(109,38,19);fill-rule:nonzero;"/>
        </g>
        <g>
            <path d="M212.186,228.201C213.949,225.328 216.144,222.757 218.706,220.566C219.057,220.266 218.581,219.731 218.23,220.03C215.624,222.259 213.379,224.887 211.585,227.81C211.344,228.204 211.944,228.596 212.186,228.201Z" style="fill:rgb(109,38,19);fill-rule:nonzero;"/>
        </g>
        <g>
            <path d="M266.688,217.461C269.402,218.279 272.011,219.432 274.43,220.912C275.629,221.646 276.783,222.455 277.88,223.335C278.408,223.758 278.923,224.198 279.425,224.653C279.999,225.174 280.597,225.699 280.813,226.471C280.937,226.915 281.597,226.632 281.474,226.193C281.274,225.477 280.78,224.947 280.252,224.448C279.704,223.929 279.133,223.432 278.548,222.954C277.419,222.031 276.229,221.183 274.988,220.417C272.478,218.866 269.775,217.646 266.95,216.794C266.513,216.662 266.245,217.328 266.688,217.461Z" style="fill:rgb(109,38,19);fill-rule:nonzero;"/>
        </g>
        <g>
            <path d="M263.106,220.608C266.934,223.61 269.781,227.732 271.253,232.367C271.393,232.807 272.052,232.526 271.914,232.09C270.404,227.337 267.455,223.107 263.531,220.031C263.169,219.746 262.743,220.323 263.106,220.608Z" style="fill:rgb(109,38,19);fill-rule:nonzero;"/>
        </g>
        <g>
            <path d="M260.169,223.678C262.001,226.569 264.002,229.854 263.21,233.424C263.11,233.874 263.822,233.956 263.922,233.509C264.756,229.75 262.661,226.279 260.733,223.235C260.485,222.846 259.924,223.291 260.169,223.678Z" style="fill:rgb(109,38,19);fill-rule:nonzero;"/>
        </g>
    </g>
    <g transform="matrix(1,0,0,1,-200.765,-175.629)">
        <path d="M229.478,238.414C229.478,238.414 232.898,238.868 233.329,237.577C233.329,237.577 236.199,240.662 238.711,239.802C238.711,239.802 241.151,244.466 244.164,244.825C244.164,244.825 240.289,246.619 240.289,248.915C240.289,248.915 239.811,244.897 236.821,245.614C236.821,245.614 237.594,240.741 232.34,242.137C232.34,242.136 234.31,239.538 229.478,238.414Z" style="fill:rgb(166,39,0);fill-opacity:0.16;fill-rule:nonzero;"/>
    </g>
    <g transform="matrix(1,0,0,1,-200.765,-175.629)">
        <path d="M298.771,238.653C298.771,238.653 299.202,231.912 305.444,230.854C311.687,229.796 321.517,238.007 321.517,238.007C321.517,238.007 326.612,235.782 328.836,238.007C328.836,238.007 328.836,233.838 334.289,233.806C334.289,233.806 336.083,229.038 340.46,231.262C340.46,231.262 339.671,226.551 343.258,224.565C343.258,224.565 339.598,224.175 340.531,220.902C340.531,220.902 338.011,228.714 330.337,228.445C330.337,228.445 331.561,232.403 328.906,233.806C326.251,235.209 322.663,231.334 322.663,231.334C322.663,231.334 320.582,234.27 315.99,232.766C311.398,231.262 311.516,226.694 311.516,226.694C311.516,226.694 309.03,230.23 304.653,229.777C300.276,229.324 298.759,226.694 298.759,226.694C298.759,226.694 299.127,231.455 295.898,233.081C295.901,233.081 298.053,233.989 298.771,238.653Z" style="fill:rgb(166,39,0);fill-opacity:0.16;fill-rule:nonzero;"/>
    </g>
    <defs>
        <linearGradient id="_Linear1" x1="0" y1="0" x2="1" y2="0" gradientUnits="userSpaceOnUse" gradientTransform="matrix(-15.4241,-59.8732,59.8732,-15.4241,297.03,267.951)"><stop offset="0" style="stop-color:rgb(243,184,136);stop-opacity:1"/><stop offset="0.08" style="stop-color:rgb(245,191,149);stop-opacity:1"/><stop offset="0.35" style="stop-color:rgb(249,212,185);stop-opacity:1"/><stop offset="0.6" style="stop-color:rgb(252,227,211);stop-opacity:1"/><stop offset="0.82" style="stop-color:rgb(254,236,227);stop-opacity:1"/><stop offset="1" style="stop-color:rgb(255,239,232);stop-opacity:1"/></linearGradient>
        <linearGradient id="_Linear2" x1="0" y1="0" x2="1" y2="0" gradientUnits="userSpaceOnUse" gradientTransform="matrix(-10.7194,-56.8403,56.8403,-10.7194,289.873,247.786)"><stop offset="0" style="stop-color:rgb(255,84,36);stop-opacity:1"/><stop offset="0.41" style="stop-color:rgb(255,119,47);stop-opacity:1"/><stop offset="1" style="stop-color:rgb(255,177,64);stop-opacity:1"/></linearGradient>
    </defs>
</svg>
