<?xml version="1.0" encoding="UTF-8" standalone="no"?>
<!DOCTYPE svg PUBLIC "-//W3C//DTD SVG 1.1//EN" "http://www.w3.org/Graphics/SVG/1.1/DTD/svg11.dtd">
<svg width="100%" height="100%" viewBox="0 0 196 75" version="1.1" xmlns="http://www.w3.org/2000/svg" xmlns:xlink="http://www.w3.org/1999/xlink" xml:space="preserve" xmlns:serif="http://www.serif.com/" style="fill-rule:evenodd;clip-rule:evenodd;stroke-linejoin:round;stroke-miterlimit:2;">
    <g transform="matrix(1,0,0,1,-354.991,-54.7575)">
        <path d="M365.242,96.202C369.911,96.52 374.528,97.421 378.979,98.867C379.406,99.006 379.565,98.328 379.142,98.191C374.633,96.726 369.956,95.829 365.226,95.507C364.779,95.476 364.799,96.172 365.242,96.202Z" style="fill:rgb(56,25,5);fill-rule:nonzero;"/>
        <path d="M367.489,105.508C370.934,103.35 374.987,102.319 379.045,102.552C379.493,102.578 379.473,101.882 379.029,101.857C374.855,101.617 370.662,102.7 367.119,104.919C366.74,105.156 367.108,105.746 367.489,105.508Z" style="fill:rgb(56,25,5);fill-rule:nonzero;"/>
        <path d="M370.467,110.074C373.192,108.265 376.175,106.898 379.325,106.016C379.756,105.895 379.556,105.229 379.125,105.35C375.92,106.248 372.87,107.644 370.097,109.485C369.725,109.731 370.093,110.322 370.467,110.074Z" style="fill:rgb(56,25,5);fill-rule:nonzero;"/>
    </g>
    <g transform="matrix(1,0,0,1,-354.991,-54.7575)">
        <path d="M391.697,75.35C387.443,69.001 383.54,69.953 382.19,72.366C381.447,73.695 381.525,75.01 382.025,75.978C380.225,76.764 379.055,78.436 379.95,79.859C379.95,79.859 380.402,77.348 382.175,76.255C382.593,76.898 383.21,77.346 383.906,77.446C385.665,77.7 385.601,75.16 383.188,75.605C382.923,75.654 382.667,75.73 382.417,75.816C382.171,75.314 382.043,74.654 382.172,73.811C382.529,71.478 385.577,69.978 388.41,72.025C391.236,74.068 393.543,83.189 399.653,79.878C399.226,80.057 395.685,81.302 391.697,75.35ZM384.173,77.031C383.717,77.083 383.005,76.763 382.55,76.041C384.49,75.172 384.945,76.942 384.173,77.031Z" style="fill:rgb(71,124,36);fill-rule:nonzero;"/>
        <path d="M399.654,79.878C399.683,79.866 399.697,79.859 399.697,79.859C399.682,79.867 399.669,79.869 399.654,79.878Z" style="fill:rgb(71,124,36);fill-rule:nonzero;"/>
    </g>
    <g transform="matrix(1,0,0,1,-354.991,-54.7575)">
        <path d="M389.221,84.001C389.221,84.001 386.126,82.811 387.888,80.62C389.65,78.43 394.031,80.62 394.031,80.62C394.031,80.62 393.602,81.477 400.746,77.763C407.889,74.049 418.365,71.287 422.365,70.62C426.365,69.953 426.651,70.334 425.508,73.62C424.365,76.906 421.413,81.144 419.175,83.715C419.175,83.715 424.413,83.286 428.985,75.953C433.557,68.62 436.604,60.762 440.842,65.572C440.842,65.572 440.032,62.715 443.128,62.239C446.224,61.763 446.08,65.429 446.08,65.429C446.08,65.429 445.699,62.048 449.937,62.429C449.937,62.429 461.223,53.905 476.509,55.857C491.795,57.809 488.224,59.762 493.557,58.952C498.89,58.142 499.319,61.142 498.938,62.333C498.938,62.333 503.7,61.952 503.271,64.095C503.271,64.095 514.366,66.619 520.081,78.81C525.795,91.001 522.081,98.525 515.986,101.953C515.986,101.953 519.923,103.382 516.621,107.191C516.621,107.191 518.272,106.715 520.177,108.905C522.082,111.095 521.796,98.524 530.749,95.571C539.702,92.619 547.797,98.547 547.321,105.63C547.321,105.63 548.94,103.475 550.274,106.333C551.607,109.19 552.274,119.286 539.226,122.238C526.178,125.191 514.749,121.667 514.749,121.667C514.749,121.667 503.749,124.524 502.034,116.238C502.034,116.238 498.367,119.429 494.177,120.952C489.986,122.476 484.659,122.374 483.129,122.391C481.17,122.414 479.804,121.775 479.052,121.291C478.583,120.989 478.316,120.459 478.371,119.904C478.488,118.713 479.137,116.667 482.178,116.333C486.511,115.857 485.273,116.857 493.273,113.952C501.273,111.047 498.559,109.952 496.702,109.523C494.845,109.094 489.416,108.142 489.416,108.142C489.416,108.142 487.892,112.19 478.987,115.714C478.987,115.714 474.368,121.19 472.034,122.143C469.701,123.095 456.7,123.417 456.7,123.417C456.7,123.417 454.271,125.286 451.843,123.143C451.843,123.143 448.557,127.096 443.319,122.143C443.319,122.143 437.605,125 431.065,123.032C424.525,121.064 418.684,125.254 416.017,124.048C416.017,124.048 408.144,127.54 405.731,123.667C405.731,123.667 404.08,124.937 402.112,123.667C402.112,123.667 393.032,124.175 387.953,122.207C382.874,120.239 377.35,113.309 375.826,105.631C375.826,105.631 373.794,103.794 375.445,101.635C375.445,101.635 375.112,99.589 375.517,97.35C375.618,96.792 376.058,96.368 376.618,96.279C377.479,96.142 378.918,95.627 380.603,93.878C381.263,93.193 381.707,92.325 381.879,91.39C381.954,90.982 382.179,90.511 382.747,90.142C384.017,89.317 386.176,87.348 386.049,86.332C386.046,86.335 384.205,83.89 389.221,84.001Z" style="fill:url(#_Linear1);fill-rule:nonzero;"/>
    </g>
    <g transform="matrix(1,0,0,1,-354.991,-54.7575)">
        <path d="M487.469,57.99C487.65,58.048 487.79,58.1 487.95,58.155C487.902,58.14 487.857,58.116 487.809,58.102C487.684,58.064 487.585,58.028 487.469,57.99Z" style="fill:rgb(149,39,0);fill-opacity:0.18;fill-rule:nonzero;"/>
        <path d="M539.509,120.24C533.943,120.484 533.604,117.288 533.604,117.288C525.128,117.479 520.842,109.859 522.883,104.011C521.547,107.322 521.143,110.02 520.175,108.907C519.858,108.543 519.554,108.274 519.258,108.043C521.445,111.537 518.26,116.521 513.223,113.955C508.175,111.383 507.386,105.522 507.386,105.522C511.095,108.875 516.619,107.193 516.619,107.193C506.555,109.161 506.365,95.383 506.365,95.383C508.376,100.842 512.822,101.804 514.887,101.947C506.492,100.653 507.698,92.145 507.698,92.145C509.412,96.145 517.793,97.574 511.508,86.907C505.222,76.24 505.222,63.859 510.365,67.764C511.408,68.556 512.575,69.351 513.772,70.118C508.598,65.316 503.27,64.097 503.27,64.097C503.699,61.954 498.937,62.335 498.937,62.335C499.318,61.144 498.889,58.144 493.556,58.954C490.521,59.415 490.335,58.975 487.95,58.156C498.465,61.446 506.247,76.56 501.032,83.955C495.794,91.384 484.079,103.384 479.508,93.67C474.937,83.956 478.272,70.537 478.272,70.537C478.272,70.537 469.518,101.765 459.698,101.956C453.544,102.075 444.015,96.622 449.035,88.686C454.055,80.749 447.062,82.273 435.062,83.543C424.74,84.635 424.398,82.055 426.33,79.445C422.601,83.433 419.173,83.717 419.173,83.717C421.411,81.146 424.364,76.907 425.506,73.622C426.649,70.336 426.363,69.955 422.363,70.622C418.363,71.289 407.887,74.051 400.744,77.765C396.318,80.067 394.801,80.612 394.286,80.694C397.069,81.478 395.692,80.34 404.077,81.003C412.72,81.687 419.696,86.082 419.696,86.082C419.696,86.082 436.141,83.796 444.141,83.479C452.141,83.162 449.538,87.035 442.046,96.051C434.554,105.067 429.792,108.94 429.792,108.94C429.792,108.94 427.935,110.575 429.173,110.908C430.411,111.241 432.745,111.003 432.745,113.194C432.745,115.385 430.3,117.385 430.3,117.385C428.459,121.702 426.998,119.988 426.998,119.988C416.395,125.448 412.141,120.94 412.141,120.94C412.141,120.94 407.569,121.448 396.585,120.432C385.601,119.416 378.299,114.718 375.823,105.634C377.347,113.312 382.871,120.242 387.95,122.21C393.029,124.178 402.109,123.67 402.109,123.67C404.077,124.94 405.728,123.67 405.728,123.67C408.141,127.543 416.014,124.051 416.014,124.051C418.681,125.257 424.522,121.067 431.062,123.035C437.602,125.003 443.316,122.146 443.316,122.146C448.554,127.099 451.84,123.146 451.84,123.146C454.269,125.289 456.697,123.42 456.697,123.42C456.697,123.42 459.419,123.352 462.591,123.188C461.869,123.223 462.197,122.432 466.673,119.908C466.849,119.809 459.625,123.112 459.416,123.096C451.062,123.624 449.125,119.543 449.125,119.543C453.316,117.765 457.125,111.606 457.125,111.606C452.204,116.781 448.631,118.02 448.426,117.987C451.62,116.454 452.775,111.542 452.775,111.542C452.775,111.542 448.33,118.238 445.356,120.584C441.261,123.441 427.124,121.098 434.362,118.907C441.6,116.717 436.362,108.907 436.791,105.954C437.22,103.002 440.791,104.097 440.791,104.097C441.029,101.764 445.458,103.478 449.982,106.335C454.506,109.192 461.125,113.24 466.506,114.43C471.887,115.621 473.601,111.732 473.601,111.732C473.601,111.732 473.506,110.303 474.109,109.351C474.712,108.399 477.315,106.462 478.363,106.811C479.411,107.16 481.506,110.716 481.284,111.795C481.062,112.874 480.332,113.89 478.982,115.716C487.887,112.192 489.411,108.144 489.411,108.144C489.411,108.144 494.84,109.096 496.697,109.525C498.554,109.954 501.269,111.049 493.268,113.954C485.268,116.859 486.506,115.859 482.173,116.335C479.132,116.669 478.483,118.715 478.366,119.906C478.312,120.461 478.579,120.991 479.047,121.293C479.799,121.777 481.166,122.416 483.124,122.393C484.654,122.375 489.982,122.477 494.172,120.954C498.362,119.43 502.029,116.24 502.029,116.24C503.743,124.526 514.744,121.669 514.744,121.669C514.744,121.669 526.173,125.193 539.221,122.24C546.208,120.659 549.243,117.031 550.368,113.562C547.842,117.48 545.054,119.997 539.509,120.24Z" style="fill:rgb(149,39,0);fill-opacity:0.33;fill-rule:nonzero;"/>
    </g>
    <g transform="matrix(1,0,0,1,-354.991,-54.7575)">
        <path d="M425.507,73.62C426.65,70.334 426.364,69.953 422.364,70.62C418.364,71.287 407.888,74.049 400.745,77.763C396.319,80.065 394.802,80.61 394.287,80.692C397.07,81.476 395.693,80.338 404.078,81.001C407.833,81.298 411.272,82.296 413.963,83.33C415.205,83.514 417.073,83.725 419.174,83.716C421.412,81.144 424.364,76.906 425.507,73.62Z" style="fill:rgb(149,39,0);fill-opacity:0.4;fill-rule:nonzero;"/>
    </g>
    <g transform="matrix(1,0,0,1,-354.991,-54.7575)">
        <path d="M429.745,120.05C434.153,118.792 432.596,113.193 433.428,109.383C434.342,105.195 440.436,100.026 444.523,93.023C443.918,94.059 442.948,94.966 442.047,96.05C434.555,105.066 429.793,108.939 429.793,108.939C429.793,108.939 427.936,110.574 429.174,110.907C430.412,111.24 432.746,111.002 432.746,113.193C432.746,115.384 430.301,117.384 430.301,117.384C428.46,121.701 426.999,119.987 426.999,119.987C426.999,119.987 423.75,122.95 420.67,123.623C423.543,122.868 427.176,121.865 431.062,123.034C431.563,123.185 432.057,123.299 432.546,123.396C431.869,123.193 425.57,121.241 429.745,120.05Z" style="fill:rgb(149,39,0);fill-opacity:0.4;fill-rule:nonzero;"/>
    </g>
    <g transform="matrix(1,0,0,1,-354.991,-54.7575)">
        <path d="M523.176,120.526C520.033,116.383 520.938,109.573 521.943,106.59L521.943,106.589C521.276,108.535 520.87,109.705 520.175,108.906C519.858,108.542 519.554,108.273 519.258,108.042C519.258,108.042 521.651,111.239 520.128,115.239C518.604,119.239 516.318,119.62 516.318,119.62C518.032,118.048 517.794,115.763 517.794,115.763C517.794,115.763 516.365,121.001 511.556,115.906C506.746,110.811 507.384,106.04 507.384,106.04C509.071,106.803 509.122,106.37 510.08,106.969C505.042,103.734 506.366,95.381 506.366,95.381C507.087,97.338 508.123,98.71 509.248,99.68C506.109,96.673 506.497,90.907 507.524,91.539C508.555,92.174 510.367,87.285 507.524,79.348C504.681,71.411 497.668,65.266 497.668,65.266C500.701,68.48 504.589,76.427 504.589,76.427C509.541,80.3 505.351,84.618 505.351,84.618C507.637,87.158 507.129,92.618 505.414,95.221C503.699,97.824 501.604,100.745 502.239,102.396C502.874,104.047 507.826,108.936 507.509,110.505C507.191,112.074 504.588,114.206 502.033,116.238C503.747,124.524 514.748,121.667 514.748,121.667C514.748,121.667 522.327,124.002 532.186,123.276C528.575,123.156 524.694,122.527 523.176,120.526Z" style="fill:rgb(149,39,0);fill-opacity:0.4;fill-rule:nonzero;"/>
    </g>
    <g transform="matrix(1,0,0,1,-354.991,-54.7575)">
        <path d="M477.857,100.748C475,93.573 476.016,79.859 476.016,79.859C474.429,86.653 475.318,98.209 476.968,101.637C478.619,105.066 480.143,105.256 480.143,105.256C478.175,106.272 475.635,104.685 475.635,104.685C474.302,107.987 471.254,104.147 471.254,104.147C472.46,107.164 470.746,112.94 467.825,113.257C465.365,113.524 457.286,110.206 450.005,106.349C454.528,109.206 461.135,113.243 466.508,114.431C471.889,115.622 473.603,111.733 473.603,111.733C473.603,111.733 473.508,110.304 474.111,109.352C474.714,108.4 477.317,106.463 478.365,106.812C479.413,107.161 481.508,110.717 481.286,111.796C481.064,112.875 480.334,113.891 478.984,115.717C487.889,112.193 489.413,108.145 489.413,108.145C489.413,108.145 480.714,107.922 477.857,100.748Z" style="fill:rgb(149,39,0);fill-opacity:0.4;fill-rule:nonzero;"/>
    </g>
    <g transform="matrix(1,0,0,1,-354.991,-54.7575)">
        <path d="M418.055,71.025C416.436,70.358 415.317,71.287 415.341,72.168C415.341,72.168 414.269,71.882 412.93,72.989C412.93,72.989 414.96,72.264 416.103,72.74C417.585,73.358 419.327,76.124 419.905,78.812C420.476,81.471 420.132,82.568 419.863,82.901L419.421,83.431C419.421,83.431 420.818,83.789 420.794,81.955C420.794,81.955 421.437,82.288 421.627,79.193C421.816,76.096 419.674,71.691 418.055,71.025ZM420.84,81.549C420.84,81.549 420.721,78.478 419.173,75.573C417.625,72.668 415.719,72.175 415.719,72.175C416.697,69.954 419.816,72.073 420.84,76.002C421.864,79.93 420.84,81.549 420.84,81.549Z" style="fill:url(#_Linear2);fill-rule:nonzero;"/>
    </g>
    <g transform="matrix(1,0,0,1,-354.991,-54.7575)">
        <path d="M430.301,117.383C416.999,124.002 408.078,123.622 408.078,123.622C415.888,122.718 428.428,112.144 429.174,110.906C429.92,109.668 428.908,109.992 428.908,109.992C419.446,119.938 410.748,122.673 407.305,123.404C407.129,123.426 405.074,123.639 403.935,121.93C402.745,120.144 400.935,116.43 398.173,116.716C395.411,117.002 396.935,119.954 392.792,120.549C390.758,120.841 389.015,121.119 387.527,121.644C387.717,120.655 387.777,119.576 387.618,118.462C387.172,115.335 385.014,112.501 374.795,118.764C364.576,125.026 374.6,119.383 374.6,119.383C374.6,119.383 382.124,114.145 385.41,115.811C387.269,116.754 387.389,119.57 386.721,121.977C385.539,122.51 384.529,123.246 383.695,124.375C381.734,127.029 384.362,126.906 385.6,125.692C386.316,124.99 387.016,123.72 387.403,122.177C388.46,121.671 389.665,121.3 390.934,121.24C395.934,121.002 396.744,118.954 397.553,117.716C398.362,116.478 401.125,117.372 402.648,120.663C403.869,123.301 404.783,123.907 405.613,123.999C405.537,124.513 406.265,124.335 406.265,124.335C413.946,124.938 429.299,118.637 430.032,117.972C430.767,117.308 430.301,117.383 430.301,117.383ZM384.22,125.764C382.655,126.275 383.967,124.175 386.506,122.663C385.962,124.21 385.106,125.475 384.22,125.764Z" style="fill:url(#_Linear3);fill-rule:nonzero;"/>
    </g>
    <g transform="matrix(1,0,0,1,-354.991,-54.7575)">
        <path d="M414.459,111.192L422.3,109.7C422.3,109.7 405.855,120.557 397.22,116.011C390.295,112.365 390.546,106.046 390.546,106.046L409.919,110.843L414.459,111.192Z" style="fill:rgb(255,151,81);fill-opacity:0.67;fill-rule:nonzero;"/>
    </g>
    <g transform="matrix(1,0,0,1,-354.991,-54.7575)">
        <path d="M386.22,104.587C386.22,104.587 382.966,108.226 380.49,106.801C378.014,105.375 377.191,99.413 380.554,94.335L386.22,104.587Z" style="fill:rgb(255,151,81);fill-opacity:0.67;fill-rule:nonzero;"/>
    </g>
    <g transform="matrix(1,0,0,1,-354.991,-54.7575)">
        <path d="M390.363,106.287C390.363,106.287 390.957,105.525 394.046,101.287C397.135,97.049 402.903,94.652 407.745,96.726C413.052,99 413.078,104.188 413.174,105.976C413.269,107.763 412.602,111.097 414.46,111.192C414.46,111.192 411.489,112.406 409.617,113.585C407.745,114.764 393.542,112.319 392.882,109.517C392.221,106.716 390.363,106.287 390.363,106.287Z" style="fill:rgb(56,25,5);fill-rule:nonzero;"/>
    </g>
    <g transform="matrix(1,0,0,1,-354.991,-54.7575)">
        <path d="M386.22,104.587C386.22,104.587 388.176,102.197 389.093,97.561C390.077,92.589 388.458,83.256 380.553,94.335L379.458,97.907L384.298,104.929C385.482,104.24 386.22,104.587 386.22,104.587Z" style="fill:rgb(56,25,5);fill-rule:nonzero;"/>
    </g>
    <g transform="matrix(1,0,0,1,-354.991,-54.7575)">
        <path d="M379.458,97.906C377.601,103.382 380.522,107.859 384.298,104.928C388.722,101.496 379.458,97.906 379.458,97.906Z" style="fill:rgb(149,39,0);fill-opacity:0.6;fill-rule:nonzero;"/>
    </g>
    <g transform="matrix(1,0,0,1,-354.991,-54.7575)">
        <path d="M392.881,109.518C394.287,116.24 403.285,118.619 409.92,113.382C416.555,108.145 392.881,109.518 392.881,109.518Z" style="fill:rgb(149,39,0);fill-opacity:0.6;fill-rule:nonzero;"/>
    </g>
    <g transform="matrix(1,0,0,1,-354.991,-54.7575)">
        <path d="M392.744,105.859C393.679,99.575 400.839,95.43 406.792,97.097C412.745,98.764 413.84,108.526 410.84,112.526C407.84,116.526 391.03,117.383 392.744,105.859Z" style="fill:url(#_Linear4);fill-rule:nonzero;"/>
    </g>
    <g transform="matrix(1,0,0,1,-354.991,-54.7575)">
        <path d="M385.744,103.811C389.464,99.777 389.411,91.763 387.601,90.144C385.791,88.525 381.08,92.762 379.458,97.906C377.506,104.097 382.363,107.478 385.744,103.811Z" style="fill:url(#_Linear5);fill-rule:nonzero;"/>
    </g>
    <g transform="matrix(1,0,0,1,-354.991,-54.7575)">
        <g>
            <clipPath id="_clip6">
                <path d="M392.744,105.859C393.679,99.575 400.839,95.43 406.792,97.097C412.745,98.764 413.84,108.526 410.84,112.526C407.84,116.526 391.03,117.383 392.744,105.859Z"/>
            </clipPath>
            <g clip-path="url(#_clip6)">
                <g>
                    <g>
                        <circle cx="401.253" cy="106.735" r="7.671" style="fill:url(#_Linear7);"/>
                        <circle cx="397.997" cy="112.183" r="6.415" style="fill:url(#_Linear8);"/>
                    </g>
                </g>
                <path d="M392.078,110.272C392.078,110.272 391.312,98.418 402.27,98.447C413.983,98.478 412.078,112.994 412.078,112.994C412.078,112.994 418.083,93.198 413.568,86.997C409.053,80.796 406.266,70.833 399.54,75.067C392.814,79.301 389.607,93.676 389.607,93.676L392.078,110.272Z" style="fill:rgb(131,74,44);fill-opacity:0.47;fill-rule:nonzero;"/>
                <path d="M404.756,102.26C405.807,102.01 408.064,104.18 407.942,105.763C407.819,107.346 401.294,103.082 404.756,102.26Z" style="fill:white;fill-rule:nonzero;"/>
                <path d="M403.026,103.48C403.342,103.103 404.726,105.741 404.164,106.105C403.602,106.468 402.71,103.857 403.026,103.48Z" style="fill:white;fill-rule:nonzero;"/>
            </g>
        </g>
    </g>
    <g transform="matrix(1,0,0,1,-354.991,-54.7575)">
        <g>
            <clipPath id="_clip9">
                <path d="M385.744,103.811C389.464,99.777 389.411,91.763 387.601,90.144C385.791,88.525 381.08,92.762 379.458,97.906C377.506,104.097 382.363,107.478 385.744,103.811Z"/>
            </clipPath>
            <g clip-path="url(#_clip9)">
                <g>
                    <g>
                        <path d="M389.743,100.709C388.026,104.258 384.577,106.14 382.039,104.912C379.501,103.684 378.835,99.812 380.551,96.263C382.268,92.714 385.717,90.832 388.255,92.06C390.794,93.287 391.46,97.159 389.743,100.709Z" style="fill:url(#_Linear10);fill-rule:nonzero;"/>
                        <path d="M386.692,107.163C385.256,110.131 382.372,111.705 380.249,110.678C378.126,109.651 377.569,106.413 379.005,103.445C380.441,100.477 383.325,98.903 385.448,99.93C387.571,100.956 388.128,104.195 386.692,107.163Z" style="fill:url(#_Linear11);fill-rule:nonzero;"/>
                    </g>
                </g>
                <path d="M378.216,98.789C378.216,98.789 384.405,88.049 387.458,91.334C390.363,94.46 386.839,105.326 386.839,105.326C386.839,105.326 400.716,92.021 400.523,85.517C400.331,79.013 402.699,69.858 396.953,71.457C391.207,73.055 383.461,84.169 383.461,84.169L378.216,98.789Z" style="fill:rgb(131,74,44);fill-opacity:0.47;fill-rule:nonzero;"/>
                <path d="M389.059,95.751C389.79,95.846 390.263,98.319 389.548,99.609C388.833,100.9 386.652,95.437 389.059,95.751Z" style="fill:white;fill-rule:nonzero;"/>
                <path d="M387.529,96.272C387.871,96.048 387.631,98.659 387.147,98.801C386.663,98.943 387.186,96.497 387.529,96.272Z" style="fill:white;fill-rule:nonzero;"/>
            </g>
        </g>
    </g>
    <g transform="matrix(1,0,0,1,-354.991,-54.7575)">
        <path d="M384.558,106.519C389.292,104.597 387.114,107.675 387.114,107.675L384.558,106.519Z" style="fill:rgb(149,39,0);fill-opacity:0.33;fill-rule:nonzero;"/>
    </g>
    <g transform="matrix(1,0,0,1,-354.991,-54.7575)">
        <path d="M394.991,97.749C393.332,97.475 393.221,95.089 394.872,93.177C396.021,91.847 399.896,89.963 401.634,91.368C403.372,92.773 398.301,98.297 394.991,97.749Z" style="fill:rgb(255,151,81);fill-opacity:0.67;fill-rule:nonzero;"/>
    </g>
    <g transform="matrix(1,0,0,1,-354.991,-54.7575)">
        <path d="M390.673,94.785C388.316,94.789 390.186,86.547 391.708,86.938C393.23,87.33 393.928,94.78 390.673,94.785Z" style="fill:rgb(255,151,81);fill-opacity:0.67;fill-rule:nonzero;"/>
    </g>
    <g transform="matrix(1,0,0,1,-354.991,-54.7575)">
        <path d="M383.292,111.585C383.292,111.585 383.649,113.777 385.625,112.794C385.625,112.794 387.315,113.501 388.173,111.585C389.03,109.669 386.935,107.621 385.84,107.287C384.745,106.954 382.725,107.882 382.272,109.168C381.819,110.454 382.459,111.585 383.292,111.585Z" style="fill:rgb(255,151,81);fill-opacity:0.67;fill-rule:nonzero;"/>
    </g>
    <g transform="matrix(1,0,0,1,-354.991,-54.7575)">
        <path d="M386.479,112.867L385.069,110.353L386.033,107.301C386.091,107.118 385.99,106.92 385.806,106.865C385.623,106.807 385.427,106.909 385.37,107.092L384.4,110.163L382.61,111.25C382.446,111.35 382.394,111.563 382.493,111.728C382.526,111.782 382.57,111.823 382.622,111.852C382.728,111.91 382.86,111.912 382.971,111.845L384.565,110.877L385.873,113.209C385.906,113.268 385.953,113.313 386.008,113.343C386.11,113.399 386.238,113.403 386.347,113.342C386.513,113.247 386.573,113.035 386.479,112.867Z" style="fill:rgb(24,3,40);fill-rule:nonzero;"/>
        <path d="M386.641,107.001C386.14,106.939 385.638,106.801 385.215,106.526C385.03,106.406 384.807,106.363 384.559,106.518C384.09,106.811 384.541,107.735 384.886,108.307C385.06,108.596 385.412,108.716 385.727,108.595C386.368,108.35 387.334,107.886 387.133,107.378C387.032,107.129 386.845,107.027 386.641,107.001Z" style="fill:rgb(249,155,204);fill-rule:nonzero;"/>
        <path d="M384.885,108.308C385.059,108.597 385.411,108.717 385.726,108.596C386.239,108.4 386.951,108.063 387.115,107.676C386.926,107.816 386.536,108.055 385.201,107.871C384.507,107.775 384.432,107.311 384.364,106.99C384.384,107.392 384.655,107.926 384.885,108.308Z" style="fill:rgb(166,39,116);fill-opacity:0.42;fill-rule:nonzero;"/>
    </g>
    <g transform="matrix(1,0,0,1,-354.991,-54.7575)">
        <path d="M382.879,112.422C382.879,112.422 382.839,114.74 386.759,116.337C388.411,117.01 380.539,116.879 382.879,112.422Z" style="fill:rgb(149,39,0);fill-opacity:0.33;fill-rule:nonzero;"/>
    </g>
    <g transform="matrix(1,0,0,1,-354.991,-54.7575)">
        <path d="M425.013,95.354L426.411,99.808C426.723,100.8 427.939,101.163 428.743,100.503L436.365,94.253C437.547,93.284 436.646,91.379 435.147,91.678L426.126,93.475C425.27,93.645 424.751,94.521 425.013,95.354Z" style="fill:rgb(252,169,179);fill-rule:nonzero;"/>
    </g>
    <g transform="matrix(1,0,0,1,-354.991,-54.7575)">
        <path d="M474.656,108.847C475.062,108.838 475.471,108.833 475.843,109.02C476.157,109.178 476.43,109.415 476.629,109.704C477.116,110.412 477.171,111.311 477.009,112.133C476.97,112.331 477.065,112.536 477.27,112.592C477.453,112.642 477.69,112.53 477.729,112.332C477.932,111.305 477.87,110.16 477.242,109.283C476.97,108.903 476.618,108.57 476.195,108.364C475.915,108.227 475.625,108.166 475.33,108.134C475.041,108.363 474.784,108.594 474.569,108.813C474.602,108.82 474.618,108.848 474.656,108.847Z" style="fill:rgb(149,39,0);fill-opacity:0.81;fill-rule:nonzero;"/>
    </g>
    <g transform="matrix(1,0,0,1,-354.991,-54.7575)">
        <path d="M482.866,119.671C483.378,119.339 483.971,119.206 484.558,119.074C485.026,118.969 484.828,118.249 484.36,118.355C483.712,118.501 483.054,118.661 482.49,119.027C481.986,119.355 481.561,119.788 481.218,120.28C480.865,120.787 480.621,121.368 480.483,121.973C480.703,122.049 480.952,122.107 481.205,122.167C481.319,121.655 481.521,121.163 481.82,120.718C482.093,120.309 482.453,119.938 482.866,119.671Z" style="fill:rgb(149,39,0);fill-opacity:0.81;fill-rule:nonzero;"/>
    </g>
    <g transform="matrix(1,0,0,1,-354.991,-54.7575)">
        <path d="M481.021,117.987C481.469,117.824 481.276,117.103 480.823,117.268C479.902,117.603 479.133,118.218 478.562,118.979C478.456,119.312 478.395,119.633 478.369,119.907C478.344,120.163 478.394,120.41 478.494,120.635C478.911,119.444 479.831,118.419 481.021,117.987Z" style="fill:rgb(149,39,0);fill-opacity:0.81;fill-rule:nonzero;"/>
    </g>
    <g transform="matrix(1,0,0,1,-354.991,-54.7575)">
        <path d="M420.58,113.145C423.245,113.827 425.822,114.839 428.228,116.175C429.421,116.837 430.572,117.575 431.672,118.383C432.201,118.772 432.719,119.177 433.224,119.598C433.802,120.08 434.404,120.564 434.645,121.304C434.783,121.729 435.411,121.428 435.274,121.008C435.05,120.321 434.55,119.829 434.018,119.365C433.465,118.884 432.891,118.426 432.305,117.986C431.172,117.137 429.984,116.364 428.75,115.671C426.253,114.269 423.582,113.197 420.808,112.487C420.377,112.377 420.145,113.033 420.58,113.145Z" style="fill:rgb(56,25,5);fill-rule:nonzero;"/>
        <path d="M417.235,116.342C421.07,119.096 423.999,122.977 425.616,127.412C425.77,127.833 426.398,127.533 426.245,127.116C424.587,122.569 421.554,118.588 417.624,115.766C417.261,115.504 416.871,116.081 417.235,116.342Z" style="fill:rgb(56,25,5);fill-rule:nonzero;"/>
        <path d="M414.512,119.439C416.406,122.168 418.481,125.271 417.859,128.765C417.781,129.206 418.475,129.256 418.552,128.818C419.207,125.139 417.034,121.859 415.04,118.986C414.785,118.619 414.259,119.074 414.512,119.439Z" style="fill:rgb(56,25,5);fill-rule:nonzero;"/>
    </g>
    <g transform="matrix(1,0,0,1,-354.991,-54.7575)">
        <path d="M364.014,107.986C364.014,107.986 363.506,106.208 367.57,107.287C371.634,108.366 377.5,113.837 374.503,118.943C374.503,118.943 374.871,121.763 372.459,121.89C372.459,121.89 372.713,124.747 365.475,125.065C358.237,125.383 354.808,121.098 354.999,116.002C355.188,110.907 359.315,107.669 364.014,107.986Z" style="fill:url(#_Linear12);fill-rule:nonzero;"/>
        <path d="M365.474,125.066C372.712,124.749 372.458,121.891 372.458,121.891C374.871,121.764 374.502,118.944 374.502,118.944C376.401,115.708 374.738,112.329 372.232,110.011C372.621,110.405 375.024,113.031 373.065,116.121C372.96,114.302 372.34,112.356 370.759,110.803L370.746,110.772C370.746,110.772 370.744,110.786 370.744,110.788C369.35,109.426 367.22,108.368 364.013,107.986C364.013,107.986 368.293,108.591 370.556,111.802C370.044,113.94 368.199,118.671 361.872,118.477C358.337,115.779 357.601,111.585 357.601,111.585C357.947,117.071 360.802,119.781 363.656,121.002C359.598,121.555 355.705,120.691 355.081,117.715C355.649,122.018 359.065,125.347 365.474,125.066ZM362.736,119.067C364.645,118.704 369.151,117.394 371.265,113.039C371.795,114.243 372.041,115.734 371.838,117.557C371.787,117.605 371.749,117.651 371.696,117.699C370.345,118.897 368.404,119.837 366.324,120.437C364.919,120.161 363.734,119.677 362.736,119.067Z" style="fill:rgb(89,154,0);fill-opacity:0.57;fill-rule:nonzero;"/>
        <path d="M361.792,121.859C361.792,121.859 367.316,124.24 369.84,123.669C369.839,123.669 365.792,126.098 361.792,121.859Z" style="fill:rgb(89,154,0);fill-opacity:0.82;fill-rule:nonzero;"/>
        <path d="M372.601,119.812C372.601,119.812 374.315,118.83 374.173,116.011C374.173,116.011 375.649,119.383 372.601,119.812Z" style="fill:rgb(89,154,0);fill-opacity:0.82;fill-rule:nonzero;"/>
        <path d="M361.216,121.924C361.216,121.924 361.845,123.797 364.638,124.206C364.637,124.206 361.042,124.997 361.216,121.924Z" style="fill:rgb(89,154,0);fill-opacity:0.82;fill-rule:nonzero;"/>
        <path d="M361.268,116.534C361.268,116.534 357.982,112.661 360.935,109.355C360.934,109.355 359.74,111.971 361.268,116.534Z" style="fill:rgb(89,154,0);fill-opacity:0.57;fill-rule:nonzero;"/>
        <path d="M360.95,113.385C360.95,113.385 363.283,117.531 365.498,116.824C365.498,116.824 362.474,119.32 360.95,113.385Z" style="fill:rgb(89,154,0);fill-opacity:0.57;fill-rule:nonzero;"/>
        <path d="M368.024,110.608C368.024,110.608 363.716,107.234 362.381,109.696C362.381,109.696 364.701,109.084 368.024,110.608Z" style="fill:rgb(89,154,0);fill-opacity:0.57;fill-rule:nonzero;"/>
        <path d="M364.792,118.954C364.792,118.954 368.413,118.298 369.84,115.668C369.839,115.669 368.721,120.312 364.792,118.954Z" style="fill:rgb(89,154,0);fill-opacity:0.57;fill-rule:nonzero;"/>
        <path d="M364.014,107.986C365.958,108.217 367.501,108.7 368.73,109.346C368.344,108.461 368.582,107.791 372.234,110.011C370.786,108.671 369.058,107.683 367.57,107.287C363.506,106.208 364.014,107.986 364.014,107.986Z" style="fill:url(#_Linear13);fill-rule:nonzero;"/>
        <path d="M354.998,116.003C354.956,117.128 355.101,118.21 355.414,119.215C355.264,118.731 355.149,118.231 355.081,117.715C355.421,119.337 356.748,120.313 358.527,120.792C356.569,119.89 356.811,117.481 358.282,115.163C357.927,114.126 357.686,112.941 357.601,111.584C357.601,111.584 357.838,112.926 358.682,114.579C359.007,114.133 359.375,113.698 359.779,113.282C359.58,112.068 359.761,110.668 360.935,109.354C360.935,109.354 360.431,110.507 360.513,112.584C362.148,111.15 364.215,110.095 366.355,109.996C363.958,109.302 362.381,109.695 362.381,109.695C363.34,107.927 365.823,109.164 367.152,110.005C367.937,110.059 368.727,110.244 369.502,110.603C367.176,108.437 364.014,107.984 364.014,107.984C359.315,107.668 355.188,110.907 354.998,116.003Z" style="fill:url(#_Linear14);fill-rule:nonzero;"/>
    </g>
    <g transform="matrix(1,0,0,1,-354.991,-54.7575)">
        <path d="M407.587,85.1C407.726,86.382 405.405,85.968 404.746,85.745C404.584,85.69 404.377,85.839 404.392,86.015C404.456,86.758 403.698,87.24 403.016,87.151C402.308,87.059 401.755,86.54 401.31,86.021C401.12,85.799 400.779,86.038 400.842,86.293C401.114,87.39 399.874,88.269 398.963,87.538C398.192,86.92 397.897,85.664 397.731,84.741C397.667,84.387 397.128,84.537 397.191,84.89C397.409,86.1 397.943,88.067 399.379,88.335C400.4,88.525 401.235,87.826 401.397,86.914C401.954,87.419 402.644,87.806 403.409,87.712C404.133,87.623 404.773,87.079 404.899,86.366C406.062,86.654 408.322,86.728 408.145,85.101C408.108,84.746 407.549,84.742 407.587,85.1Z" style="fill:rgb(149,39,0);fill-opacity:0.81;fill-rule:nonzero;"/>
    </g>
    <g transform="matrix(1,0,0,1,-354.991,-54.7575)">
        <path d="M472.037,64.511C469.451,63.686 466.331,63.325 464.117,65.141C464.045,64.746 463.841,64.383 463.52,64.102C462.931,63.588 462.168,63.481 461.418,63.623C460.562,63.785 459.735,64.238 458.998,64.689C458.826,64.794 458.68,64.928 458.519,65.046C458.645,64.474 458.638,63.876 458.434,63.32C457.975,62.064 456.491,62.298 455.441,62.522C453.031,63.037 450.902,64.639 449.733,66.805C449.562,67.122 450.045,67.405 450.216,67.087C451.164,65.33 452.765,63.971 454.655,63.321C455.092,63.171 455.542,63.056 455.998,62.985C456.492,62.908 457.294,62.749 457.692,63.144C458.052,63.501 458.067,64.177 458.019,64.647C457.958,65.249 457.713,65.82 457.333,66.288L457.334,66.289C457.322,66.31 457.301,66.324 457.29,66.345C457.141,66.611 457.522,66.939 457.729,66.684C457.744,66.666 457.753,66.642 457.768,66.623C457.77,66.624 457.771,66.626 457.773,66.627C458.378,65.548 459.613,64.883 460.721,64.424C461.342,64.167 462.1,63.963 462.746,64.258C463.281,64.502 463.72,65.048 463.573,65.658C463.509,65.923 463.84,66.137 464.041,65.93C466.122,63.785 469.315,64.229 471.889,65.05C472.233,65.16 472.38,64.62 472.037,64.511Z" style="fill:rgb(149,39,0);fill-opacity:0.81;fill-rule:nonzero;"/>
    </g>
    <g transform="matrix(1,0,0,1,-354.991,-54.7575)">
        <path d="M502.979,81.8C502.785,81.083 502.576,80.289 502.18,79.651C501.886,79.177 501.43,78.783 500.847,78.782C500.646,78.782 500.461,78.834 500.291,78.913C500.323,77.724 500.091,76.472 499.477,75.471C498.91,74.546 497.944,74.987 497.217,75.585C497.347,74.741 497.371,73.885 497.269,73.033C497.156,72.087 496.882,71.17 495.999,70.677C494.362,69.762 492.191,70.267 490.892,71.527C490.633,71.778 491.029,72.174 491.288,71.923C492.406,70.839 494.3,70.371 495.717,71.161C496.571,71.637 496.699,72.655 496.757,73.542C496.818,74.485 496.725,75.422 496.5,76.339C496.437,76.594 496.776,76.834 496.967,76.611C497.303,76.22 497.691,75.885 498.151,75.647C498.479,75.477 498.772,75.392 498.994,75.754C499.142,75.996 499.255,76.272 499.354,76.537C499.724,77.532 499.825,78.59 499.694,79.64C499.654,79.962 500.155,80.004 500.243,79.714C500.438,79.074 501.26,79.379 501.554,79.736C501.947,80.212 502.12,80.876 502.298,81.457C502.691,82.738 502.918,84.072 502.883,85.414C502.821,87.751 501.863,90.121 499.955,91.549C499.67,91.762 499.949,92.248 500.237,92.032C502.658,90.221 503.649,87.166 503.409,84.225C503.341,83.406 503.193,82.593 502.979,81.8Z" style="fill:rgb(149,39,0);fill-opacity:0.81;fill-rule:nonzero;"/>
    </g>
    <g transform="matrix(1,0,0,1,-354.991,-54.7575)">
        <path d="M451.26,109.752C450.39,109.266 449.182,109.176 448.471,109.896C448.099,109.038 447.563,108.197 446.547,108.096C445.639,108.006 445.172,108.625 444.936,109.357C444.672,108.858 444.383,108.373 444.037,107.923C443.642,107.408 443.186,106.807 442.547,106.589C441.004,106.063 440.24,107.846 439.946,109C439.857,109.349 440.397,109.498 440.486,109.149C440.634,108.567 440.782,107.93 441.211,107.483C441.695,106.98 442.326,106.963 442.844,107.413C443.71,108.167 444.339,109.277 444.799,110.314C444.892,110.524 445.277,110.48 445.31,110.247C445.412,109.526 445.629,108.474 446.603,108.667C447.484,108.842 447.848,109.79 448.13,110.532C448.209,110.74 448.521,110.83 448.641,110.599C449.205,109.517 450.562,109.923 451.355,110.474C452.252,111.098 453.122,111.966 453.318,113.078C453.38,113.432 453.919,113.282 453.858,112.929C453.619,111.567 452.431,110.406 451.26,109.752Z" style="fill:rgb(149,39,0);fill-opacity:0.81;fill-rule:nonzero;"/>
    </g>
    <g transform="matrix(1,0,0,1,-354.991,-54.7575)">
        <path d="M542.171,105.107C541.734,102.682 539.512,101.286 537.396,100.44C537.062,100.306 536.917,100.847 537.247,100.98C539.058,101.704 540.942,102.832 541.528,104.821C541.79,105.712 541.73,106.683 541.201,107.465C540.7,108.206 539.881,108.677 538.979,108.616C538.71,108.598 538.587,109.021 538.838,109.137C540.328,109.825 541.36,111.456 540.716,113.088C540.12,114.597 538.102,115.148 536.98,113.861C536.815,113.672 536.505,113.829 536.502,114.059C536.486,115.24 536.444,116.505 535.577,117.41C534.801,118.219 533.677,118.627 532.599,118.837C530.331,119.279 527.939,118.727 526.066,117.388C525.772,117.178 525.493,117.663 525.784,117.871C527.861,119.355 530.552,119.893 533.041,119.314C534.17,119.051 535.346,118.555 536.111,117.651C536.835,116.796 536.995,115.731 537.04,114.656C538.38,115.611 540.371,115.063 541.12,113.548C541.932,111.905 541.224,110.107 539.847,109.093C541.51,108.684 542.476,106.8 542.171,105.107Z" style="fill:rgb(149,39,0);fill-opacity:0.81;fill-rule:nonzero;"/>
    </g>
    <g transform="matrix(1,0,0,1,-354.991,-54.7575)">
        <path d="M459.254,83.458C459.063,81.733 458.756,80.177 458.365,78.759C464.741,86.195 466.409,95.912 465.441,98.814C462.047,105.577 456.151,112.048 448.841,117.637C448.841,117.637 461.413,102.93 459.254,83.458ZM480.08,76.938C476.523,64.049 476.265,56.852 477.839,56.557L477.852,56.557C477.794,57.503 477.998,59.451 478.795,63.192C480.277,70.149 486.918,77.204 493.244,80.206C492.964,84.494 492.003,89.166 489.964,93.794C485.626,89.566 482.002,83.903 480.08,76.938ZM480.589,109.64C483.459,106.516 486.276,102.636 488.778,97.787C489.257,96.859 489.682,95.929 490.09,95.001C491.624,96.445 493.317,97.706 495.15,98.793C491.425,102.118 486.551,105.982 480.589,109.64ZM521.086,108.751C521.086,108.751 520.366,108.359 520.414,109.169C520.462,109.979 521.2,118.145 516.152,121.05C516.152,121.05 520.446,115.777 517.009,107.469C517.414,106.84 516.62,107.193 516.62,107.193C509.72,108.748 504.155,103.294 503.019,102.082C511.867,104.573 516.419,102.155 516.557,101.908C516.716,101.622 516.557,101.617 516.557,101.617C516.557,101.617 516.251,101.765 515.692,101.953C508.399,102.196 506.044,94.011 506.044,94.011L505.775,94.596C508.263,101.693 512.984,102.273 514.785,102.22C512.47,102.821 507.993,103.391 501.984,101.352C500.126,100.722 498.254,99.85 496.419,98.764C502.092,93.73 504.185,90.38 505.079,89.05C506.536,86.885 506.857,85.288 505.349,84.621C505.349,84.621 507.198,86.24 503.127,90.812C501.977,92.103 499.466,94.893 495.685,98.316C493.867,97.174 492.092,95.82 490.418,94.247C492.393,89.53 493.463,84.859 493.868,80.487C494.647,80.825 495.42,81.111 496.174,81.312C503.222,83.193 504.484,77.36 504.587,76.431C504.69,75.502 504.269,75.797 504.269,75.797C504.269,75.797 503.254,84.247 493.925,79.86C494.727,69.635 491.836,61.193 487.949,58.157C487.949,58.157 486.032,56.438 486.008,57.566C486.008,57.566 489.46,58.718 491.365,64.241C492.402,67.249 493.601,72.901 493.27,79.541C492.302,79.044 491.255,78.421 490.111,77.638C477.222,68.812 478.61,56.145 478.61,56.145C478.388,55.798 478.077,55.57 477.926,56.051L477.925,56.049C477.925,56.049 477.835,55.409 477.243,55.957C476.651,56.504 474.878,57.512 477.733,70.592C479.748,79.823 483.484,88.535 489.63,94.567C489.198,95.489 488.732,96.409 488.207,97.323C485.067,102.786 482.238,107.114 478.683,110.788C469.4,116.199 457.677,120.932 443.833,122.492C445.548,121.689 469.101,106.274 469.412,87.863C469.73,69.069 451.923,62.237 450.794,61.843C449.665,61.45 449.935,62.434 449.935,62.434C449.935,62.434 462.554,65.894 467.316,79.164C469.392,84.95 468.859,90.93 466.415,96.739C467.564,93.387 463.043,82.986 457.825,77.037C453.255,64.231 440.839,65.005 440.839,65.005C440.839,65.005 440.434,65.172 440.839,65.576C440.839,65.576 450.42,65.355 455.59,74.816C449.521,69.722 435.93,69.817 428.49,76.227C428.139,76.529 428.204,77.131 428.204,77.131C431.251,73.321 445.856,67.925 455.038,75.481C455.569,75.918 456.072,76.375 456.558,76.843C457.344,78.722 457.975,80.903 458.364,83.461C461.135,101.698 447.316,120.339 443.316,122.148C443.316,122.148 442.963,122.691 443.688,122.54C443.632,122.622 443.539,122.847 444.182,122.902C444.182,122.902 460.117,121.794 476.889,112.526C472.135,116.843 466.305,120.05 456.697,123.423C456.697,123.423 457.03,124.171 460.713,122.573C463.272,121.462 471.106,119.074 478.929,111.363C479.582,110.977 480.235,110.582 480.888,110.17C487.545,105.969 492.365,102.305 495.888,99.235C496.766,99.719 497.668,100.171 498.619,100.561C499.986,101.123 501.268,101.566 502.48,101.928L502.468,101.931C507.355,108.172 514.798,108.182 516.602,107.665C517.151,108.906 519.97,116.058 514.746,121.672C514.746,121.672 514.718,122.331 515.744,121.942C516.771,121.55 521.591,119.096 521.086,108.751Z" style="fill:url(#_Linear15);fill-rule:nonzero;"/>
    </g>
    <g transform="matrix(1,0,0,1,-354.991,-54.7575)">
        <path d="M435.589,62.594C435.277,62.412 434.995,62.896 435.307,63.077C436.391,63.709 437.11,64.889 437.161,66.145C437.176,66.504 437.735,66.506 437.721,66.145C437.661,64.693 436.846,63.327 435.589,62.594Z" style="fill:rgb(166,39,0);fill-rule:nonzero;"/>
    </g>
    <g transform="matrix(1,0,0,1,-354.991,-54.7575)">
        <path d="M437.272,63.086C437.999,64.225 438.36,65.554 438.308,66.905C438.294,67.265 438.854,67.264 438.868,66.905C438.924,65.462 438.533,64.021 437.756,62.804C437.562,62.501 437.077,62.781 437.272,63.086Z" style="fill:rgb(166,39,0);fill-rule:nonzero;"/>
    </g>
    <g transform="matrix(1,0,0,1,-354.991,-54.7575)">
        <path d="M483.335,54.792C482.131,55.384 481.338,56.679 481.335,58.017C481.334,58.377 481.894,58.378 481.895,58.017C481.897,56.863 482.585,55.783 483.618,55.275C483.753,55.208 483.791,55.016 483.718,54.892C483.637,54.754 483.471,54.725 483.335,54.792Z" style="fill:rgb(166,39,0);fill-rule:nonzero;"/>
    </g>
    <g transform="matrix(1,0,0,1,-354.991,-54.7575)">
        <path d="M513.146,72.716C512.793,72.758 512.789,73.318 513.146,73.276C514.94,73.061 516.993,72.846 518.523,74.012C518.809,74.23 519.088,73.744 518.805,73.529C517.197,72.302 515.034,72.489 513.146,72.716Z" style="fill:rgb(166,39,0);fill-rule:nonzero;"/>
    </g>
    <g transform="matrix(1,0,0,1,-354.991,-54.7575)">
        <path d="M516.063,71.471C516.372,71.659 516.653,71.175 516.345,70.988C515.268,70.333 513.891,70.296 512.774,70.872C512.454,71.037 512.737,71.52 513.056,71.355C513.998,70.869 515.16,70.922 516.063,71.471Z" style="fill:rgb(166,39,0);fill-rule:nonzero;"/>
    </g>
    <g transform="matrix(1,0,0,1,-354.991,-54.7575)">
        <path d="M531.523,93.862C531.189,93.728 531.044,94.269 531.374,94.402C532,94.654 532.423,95.265 532.625,95.889C532.888,96.698 532.841,97.566 532.804,98.404C532.788,98.764 533.347,98.763 533.364,98.404C533.407,97.459 533.45,96.46 533.102,95.561C532.807,94.804 532.287,94.169 531.523,93.862Z" style="fill:rgb(166,39,0);fill-rule:nonzero;"/>
    </g>
    <g transform="matrix(1,0,0,1,-354.991,-54.7575)">
        <path d="M533.242,93.203C533.795,94.305 534.003,95.576 533.818,96.796C533.795,96.946 533.856,97.095 534.013,97.14C534.145,97.178 534.334,97.094 534.357,96.945C534.566,95.565 534.351,94.169 533.724,92.921C533.564,92.599 533.081,92.882 533.242,93.203Z" style="fill:rgb(166,39,0);fill-rule:nonzero;"/>
    </g>
    <defs>
        <linearGradient id="_Linear1" x1="0" y1="0" x2="1" y2="0" gradientUnits="userSpaceOnUse" gradientTransform="matrix(-11.9282,-47.5295,47.5295,-11.9282,467.182,123.341)"><stop offset="0" style="stop-color:rgb(170,60,0);stop-opacity:1"/><stop offset="0.13" style="stop-color:rgb(193,85,22);stop-opacity:1"/><stop offset="0.31" style="stop-color:rgb(220,114,48);stop-opacity:1"/><stop offset="0.49" style="stop-color:rgb(239,134,66);stop-opacity:1"/><stop offset="0.67" style="stop-color:rgb(251,147,77);stop-opacity:1"/><stop offset="0.84" style="stop-color:rgb(255,151,81);stop-opacity:1"/><stop offset="1" style="stop-color:rgb(255,151,81);stop-opacity:1"/></linearGradient>
        <linearGradient id="_Linear2" x1="0" y1="0" x2="1" y2="0" gradientUnits="userSpaceOnUse" gradientTransform="matrix(7.75189e-16,-12.6598,12.6598,7.75189e-16,417.284,83.4576)"><stop offset="0" style="stop-color:rgb(44,66,0);stop-opacity:1"/><stop offset="0.31" style="stop-color:rgb(45,69,2);stop-opacity:1"/><stop offset="0.55" style="stop-color:rgb(50,79,8);stop-opacity:1"/><stop offset="0.76" style="stop-color:rgb(57,95,18);stop-opacity:1"/><stop offset="0.96" style="stop-color:rgb(68,118,32);stop-opacity:1"/><stop offset="1" style="stop-color:rgb(71,124,36);stop-opacity:1"/></linearGradient>
        <linearGradient id="_Linear3" x1="0" y1="0" x2="1" y2="0" gradientUnits="userSpaceOnUse" gradientTransform="matrix(1.01435e-15,-16.5656,16.5656,1.01435e-15,400.325,115.282)"><stop offset="0" style="stop-color:rgb(44,66,0);stop-opacity:1"/><stop offset="0.38" style="stop-color:rgb(53,85,12);stop-opacity:1"/><stop offset="1" style="stop-color:rgb(71,124,36);stop-opacity:1"/></linearGradient>
        <linearGradient id="_Linear4" x1="0" y1="0" x2="1" y2="0" gradientUnits="userSpaceOnUse" gradientTransform="matrix(1.13275e-15,-18.4992,18.4992,1.13275e-15,402.537,115.226)"><stop offset="0" style="stop-color:rgb(255,205,0);stop-opacity:1"/><stop offset="0.41" style="stop-color:rgb(255,205,0);stop-opacity:1"/><stop offset="0.54" style="stop-color:rgb(255,194,0);stop-opacity:1"/><stop offset="0.76" style="stop-color:rgb(255,165,0);stop-opacity:1"/><stop offset="0.89" style="stop-color:rgb(255,144,0);stop-opacity:1"/><stop offset="1" style="stop-color:rgb(255,144,0);stop-opacity:1"/></linearGradient>
        <linearGradient id="_Linear5" x1="0" y1="0" x2="1" y2="0" gradientUnits="userSpaceOnUse" gradientTransform="matrix(9.51116e-16,-15.5329,15.5329,9.51116e-16,383.907,105.327)"><stop offset="0" style="stop-color:rgb(255,205,0);stop-opacity:1"/><stop offset="0.41" style="stop-color:rgb(255,205,0);stop-opacity:1"/><stop offset="0.54" style="stop-color:rgb(255,194,0);stop-opacity:1"/><stop offset="0.76" style="stop-color:rgb(255,165,0);stop-opacity:1"/><stop offset="0.89" style="stop-color:rgb(255,144,0);stop-opacity:1"/><stop offset="1" style="stop-color:rgb(255,144,0);stop-opacity:1"/></linearGradient>
        <linearGradient id="_Linear7" x1="0" y1="0" x2="1" y2="0" gradientUnits="userSpaceOnUse" gradientTransform="matrix(9.39365e-16,-15.341,15.341,9.39365e-16,401.253,114.406)"><stop offset="0" style="stop-color:rgb(157,0,0);stop-opacity:1"/><stop offset="0.16" style="stop-color:rgb(130,4,0);stop-opacity:1"/><stop offset="0.39" style="stop-color:rgb(98,8,0);stop-opacity:1"/><stop offset="0.61" style="stop-color:rgb(75,11,0);stop-opacity:1"/><stop offset="0.82" style="stop-color:rgb(61,13,0);stop-opacity:1"/><stop offset="1" style="stop-color:rgb(56,14,0);stop-opacity:1"/></linearGradient>
        <linearGradient id="_Linear8" x1="0" y1="0" x2="1" y2="0" gradientUnits="userSpaceOnUse" gradientTransform="matrix(7.85574e-16,-12.8294,12.8294,7.85574e-16,397.997,118.598)"><stop offset="0" style="stop-color:black;stop-opacity:0.32"/><stop offset="0.48" style="stop-color:rgb(129,129,0);stop-opacity:0.32"/><stop offset="0.84" style="stop-color:rgb(219,219,0);stop-opacity:0.32"/><stop offset="1" style="stop-color:rgb(255,255,0);stop-opacity:0.32"/></linearGradient>
        <linearGradient id="_Linear10" x1="0" y1="0" x2="1" y2="0" gradientUnits="userSpaceOnUse" gradientTransform="matrix(6.21655,-12.8529,12.8529,6.21655,382.039,104.912)"><stop offset="0" style="stop-color:rgb(157,0,0);stop-opacity:1"/><stop offset="0.16" style="stop-color:rgb(130,4,0);stop-opacity:1"/><stop offset="0.39" style="stop-color:rgb(98,8,0);stop-opacity:1"/><stop offset="0.61" style="stop-color:rgb(75,11,0);stop-opacity:1"/><stop offset="0.82" style="stop-color:rgb(61,13,0);stop-opacity:1"/><stop offset="1" style="stop-color:rgb(56,14,0);stop-opacity:1"/></linearGradient>
        <linearGradient id="_Linear11" x1="0" y1="0" x2="1" y2="0" gradientUnits="userSpaceOnUse" gradientTransform="matrix(5.19872,-10.7485,10.7485,5.19872,380.249,110.678)"><stop offset="0" style="stop-color:black;stop-opacity:0.32"/><stop offset="0.48" style="stop-color:rgb(129,129,0);stop-opacity:0.32"/><stop offset="0.84" style="stop-color:rgb(219,219,0);stop-opacity:0.32"/><stop offset="1" style="stop-color:rgb(255,255,0);stop-opacity:0.32"/></linearGradient>
        <linearGradient id="_Linear12" x1="0" y1="0" x2="1" y2="0" gradientUnits="userSpaceOnUse" gradientTransform="matrix(8.3944,16.4738,-16.4738,8.3944,360.882,108.201)"><stop offset="0" style="stop-color:rgb(71,124,36);stop-opacity:1"/><stop offset="0.24" style="stop-color:rgb(68,117,32);stop-opacity:1"/><stop offset="0.59" style="stop-color:rgb(58,97,19);stop-opacity:1"/><stop offset="1" style="stop-color:rgb(44,66,0);stop-opacity:1"/></linearGradient>
        <linearGradient id="_Linear13" x1="0" y1="0" x2="1" y2="0" gradientUnits="userSpaceOnUse" gradientTransform="matrix(8.3944,16.4739,-16.4739,8.3944,366.308,105.436)"><stop offset="0" style="stop-color:rgb(71,124,36);stop-opacity:0.3"/><stop offset="0.24" style="stop-color:rgb(68,117,32);stop-opacity:0.3"/><stop offset="0.59" style="stop-color:rgb(58,97,19);stop-opacity:0.3"/><stop offset="1" style="stop-color:rgb(44,66,0);stop-opacity:0.3"/></linearGradient>
        <linearGradient id="_Linear14" x1="0" y1="0" x2="1" y2="0" gradientUnits="userSpaceOnUse" gradientTransform="matrix(8.3944,16.474,-16.474,8.3944,359.419,108.947)"><stop offset="0" style="stop-color:rgb(71,124,36);stop-opacity:0.3"/><stop offset="0.24" style="stop-color:rgb(68,117,32);stop-opacity:0.3"/><stop offset="0.59" style="stop-color:rgb(58,97,19);stop-opacity:0.3"/><stop offset="1" style="stop-color:rgb(44,66,0);stop-opacity:0.3"/></linearGradient>
        <linearGradient id="_Linear15" x1="0" y1="0" x2="1" y2="0" gradientUnits="userSpaceOnUse" gradientTransform="matrix(4.15533e-15,-67.8617,67.8617,4.15533e-15,474.661,123.594)"><stop offset="0" style="stop-color:rgb(44,66,0);stop-opacity:1"/><stop offset="0.38" style="stop-color:rgb(53,85,12);stop-opacity:1"/><stop offset="1" style="stop-color:rgb(71,124,36);stop-opacity:1"/></linearGradient>
    </defs>
</svg>
